#N canvas 0 23 1440 855 10;
#X obj 443 43 inlet~;
#X text 441 24 CLOCK IN;
#X obj 119 152 vsl 15 96 0 127 0 1 \$0-16steps-s2-s \$0-16steps-s2-r
2 3 -9 0 10 -262144 -1 -1 8600 1;
#X obj 104 152 vsl 15 96 0 127 0 1 \$0-16steps-s1-s \$0-16steps-s1-r
1 3 -9 0 10 -262144 -1 -1 2768 1;
#X obj 149 152 vsl 15 96 0 127 0 1 \$0-16steps-s4-s \$0-16steps-s4-r
4 3 -9 0 10 -262144 -1 -1 5000 1;
#X obj 134 152 vsl 15 96 0 127 0 1 \$0-16steps-s3-s \$0-16steps-s3-r
3 3 -9 0 10 -262144 -1 -1 0 1;
#X obj 132 128 cnv 5 5 5 empty empty 16STEPS 0 0 0 12 -262144 -66577
0;
#X obj 989 28 inlet~;
#X msg 989 95 0;
#X text 986 7 RESET IN;
#X obj 103 111 cnv 5 5 5 empty empty CLOCK-IN 0 0 0 8 -262144 -226533
0;
#X obj 318 109 cnv 5 5 5 empty empty RESET 0 0 0 8 -262144 -226533
0;
#X symbolatom 105 255 15 0 0 0 - - -;
#X obj 327 293 cnv 5 5 5 empty empty S1 0 0 0 8 -262144 -226533 0;
#X obj 411 301 f;
#X obj 452 301 f;
#X obj 490 301 f;
#X obj 530 302 f;
#X obj 426 251 / 127;
#X obj 426 273 * 28;
#X obj 467 251 / 127;
#X obj 467 273 * 28;
#X obj 505 251 / 127;
#X obj 505 273 * 28;
#X obj 545 252 / 127;
#X obj 545 274 * 28;
#X obj 425 506 sig~;
#X obj 425 600 outlet~;
#N canvas 120 22 1142 609 choose-scale 0;
#X obj 396 470 outlet;
#X obj 439 53 / 127;
#X obj 439 119 i;
#X obj 439 31 inlet;
#X msg -1 273 set ionian;
#X msg 92 274 set dorian;
#X msg 177 276 set phrygian;
#X msg 277 277 set lydian;
#X msg 364 278 set aeolian;
#X msg 442 307 set whole;
#X msg 537 311 set chromatic;
#X msg 650 316 set harm-major;
#X msg 677 365 set lyd-minor;
#X msg 764 409 set ancient;
#X msg 902 423 set pelog;
#X msg 940 380 set tetra;
#X msg 968 309 set indian;
#X msg 1035 260 set slendro;
#X obj 439 74 * 14;
#X obj 439 178 sel 0 1 2 3 4 5 6 7 8 9 10 11 12 13 14;
#X msg 895 213 set free;
#X obj 938 548 outlet;
#X floatatom 864 530 5 0 0 0 - - -;
#X obj 864 508 == 14;
#X connect 1 0 18 0;
#X connect 2 0 19 0;
#X connect 2 0 23 0;
#X connect 3 0 1 0;
#X connect 4 0 0 0;
#X connect 5 0 0 0;
#X connect 6 0 0 0;
#X connect 7 0 0 0;
#X connect 8 0 0 0;
#X connect 9 0 0 0;
#X connect 10 0 0 0;
#X connect 11 0 0 0;
#X connect 12 0 0 0;
#X connect 13 0 0 0;
#X connect 14 0 0 0;
#X connect 15 0 0 0;
#X connect 16 0 0 0;
#X connect 17 0 0 0;
#X connect 18 0 2 0;
#X connect 19 0 4 0;
#X connect 19 1 5 0;
#X connect 19 2 6 0;
#X connect 19 3 7 0;
#X connect 19 4 8 0;
#X connect 19 5 9 0;
#X connect 19 6 10 0;
#X connect 19 7 11 0;
#X connect 19 8 12 0;
#X connect 19 9 13 0;
#X connect 19 10 15 0;
#X connect 19 11 16 0;
#X connect 19 12 14 0;
#X connect 19 13 17 0;
#X connect 19 14 20 0;
#X connect 20 0 0 0;
#X connect 23 0 21 0;
#X connect 23 0 22 0;
#X restore 239 374 pd choose-scale;
#X obj 425 482 / 127;
#X obj 322 120 bng 15 50 50 0 empty empty empty 17 7 0 10 -262144 -258113
-1;
#X obj 989 72 t b b;
#X obj 179 152 vsl 15 96 0 127 0 1 \$0-16steps-s6-s \$0-16steps-s6-r
6 3 -9 0 10 -262144 -1 -1 0 1;
#X obj 164 152 vsl 15 96 0 127 0 1 \$0-16steps-s5-s \$0-16steps-s5-r
5 3 -9 0 10 -262144 -1 -1 8800 1;
#X obj 209 152 vsl 15 96 0 127 0 1 \$0-16steps-s8-s \$0-16steps-s8-r
8 3 -9 0 10 -262144 -1 -1 2800 1;
#X obj 194 152 vsl 15 96 0 127 0 1 \$0-16steps-s7-s \$0-16steps-s7-r
7 3 -9 0 10 -262144 -1 -1 600 1;
#X obj 569 301 f;
#X obj 606 301 f;
#X obj 642 301 f;
#X obj 678 300 f;
#X obj 584 252 / 127;
#X obj 584 273 * 28;
#X obj 621 252 / 127;
#X obj 621 273 * 28;
#X obj 657 252 / 127;
#X obj 657 273 * 28;
#X obj 693 251 / 127;
#X obj 693 272 * 28;
#X floatatom 374 328 5 0 0 0 - - -;
#X obj 1029 78 loadbang;
#X obj 108 270 hsl 128 15 0 127 0 1 \$0-8steps-scale-s \$0-8steps-scale-r
SCALE 133 7 0 10 -262144 -1 -1 0 1;
#X obj 425 531 +~;
#X obj 569 45 inlet~;
#X obj 414 352 +, f 29;
#X obj 591 114 snapshot~;
#X obj 591 136 t b f;
#X obj 443 87 t b b;
#X obj 633 81 bang~;
#X obj 425 553 min~ 1;
#X obj 425 575 max~ 0;
#X obj 659 494 *~ 0.125;
#X obj 591 81 *~ 14;
#X text 568 26 CV(PRE-Q);
#X obj 641 45 inlet~;
#X text 640 26 CV(POST-Q);
#X obj 196 111 cnv 5 5 5 empty empty CV(POST-Q) 0 0 0 8 -262144 -1
0;
#X obj 149 111 cnv 5 5 5 empty empty CV(PRE-Q) 0 0 0 8 -262144 -1 0
;
#X obj 106 120 bng 15 50 50 0 empty empty empty 17 7 0 10 -262144 -226533
-1;
#X obj 644 589 outlet~;
#X obj 425 398 t f f;
#X obj 723 415 / 28;
#X obj 723 504 sig~;
#X obj 644 521 +~;
#X obj 644 543 min~ 1;
#X obj 644 565 max~ 0;
#X text 426 618 QUANTIZED CV OUT;
#X text 697 590 UN-QUANTIZED CV OUT;
#N canvas 0 22 1204 721 scales-tables 0;
#X obj 11 17 loadbang;
#X obj 10 156 loadbang;
#X obj 15 269 loadbang;
#X obj 17 383 loadbang;
#X obj 18 503 loadbang;
#X obj 427 3 loadbang;
#X obj 429 98 loadbang;
#X obj 430 197 loadbang;
#X obj 431 294 loadbang;
#X obj 430 421 loadbang;
#X obj 20 598 loadbang;
#X obj 433 534 loadbang;
#X obj 822 12 loadbang;
#X obj 823 149 loadbang;
#X obj 818 293 loadbang;
#X obj 11 131 table \$0-ionian;
#X obj 8 248 table \$0-aeolian;
#X obj 16 361 table \$0-dorian;
#X obj 17 479 table \$0-phrygian;
#X obj 18 692 table \$0-lyd-minor;
#X obj 459 24 table \$0-chromatic;
#X obj 462 119 table \$0-ancient;
#X obj 464 218 table \$0-tetra;
#X obj 466 315 table \$0-indian;
#X obj 468 441 table \$0-siga;
#X obj 433 653 table \$0-harm-major;
#X obj 864 35 table \$0-pelog;
#X obj 823 267 table \$0-slendro;
#X obj 817 395 table \$0-whole;
#X msg 11 81 \; \$1-ionian 0 0 2 4 5 7 9 11 12 14 16 17 19 21 23 24
26 28 29 31 33 35 36 38 40 41 43 45 47 48;
#X msg 10 201 \; \$1-aeolian 0 0 2 3 5 7 8 10 12 14 15 17 19 20 22
24 26 27 29 31 32 34 36 38 39 41 43 44 46 48;
#X msg 16 312 \; \$1-dorian 0 0 2 3 5 7 9 10 12 14 15 17 19 21 22 24
26 27 29 31 33 34 36 38 39 41 43 45 46 48;
#X msg 17 432 \; \$1-phrygian 0 0 1 3 5 7 8 10 12 13 15 17 19 20 22
24 25 27 29 31 32 34 36 37 39 41 43 44 46 48;
#X msg 18 549 \; \$1-lydian 0 0 2 4 6 7 9 11 12 14 16 18 19 21 23 24
26 28 30 31 33 35 36 38 40 42 43 45 47 48;
#X msg 19 643 \; \$1-lyd-minor 0 0 2 3 6 7 9 11 12 14 15 18 19 21 23
24 26 27 30 31 33 35 36 38 39 42 43 45 47 48;
#X msg 427 50 \; \$1-chromatic 0 0 1 2 3 4 5 6 7 8 9 10 11 12 13 14
15 16 17 18 19 20 21 22 23 24 25 26 27 28;
#X msg 428 151 \; \$1-ancient 0 0 0.5 1 5 7 7.5 8 12 12.5 13 17 19
19.5 20 24 24.5 25 29 31 31.5 32 36 36.5 37 41 43 43.5 44 48;
#X msg 430 248 \; \$1-tetra 0 0 1 1.75 2 3 3.75 4 5 12 13 13.75 14
15 15.75 16 17 24 25 25.75 26 27 27.75 28 29 36 37 37.75 38 39;
#X msg 431 350 \; \$1-indian 0 0 0.9 1.14 1.8 2.04 2.94 3.18 3.84 4.08
4.9 5.22 5.88 6.12 7.02 7.92 8.16 8.82 9.06 9.96 10.2 10.86 11.1 12
12.9 13.14 13.8 14.04 14.94 15.18;
#X msg 430 468 \; \$1-siga 0 0 1.5 3.5 5.5 7 8.5 10.5 12 13.5 15.5
17.5 19 20.5 22.5 24 25.5 27.5 29.5 31 32.5 34.5 36 37.5 39.5 41.5
43 44.5 46.5 48.5;
#X msg 433 601 \; \$1-harm-major 0 0 2 4 5 7 8 11 12 14 16 17 19 20
23 24 26 28 29 31 32 35 36 38 40 41 43 44 47 48;
#X msg 822 73 \; \$1-pelog 0 0 1.5 2.5 3.5 7 8 10.5 12 13.5 14.5 15.5
19 20 22.5 24 25.5 26.5 27.5 31 32 34.5 36 37.5 38.5 39.5 42.5 43.5
45 46.5;
#X msg 823 218 \; \$1-slendro 0 0 2.5 5 7 9.5 12 14.5 17 19 21.5 24
26.5 29 31 33.5 36 38.5 41 43 45.5 47 49.5 52 54 56.5 59 61.5 64 66.5
;
#X msg 818 346 \; \$1-whole 0 0 2 4 6 8 10 12 14 16 18 20 22 24 26
28 30 32 34 36 38 40 42 44 46 48 50 52 54 56;
#X obj 11 39 f \$0;
#X obj 10 178 f \$0;
#X obj 15 291 f \$0;
#X obj 17 405 f \$0;
#X obj 18 525 f \$0;
#X obj 20 620 f \$0;
#X obj 427 25 f \$0;
#X obj 429 120 f \$0;
#X obj 430 219 f \$0;
#X obj 431 316 f \$0;
#X obj 430 443 f \$0;
#X obj 433 556 f \$0;
#X obj 822 34 f \$0;
#X obj 823 171 f \$0;
#X obj 818 315 f \$0;
#X obj 49 524 table \$0-lydian;
#X connect 0 0 44 0;
#X connect 1 0 45 0;
#X connect 2 0 46 0;
#X connect 3 0 47 0;
#X connect 4 0 48 0;
#X connect 5 0 50 0;
#X connect 6 0 51 0;
#X connect 7 0 52 0;
#X connect 8 0 53 0;
#X connect 9 0 54 0;
#X connect 10 0 49 0;
#X connect 11 0 55 0;
#X connect 12 0 56 0;
#X connect 13 0 57 0;
#X connect 14 0 58 0;
#X connect 44 0 29 0;
#X connect 45 0 30 0;
#X connect 46 0 31 0;
#X connect 47 0 32 0;
#X connect 48 0 33 0;
#X connect 49 0 34 0;
#X connect 50 0 35 0;
#X connect 51 0 36 0;
#X connect 52 0 37 0;
#X connect 53 0 38 0;
#X connect 54 0 39 0;
#X connect 55 0 40 0;
#X connect 56 0 41 0;
#X connect 57 0 42 0;
#X connect 58 0 43 0;
#X restore 129 433 pd scales-tables;
#X obj 220 294 cnv 5 5 5 empty empty MAX 0 0 0 8 -262144 -1 0;
#X obj 425 437 tabread;
#X obj 239 348 t f f;
#N canvas 120 22 1142 609 choose-scale 0;
#X obj 438 475 outlet;
#X obj 81 37 / 127;
#X obj 81 103 i;
#X obj 81 15 inlet;
#X msg 80 566 set \$1-ionian;
#X obj 24 150 loadbang;
#X msg 90 464 set \$1-dorian;
#X msg 110 340 set \$1-phrygian;
#X msg 125 238 set \$1-lydian;
#X msg 220 239 set \$1-aeolian;
#X msg 317 239 set \$1-whole;
#X msg 404 236 set \$1-chromatic;
#X msg 512 234 set \$1-harm-major;
#X msg 559 311 set \$1-lyd-minor;
#X msg 588 363 set \$1-ancient;
#X msg 827 283 set \$1-pelog;
#X msg 642 445 set \$1-tetra;
#X msg 817 455 set \$1-indian;
#X msg 989 300 set \$1-slendro;
#X obj 24 171 f \$0;
#X obj 80 536 f;
#X obj 90 435 f;
#X obj 110 318 f;
#X obj 125 210 f;
#X obj 24 193 t f f f f;
#X obj 216 45 loadbang;
#X obj 216 66 f \$0;
#X obj 216 88 t f f f f;
#X obj 220 215 f;
#X obj 317 213 f;
#X obj 404 214 f;
#X obj 512 210 f;
#X obj 559 285 f;
#X obj 589 339 f;
#X obj 661 404 f;
#X obj 807 412 f;
#X obj 552 51 loadbang;
#X obj 552 72 f \$0;
#X obj 830 246 f;
#X obj 1000 257 f;
#X obj 552 94 t f f f f f f;
#X obj 81 125 sel 0 1 2 3 4 5 6 7 8 9 10 11 12 13 14;
#X obj 81 58 * 14;
#X connect 1 0 42 0;
#X connect 2 0 41 0;
#X connect 3 0 1 0;
#X connect 4 0 0 0;
#X connect 5 0 19 0;
#X connect 6 0 0 0;
#X connect 7 0 0 0;
#X connect 8 0 0 0;
#X connect 9 0 0 0;
#X connect 10 0 0 0;
#X connect 11 0 0 0;
#X connect 12 0 0 0;
#X connect 13 0 0 0;
#X connect 14 0 0 0;
#X connect 15 0 0 0;
#X connect 16 0 0 0;
#X connect 17 0 0 0;
#X connect 18 0 0 0;
#X connect 19 0 24 0;
#X connect 20 0 4 0;
#X connect 21 0 6 0;
#X connect 22 0 7 0;
#X connect 23 0 8 0;
#X connect 24 0 20 1;
#X connect 24 1 21 1;
#X connect 24 2 22 1;
#X connect 24 3 23 1;
#X connect 25 0 26 0;
#X connect 26 0 27 0;
#X connect 27 0 28 1;
#X connect 27 1 29 1;
#X connect 27 2 30 1;
#X connect 27 3 31 1;
#X connect 28 0 9 0;
#X connect 29 0 10 0;
#X connect 30 0 11 0;
#X connect 31 0 12 0;
#X connect 32 0 13 0;
#X connect 33 0 14 0;
#X connect 34 0 16 0;
#X connect 35 0 17 0;
#X connect 36 0 37 0;
#X connect 37 0 40 0;
#X connect 38 0 15 0;
#X connect 39 0 18 0;
#X connect 40 0 32 1;
#X connect 40 1 33 1;
#X connect 40 2 34 1;
#X connect 40 3 35 1;
#X connect 40 4 38 1;
#X connect 40 5 39 1;
#X connect 41 0 20 0;
#X connect 41 1 21 0;
#X connect 41 2 22 0;
#X connect 41 3 23 0;
#X connect 41 4 28 0;
#X connect 41 5 29 0;
#X connect 41 6 30 0;
#X connect 41 7 31 0;
#X connect 41 8 32 0;
#X connect 41 9 33 0;
#X connect 41 10 34 0;
#X connect 41 11 35 0;
#X connect 41 12 38 0;
#X connect 41 13 39 0;
#X connect 42 0 2 0;
#X restore 266 398 pd choose-scale;
#N canvas 0 23 1440 855 state-saving-multiple-instances 0;
#X obj 456 38 loadbang;
#X obj 317 424 textfile;
#X msg 587 407 rewind;
#X msg 544 407 bang;
#X obj 110 663 textfile;
#X obj 544 368 t b b;
#X obj 111 329 f;
#X obj 124 552 f;
#X obj 24 277 t b b b;
#X msg 187 552 clear;
#X obj 445 188 outlet;
#X text 487 192 INSTANCE NUMBER;
#X obj 406 124 f \$1;
#X obj 406 160 t f f f;
#X obj 457 71 t b b;
#X obj 24 254 bng 15 250 50 0 empty empty empty 17 7 0 10 -262144 -1
-1;
#X obj 25 221 r SAVE-S;
#X obj 98 140 r \$0-16steps-scale-s;
#X obj 106 163 r \$0-16steps-s1-s;
#X obj 120 184 r \$0-16steps-s2-s;
#X obj 138 209 r \$0-16steps-s3-s;
#X obj 158 234 r \$0-16steps-s4-s;
#X obj 176 255 r \$0-16steps-s5-s;
#X obj 206 280 r \$0-16steps-s6-s;
#X obj 226 305 r \$0-16steps-s7-s;
#X obj 244 326 r \$0-16steps-s8-s;
#X msg 317 399 read statesave/\$1-16steps-ss.txt;
#X obj 474 489 s \$0-16steps-s8-r;
#X obj 453 513 s \$0-16steps-s7-r;
#X obj 432 539 s \$0-16steps-s6-r;
#X obj 422 574 s \$0-16steps-s5-r;
#X obj 401 598 s \$0-16steps-s4-r;
#X obj 380 624 s \$0-16steps-s3-r;
#X obj 359 648 s \$0-16steps-s2-r;
#X obj 338 672 s \$0-16steps-s1-r;
#X obj 317 696 s \$0-16steps-scale-r;
#X msg 123 623 write statesave/\$1-16steps-ss.txt;
#X obj 111 372 pack f f f f f f f f f f f f f f f f f f f;
#X msg 111 410 set \$1 \$2 \$3 \$4 \$5 \$6 \$7 \$8 \$9 \$10 \$11 \$12
\$13 \$14 \$15 \$16 \$17 \$18 \$19;
#X obj 317 447 unpack f f f f f f f f f f f f f f f f f f f;
#X obj 257 166 r \$0-16steps-s9-s;
#X obj 271 187 r \$0-16steps-s10-s;
#X obj 289 212 r \$0-16steps-s11-s;
#X obj 309 237 r \$0-16steps-s12-s;
#X obj 327 258 r \$0-16steps-s13-s;
#X obj 357 283 r \$0-16steps-s14-s;
#X obj 376 307 r \$0-16steps-s15-s;
#X obj 395 329 r \$0-16steps-s16-s;
#X obj 533 274 r \$0-16steps-begin-s;
#X obj 552 296 r \$0-16steps-end-s;
#X obj 479 670 s \$0-16steps-s9-r;
#X obj 499 646 s \$0-16steps-s10-r;
#X obj 520 622 s \$0-16steps-s11-r;
#X obj 541 596 s \$0-16steps-s12-r;
#X obj 562 572 s \$0-16steps-s13-r;
#X obj 572 537 s \$0-16steps-s14-r;
#X obj 593 511 s \$0-16steps-s15-r;
#X obj 614 487 s \$0-16steps-s16-r;
#X obj 717 517 s \$0-16steps-begin-r;
#X obj 738 493 s \$0-16steps-end-r;
#X connect 0 0 14 0;
#X connect 1 0 39 0;
#X connect 2 0 1 0;
#X connect 3 0 1 0;
#X connect 5 0 3 0;
#X connect 5 1 2 0;
#X connect 6 0 37 0;
#X connect 7 0 36 0;
#X connect 8 0 7 0;
#X connect 8 1 6 0;
#X connect 8 2 9 0;
#X connect 9 0 4 0;
#X connect 12 0 13 0;
#X connect 13 0 7 1;
#X connect 13 1 26 0;
#X connect 13 2 10 0;
#X connect 14 0 5 0;
#X connect 14 1 12 0;
#X connect 15 0 8 0;
#X connect 16 0 15 0;
#X connect 17 0 6 1;
#X connect 18 0 37 1;
#X connect 19 0 37 2;
#X connect 20 0 37 3;
#X connect 21 0 37 4;
#X connect 22 0 37 5;
#X connect 23 0 37 6;
#X connect 24 0 37 7;
#X connect 25 0 37 8;
#X connect 26 0 1 0;
#X connect 36 0 4 0;
#X connect 37 0 38 0;
#X connect 38 0 4 0;
#X connect 39 0 35 0;
#X connect 39 1 34 0;
#X connect 39 2 33 0;
#X connect 39 3 32 0;
#X connect 39 4 31 0;
#X connect 39 5 30 0;
#X connect 39 6 29 0;
#X connect 39 7 28 0;
#X connect 39 8 27 0;
#X connect 39 9 50 0;
#X connect 39 10 51 0;
#X connect 39 11 52 0;
#X connect 39 12 53 0;
#X connect 39 13 54 0;
#X connect 39 14 55 0;
#X connect 39 15 56 0;
#X connect 39 16 57 0;
#X connect 39 17 58 0;
#X connect 39 18 59 0;
#X connect 40 0 37 9;
#X connect 41 0 37 10;
#X connect 42 0 37 11;
#X connect 43 0 37 12;
#X connect 44 0 37 13;
#X connect 45 0 37 14;
#X connect 46 0 37 15;
#X connect 47 0 37 16;
#X connect 48 0 37 17;
#X connect 49 0 37 18;
#X restore 129 479 pd state-saving-multiple-instances;
#X obj 129 556 s \$0-instance-num;
#X obj 129 508 makefilename %d;
#X obj 192 128 cnv 5 5 5 empty \$0-instance-num 1 0 0 0 12 -262144
-66577 0;
#X msg 129 533 label \$1;
#X obj 771 538 outlet~;
#X msg 771 491 1 0 \, 0 1 1;
#X obj 771 513 vline~;
#X obj 105 293 cnv 5 5 5 empty empty Q-OUT 0 0 0 8 -262144 -1 0;
#X obj 989 50 threshold~ 0.99 0 1 0;
#N canvas 81 23 1117 745 state-saving-via-preset-manager-module 0;
#X obj 648 215 textfile;
#X msg 926 198 rewind;
#X msg 883 198 bang;
#X obj 106 568 textfile;
#X obj 883 159 t b b;
#X obj 107 234 f;
#X obj 120 457 f;
#X obj 53 352 t b b b;
#X msg 236 499 clear;
#X obj 107 56 delay 5;
#X obj 53 407 delay 10;
#X msg 53 192 bang;
#X obj 53 26 r STORE-S!;
#X obj 648 116 f;
#X obj 621 73 t b b;
#X obj 636 37 t b f;
#X obj 693 134 f \$1;
#X obj 648 161 pack f f;
#X obj 693 84 loadbang;
#X obj 120 487 pack f f;
#X obj 165 440 loadbang;
#X obj 165 462 f \$1;
#X obj 636 14 r preset-manager-scan;
#X obj 135 418 r preset-manager-store-slot;
#N canvas 0 22 1069 747 morph-parameters 0;
#X obj 176 94 inlet;
#X obj 176 236 pack f f;
#X obj 176 261 line;
#X obj 209 117 r preset-manager-morph-s;
#X msg 72 244 stop;
#X obj 72 214 r STOP-MORPH!;
#X obj 209 206 spigot;
#X obj 398 137 t f f;
#X obj 455 154 == 0;
#X obj 221 176 f;
#X floatatom 455 222 5 0 0 0 - - -;
#X obj 398 159 t b f;
#X floatatom 425 192 5 0 0 0 - - -;
#X obj 209 139 t f f;
#X obj 398 102 r parameters-s;
#X obj 176 288 outlet;
#X connect 0 0 1 0;
#X connect 1 0 2 0;
#X connect 2 0 15 0;
#X connect 3 0 13 0;
#X connect 4 0 2 0;
#X connect 5 0 4 0;
#X connect 6 0 1 1;
#X connect 7 0 11 0;
#X connect 7 1 8 0;
#X connect 8 0 10 0;
#X connect 9 0 6 0;
#X connect 10 0 1 1;
#X connect 11 0 9 0;
#X connect 11 1 12 0;
#X connect 12 0 6 1;
#X connect 13 0 6 0;
#X connect 13 1 9 1;
#X connect 14 0 7 0;
#X restore 651 652 pd morph-parameters;
#N canvas 0 22 1069 747 morph-parameters 0;
#X obj 176 94 inlet;
#X obj 176 236 pack f f;
#X obj 176 261 line;
#X obj 209 117 r preset-manager-morph-s;
#X msg 72 244 stop;
#X obj 72 214 r STOP-MORPH!;
#X obj 209 206 spigot;
#X obj 398 137 t f f;
#X obj 455 154 == 0;
#X obj 221 176 f;
#X floatatom 455 222 5 0 0 0 - - -;
#X obj 398 159 t b f;
#X floatatom 425 192 5 0 0 0 - - -;
#X obj 209 139 t f f;
#X obj 398 102 r parameters-s;
#X obj 176 288 outlet;
#X connect 0 0 1 0;
#X connect 1 0 2 0;
#X connect 2 0 15 0;
#X connect 3 0 13 0;
#X connect 4 0 2 0;
#X connect 5 0 4 0;
#X connect 6 0 1 1;
#X connect 7 0 11 0;
#X connect 7 1 8 0;
#X connect 8 0 10 0;
#X connect 9 0 6 0;
#X connect 10 0 1 1;
#X connect 11 0 9 0;
#X connect 11 1 12 0;
#X connect 12 0 6 1;
#X connect 13 0 6 0;
#X connect 13 1 9 1;
#X connect 14 0 7 0;
#X restore 694 541 pd morph-parameters;
#N canvas 0 22 1069 747 morph-parameters 0;
#X obj 176 94 inlet;
#X obj 176 236 pack f f;
#X obj 176 261 line;
#X obj 209 117 r preset-manager-morph-s;
#X msg 72 244 stop;
#X obj 72 214 r STOP-MORPH!;
#X obj 209 206 spigot;
#X obj 398 137 t f f;
#X obj 455 154 == 0;
#X obj 221 176 f;
#X floatatom 455 222 5 0 0 0 - - -;
#X obj 398 159 t b f;
#X floatatom 425 192 5 0 0 0 - - -;
#X obj 209 139 t f f;
#X obj 398 102 r parameters-s;
#X obj 176 288 outlet;
#X connect 0 0 1 0;
#X connect 1 0 2 0;
#X connect 2 0 15 0;
#X connect 3 0 13 0;
#X connect 4 0 2 0;
#X connect 5 0 4 0;
#X connect 6 0 1 1;
#X connect 7 0 11 0;
#X connect 7 1 8 0;
#X connect 8 0 10 0;
#X connect 9 0 6 0;
#X connect 10 0 1 1;
#X connect 11 0 9 0;
#X connect 11 1 12 0;
#X connect 12 0 6 1;
#X connect 13 0 6 0;
#X connect 13 1 9 1;
#X connect 14 0 7 0;
#X restore 680 594 pd morph-parameters;
#N canvas 0 22 1069 747 morph-parameters 0;
#X obj 176 94 inlet;
#X obj 176 236 pack f f;
#X obj 176 261 line;
#X obj 209 117 r preset-manager-morph-s;
#X msg 72 244 stop;
#X obj 72 214 r STOP-MORPH!;
#X obj 209 206 spigot;
#X obj 398 137 t f f;
#X obj 455 154 == 0;
#X obj 221 176 f;
#X floatatom 455 222 5 0 0 0 - - -;
#X obj 398 159 t b f;
#X floatatom 425 192 5 0 0 0 - - -;
#X obj 209 139 t f f;
#X obj 398 102 r parameters-s;
#X obj 176 288 outlet;
#X connect 0 0 1 0;
#X connect 1 0 2 0;
#X connect 2 0 15 0;
#X connect 3 0 13 0;
#X connect 4 0 2 0;
#X connect 5 0 4 0;
#X connect 6 0 1 1;
#X connect 7 0 11 0;
#X connect 7 1 8 0;
#X connect 8 0 10 0;
#X connect 9 0 6 0;
#X connect 10 0 1 1;
#X connect 11 0 9 0;
#X connect 11 1 12 0;
#X connect 12 0 6 1;
#X connect 13 0 6 0;
#X connect 13 1 9 1;
#X connect 14 0 7 0;
#X restore 709 481 pd morph-parameters;
#N canvas 0 22 1069 747 morph-parameters 0;
#X obj 176 94 inlet;
#X obj 176 236 pack f f;
#X obj 176 261 line;
#X obj 209 117 r preset-manager-morph-s;
#X msg 72 244 stop;
#X obj 72 214 r STOP-MORPH!;
#X obj 209 206 spigot;
#X obj 398 137 t f f;
#X obj 455 154 == 0;
#X obj 221 176 f;
#X floatatom 455 222 5 0 0 0 - - -;
#X obj 398 159 t b f;
#X floatatom 425 192 5 0 0 0 - - -;
#X obj 209 139 t f f;
#X obj 398 102 r parameters-s;
#X obj 176 288 outlet;
#X connect 0 0 1 0;
#X connect 1 0 2 0;
#X connect 2 0 15 0;
#X connect 3 0 13 0;
#X connect 4 0 2 0;
#X connect 5 0 4 0;
#X connect 6 0 1 1;
#X connect 7 0 11 0;
#X connect 7 1 8 0;
#X connect 8 0 10 0;
#X connect 9 0 6 0;
#X connect 10 0 1 1;
#X connect 11 0 9 0;
#X connect 11 1 12 0;
#X connect 12 0 6 1;
#X connect 13 0 6 0;
#X connect 13 1 9 1;
#X connect 14 0 7 0;
#X restore 743 428 pd morph-parameters;
#N canvas 0 22 1069 747 morph-parameters 0;
#X obj 176 94 inlet;
#X obj 176 236 pack f f;
#X obj 176 261 line;
#X obj 209 117 r preset-manager-morph-s;
#X msg 72 244 stop;
#X obj 72 214 r STOP-MORPH!;
#X obj 209 206 spigot;
#X obj 398 137 t f f;
#X obj 455 154 == 0;
#X obj 221 176 f;
#X floatatom 455 222 5 0 0 0 - - -;
#X obj 398 159 t b f;
#X floatatom 425 192 5 0 0 0 - - -;
#X obj 209 139 t f f;
#X obj 398 102 r parameters-s;
#X obj 176 288 outlet;
#X connect 0 0 1 0;
#X connect 1 0 2 0;
#X connect 2 0 15 0;
#X connect 3 0 13 0;
#X connect 4 0 2 0;
#X connect 5 0 4 0;
#X connect 6 0 1 1;
#X connect 7 0 11 0;
#X connect 7 1 8 0;
#X connect 8 0 10 0;
#X connect 9 0 6 0;
#X connect 10 0 1 1;
#X connect 11 0 9 0;
#X connect 11 1 12 0;
#X connect 12 0 6 1;
#X connect 13 0 6 0;
#X connect 13 1 9 1;
#X connect 14 0 7 0;
#X restore 768 375 pd morph-parameters;
#N canvas 0 22 1069 747 morph-parameters 0;
#X obj 176 94 inlet;
#X obj 176 236 pack f f;
#X obj 176 261 line;
#X obj 209 117 r preset-manager-morph-s;
#X msg 72 244 stop;
#X obj 72 214 r STOP-MORPH!;
#X obj 209 206 spigot;
#X obj 398 137 t f f;
#X obj 455 154 == 0;
#X obj 221 176 f;
#X floatatom 455 222 5 0 0 0 - - -;
#X obj 398 159 t b f;
#X floatatom 425 192 5 0 0 0 - - -;
#X obj 209 139 t f f;
#X obj 398 102 r parameters-s;
#X obj 176 288 outlet;
#X connect 0 0 1 0;
#X connect 1 0 2 0;
#X connect 2 0 15 0;
#X connect 3 0 13 0;
#X connect 4 0 2 0;
#X connect 5 0 4 0;
#X connect 6 0 1 1;
#X connect 7 0 11 0;
#X connect 7 1 8 0;
#X connect 8 0 10 0;
#X connect 9 0 6 0;
#X connect 10 0 1 1;
#X connect 11 0 9 0;
#X connect 11 1 12 0;
#X connect 12 0 6 1;
#X connect 13 0 6 0;
#X connect 13 1 9 1;
#X connect 14 0 7 0;
#X restore 793 319 pd morph-parameters;
#N canvas 0 22 1069 747 morph-parameters 0;
#X obj 176 94 inlet;
#X obj 176 236 pack f f;
#X obj 176 261 line;
#X obj 209 117 r preset-manager-morph-s;
#X msg 72 244 stop;
#X obj 72 214 r STOP-MORPH!;
#X obj 209 206 spigot;
#X obj 398 137 t f f;
#X obj 455 154 == 0;
#X obj 221 176 f;
#X floatatom 455 222 5 0 0 0 - - -;
#X obj 398 159 t b f;
#X floatatom 425 192 5 0 0 0 - - -;
#X obj 209 139 t f f;
#X obj 398 102 r parameters-s;
#X obj 176 288 outlet;
#X connect 0 0 1 0;
#X connect 1 0 2 0;
#X connect 2 0 15 0;
#X connect 3 0 13 0;
#X connect 4 0 2 0;
#X connect 5 0 4 0;
#X connect 6 0 1 1;
#X connect 7 0 11 0;
#X connect 7 1 8 0;
#X connect 8 0 10 0;
#X connect 9 0 6 0;
#X connect 10 0 1 1;
#X connect 11 0 9 0;
#X connect 11 1 12 0;
#X connect 12 0 6 1;
#X connect 13 0 6 0;
#X connect 13 1 9 1;
#X connect 14 0 7 0;
#X restore 820 263 pd morph-parameters;
#X obj 123 78 r \$0-16steps-s1-s;
#X obj 136 107 r \$0-16steps-s2-s;
#X obj 146 146 r \$0-16steps-s3-s;
#X obj 169 173 r \$0-16steps-s4-s;
#X obj 183 196 r \$0-16steps-s5-s;
#X obj 193 218 r \$0-16steps-s6-s;
#X obj 201 245 r \$0-16steps-s7-s;
#X obj 216 268 r \$0-16steps-s8-s;
#X obj 431 346 r \$0-16steps-scale-s;
#X msg 648 190 read statesave/\$1-\$2-16steps-ss.txt;
#X msg 119 528 write statesave/\$1-\$2-16steps-ss.txt;
#X obj 710 508 s \$0-16steps-s4-r;
#X obj 693 566 s \$0-16steps-s3-r;
#X obj 680 617 s \$0-16steps-s2-r;
#X obj 652 678 s \$0-16steps-s1-r;
#X obj 769 402 s \$0-16steps-s6-r;
#X obj 793 346 s \$0-16steps-s7-r;
#X obj 822 294 s \$0-16steps-s8-r;
#X obj 1177 587 s \$0-16steps-scale-r;
#X obj 742 453 s \$0-16steps-s5-r;
#X obj 107 341 pack f f f f f f f f f f f f f f f f f f f;
#X obj 287 76 r \$0-16steps-s9-s;
#X obj 300 105 r \$0-16steps-s10-s;
#X obj 310 144 r \$0-16steps-s11-s;
#X obj 333 171 r \$0-16steps-s12-s;
#X obj 347 194 r \$0-16steps-s13-s;
#X obj 357 216 r \$0-16steps-s14-s;
#X obj 365 243 r \$0-16steps-s15-s;
#X obj 380 266 r \$0-16steps-s16-s;
#X obj 389 292 r \$0-16steps-begin-s;
#X obj 404 315 r \$0-16steps-end-s;
#X obj 648 237 unpack f f f f f f f f f f f f f f f f f f f, f 78
;
#N canvas 0 22 1069 747 morph-parameters 0;
#X obj 176 94 inlet;
#X obj 176 236 pack f f;
#X obj 176 261 line;
#X obj 209 117 r preset-manager-morph-s;
#X msg 72 244 stop;
#X obj 72 214 r STOP-MORPH!;
#X obj 209 206 spigot;
#X obj 398 137 t f f;
#X obj 455 154 == 0;
#X obj 221 176 f;
#X floatatom 455 222 5 0 0 0 - - -;
#X obj 398 159 t b f;
#X floatatom 425 192 5 0 0 0 - - -;
#X obj 209 139 t f f;
#X obj 398 102 r parameters-s;
#X obj 176 288 outlet;
#X connect 0 0 1 0;
#X connect 1 0 2 0;
#X connect 2 0 15 0;
#X connect 3 0 13 0;
#X connect 4 0 2 0;
#X connect 5 0 4 0;
#X connect 6 0 1 1;
#X connect 7 0 11 0;
#X connect 7 1 8 0;
#X connect 8 0 10 0;
#X connect 9 0 6 0;
#X connect 10 0 1 1;
#X connect 11 0 9 0;
#X connect 11 1 12 0;
#X connect 12 0 6 1;
#X connect 13 0 6 0;
#X connect 13 1 9 1;
#X connect 14 0 7 0;
#X restore 803 658 pd morph-parameters;
#N canvas 0 22 1069 747 morph-parameters 0;
#X obj 176 94 inlet;
#X obj 176 236 pack f f;
#X obj 176 261 line;
#X obj 209 117 r preset-manager-morph-s;
#X msg 72 244 stop;
#X obj 72 214 r STOP-MORPH!;
#X obj 209 206 spigot;
#X obj 398 137 t f f;
#X obj 455 154 == 0;
#X obj 221 176 f;
#X floatatom 455 222 5 0 0 0 - - -;
#X obj 398 159 t b f;
#X floatatom 425 192 5 0 0 0 - - -;
#X obj 209 139 t f f;
#X obj 398 102 r parameters-s;
#X obj 176 288 outlet;
#X connect 0 0 1 0;
#X connect 1 0 2 0;
#X connect 2 0 15 0;
#X connect 3 0 13 0;
#X connect 4 0 2 0;
#X connect 5 0 4 0;
#X connect 6 0 1 1;
#X connect 7 0 11 0;
#X connect 7 1 8 0;
#X connect 8 0 10 0;
#X connect 9 0 6 0;
#X connect 10 0 1 1;
#X connect 11 0 9 0;
#X connect 11 1 12 0;
#X connect 12 0 6 1;
#X connect 13 0 6 0;
#X connect 13 1 9 1;
#X connect 14 0 7 0;
#X restore 846 547 pd morph-parameters;
#N canvas 0 22 1069 747 morph-parameters 0;
#X obj 176 94 inlet;
#X obj 176 236 pack f f;
#X obj 176 261 line;
#X obj 209 117 r preset-manager-morph-s;
#X msg 72 244 stop;
#X obj 72 214 r STOP-MORPH!;
#X obj 209 206 spigot;
#X obj 398 137 t f f;
#X obj 455 154 == 0;
#X obj 221 176 f;
#X floatatom 455 222 5 0 0 0 - - -;
#X obj 398 159 t b f;
#X floatatom 425 192 5 0 0 0 - - -;
#X obj 209 139 t f f;
#X obj 398 102 r parameters-s;
#X obj 176 288 outlet;
#X connect 0 0 1 0;
#X connect 1 0 2 0;
#X connect 2 0 15 0;
#X connect 3 0 13 0;
#X connect 4 0 2 0;
#X connect 5 0 4 0;
#X connect 6 0 1 1;
#X connect 7 0 11 0;
#X connect 7 1 8 0;
#X connect 8 0 10 0;
#X connect 9 0 6 0;
#X connect 10 0 1 1;
#X connect 11 0 9 0;
#X connect 11 1 12 0;
#X connect 12 0 6 1;
#X connect 13 0 6 0;
#X connect 13 1 9 1;
#X connect 14 0 7 0;
#X restore 832 600 pd morph-parameters;
#N canvas 0 22 1069 747 morph-parameters 0;
#X obj 176 94 inlet;
#X obj 176 236 pack f f;
#X obj 176 261 line;
#X obj 209 117 r preset-manager-morph-s;
#X msg 72 244 stop;
#X obj 72 214 r STOP-MORPH!;
#X obj 209 206 spigot;
#X obj 398 137 t f f;
#X obj 455 154 == 0;
#X obj 221 176 f;
#X floatatom 455 222 5 0 0 0 - - -;
#X obj 398 159 t b f;
#X floatatom 425 192 5 0 0 0 - - -;
#X obj 209 139 t f f;
#X obj 398 102 r parameters-s;
#X obj 176 288 outlet;
#X connect 0 0 1 0;
#X connect 1 0 2 0;
#X connect 2 0 15 0;
#X connect 3 0 13 0;
#X connect 4 0 2 0;
#X connect 5 0 4 0;
#X connect 6 0 1 1;
#X connect 7 0 11 0;
#X connect 7 1 8 0;
#X connect 8 0 10 0;
#X connect 9 0 6 0;
#X connect 10 0 1 1;
#X connect 11 0 9 0;
#X connect 11 1 12 0;
#X connect 12 0 6 1;
#X connect 13 0 6 0;
#X connect 13 1 9 1;
#X connect 14 0 7 0;
#X restore 861 487 pd morph-parameters;
#N canvas 0 22 1069 747 morph-parameters 0;
#X obj 176 94 inlet;
#X obj 176 236 pack f f;
#X obj 176 261 line;
#X obj 209 117 r preset-manager-morph-s;
#X msg 72 244 stop;
#X obj 72 214 r STOP-MORPH!;
#X obj 209 206 spigot;
#X obj 398 137 t f f;
#X obj 455 154 == 0;
#X obj 221 176 f;
#X floatatom 455 222 5 0 0 0 - - -;
#X obj 398 159 t b f;
#X floatatom 425 192 5 0 0 0 - - -;
#X obj 209 139 t f f;
#X obj 398 102 r parameters-s;
#X obj 176 288 outlet;
#X connect 0 0 1 0;
#X connect 1 0 2 0;
#X connect 2 0 15 0;
#X connect 3 0 13 0;
#X connect 4 0 2 0;
#X connect 5 0 4 0;
#X connect 6 0 1 1;
#X connect 7 0 11 0;
#X connect 7 1 8 0;
#X connect 8 0 10 0;
#X connect 9 0 6 0;
#X connect 10 0 1 1;
#X connect 11 0 9 0;
#X connect 11 1 12 0;
#X connect 12 0 6 1;
#X connect 13 0 6 0;
#X connect 13 1 9 1;
#X connect 14 0 7 0;
#X restore 895 434 pd morph-parameters;
#N canvas 0 22 1069 747 morph-parameters 0;
#X obj 176 94 inlet;
#X obj 176 236 pack f f;
#X obj 176 261 line;
#X obj 209 117 r preset-manager-morph-s;
#X msg 72 244 stop;
#X obj 72 214 r STOP-MORPH!;
#X obj 209 206 spigot;
#X obj 398 137 t f f;
#X obj 455 154 == 0;
#X obj 221 176 f;
#X floatatom 455 222 5 0 0 0 - - -;
#X obj 398 159 t b f;
#X floatatom 425 192 5 0 0 0 - - -;
#X obj 209 139 t f f;
#X obj 398 102 r parameters-s;
#X obj 176 288 outlet;
#X connect 0 0 1 0;
#X connect 1 0 2 0;
#X connect 2 0 15 0;
#X connect 3 0 13 0;
#X connect 4 0 2 0;
#X connect 5 0 4 0;
#X connect 6 0 1 1;
#X connect 7 0 11 0;
#X connect 7 1 8 0;
#X connect 8 0 10 0;
#X connect 9 0 6 0;
#X connect 10 0 1 1;
#X connect 11 0 9 0;
#X connect 11 1 12 0;
#X connect 12 0 6 1;
#X connect 13 0 6 0;
#X connect 13 1 9 1;
#X connect 14 0 7 0;
#X restore 920 381 pd morph-parameters;
#N canvas 0 22 1069 747 morph-parameters 0;
#X obj 176 94 inlet;
#X obj 176 236 pack f f;
#X obj 176 261 line;
#X obj 209 117 r preset-manager-morph-s;
#X msg 72 244 stop;
#X obj 72 214 r STOP-MORPH!;
#X obj 209 206 spigot;
#X obj 398 137 t f f;
#X obj 455 154 == 0;
#X obj 221 176 f;
#X floatatom 455 222 5 0 0 0 - - -;
#X obj 398 159 t b f;
#X floatatom 425 192 5 0 0 0 - - -;
#X obj 209 139 t f f;
#X obj 398 102 r parameters-s;
#X obj 176 288 outlet;
#X connect 0 0 1 0;
#X connect 1 0 2 0;
#X connect 2 0 15 0;
#X connect 3 0 13 0;
#X connect 4 0 2 0;
#X connect 5 0 4 0;
#X connect 6 0 1 1;
#X connect 7 0 11 0;
#X connect 7 1 8 0;
#X connect 8 0 10 0;
#X connect 9 0 6 0;
#X connect 10 0 1 1;
#X connect 11 0 9 0;
#X connect 11 1 12 0;
#X connect 12 0 6 1;
#X connect 13 0 6 0;
#X connect 13 1 9 1;
#X connect 14 0 7 0;
#X restore 945 325 pd morph-parameters;
#N canvas 0 22 1069 747 morph-parameters 0;
#X obj 176 94 inlet;
#X obj 176 236 pack f f;
#X obj 176 261 line;
#X obj 209 117 r preset-manager-morph-s;
#X msg 72 244 stop;
#X obj 72 214 r STOP-MORPH!;
#X obj 209 206 spigot;
#X obj 398 137 t f f;
#X obj 455 154 == 0;
#X obj 221 176 f;
#X floatatom 455 222 5 0 0 0 - - -;
#X obj 398 159 t b f;
#X floatatom 425 192 5 0 0 0 - - -;
#X obj 209 139 t f f;
#X obj 398 102 r parameters-s;
#X obj 176 288 outlet;
#X connect 0 0 1 0;
#X connect 1 0 2 0;
#X connect 2 0 15 0;
#X connect 3 0 13 0;
#X connect 4 0 2 0;
#X connect 5 0 4 0;
#X connect 6 0 1 1;
#X connect 7 0 11 0;
#X connect 7 1 8 0;
#X connect 8 0 10 0;
#X connect 9 0 6 0;
#X connect 10 0 1 1;
#X connect 11 0 9 0;
#X connect 11 1 12 0;
#X connect 12 0 6 1;
#X connect 13 0 6 0;
#X connect 13 1 9 1;
#X connect 14 0 7 0;
#X restore 972 269 pd morph-parameters;
#N canvas 0 22 1069 747 morph-parameters 0;
#X obj 176 94 inlet;
#X obj 176 236 pack f f;
#X obj 176 261 line;
#X obj 209 117 r preset-manager-morph-s;
#X msg 72 244 stop;
#X obj 72 214 r STOP-MORPH!;
#X obj 209 206 spigot;
#X obj 398 137 t f f;
#X obj 455 154 == 0;
#X obj 221 176 f;
#X floatatom 455 222 5 0 0 0 - - -;
#X obj 398 159 t b f;
#X floatatom 425 192 5 0 0 0 - - -;
#X obj 209 139 t f f;
#X obj 398 102 r parameters-s;
#X obj 176 288 outlet;
#X connect 0 0 1 0;
#X connect 1 0 2 0;
#X connect 2 0 15 0;
#X connect 3 0 13 0;
#X connect 4 0 2 0;
#X connect 5 0 4 0;
#X connect 6 0 1 1;
#X connect 7 0 11 0;
#X connect 7 1 8 0;
#X connect 8 0 10 0;
#X connect 9 0 6 0;
#X connect 10 0 1 1;
#X connect 11 0 9 0;
#X connect 11 1 12 0;
#X connect 12 0 6 1;
#X connect 13 0 6 0;
#X connect 13 1 9 1;
#X connect 14 0 7 0;
#X restore 1079 354 pd morph-parameters;
#N canvas 0 22 1069 747 morph-parameters 0;
#X obj 176 94 inlet;
#X obj 176 236 pack f f;
#X obj 176 261 line;
#X obj 209 117 r preset-manager-morph-s;
#X msg 72 244 stop;
#X obj 72 214 r STOP-MORPH!;
#X obj 209 206 spigot;
#X obj 398 137 t f f;
#X obj 455 154 == 0;
#X obj 221 176 f;
#X floatatom 455 222 5 0 0 0 - - -;
#X obj 398 159 t b f;
#X floatatom 425 192 5 0 0 0 - - -;
#X obj 209 139 t f f;
#X obj 398 102 r parameters-s;
#X obj 176 288 outlet;
#X connect 0 0 1 0;
#X connect 1 0 2 0;
#X connect 2 0 15 0;
#X connect 3 0 13 0;
#X connect 4 0 2 0;
#X connect 5 0 4 0;
#X connect 6 0 1 1;
#X connect 7 0 11 0;
#X connect 7 1 8 0;
#X connect 8 0 10 0;
#X connect 9 0 6 0;
#X connect 10 0 1 1;
#X connect 11 0 9 0;
#X connect 11 1 12 0;
#X connect 12 0 6 1;
#X connect 13 0 6 0;
#X connect 13 1 9 1;
#X connect 14 0 7 0;
#X restore 1106 298 pd morph-parameters;
#X obj 804 684 s \$0-16steps-s9-r;
#X obj 832 623 s \$0-16steps-s10-r;
#X obj 845 572 s \$0-16steps-s11-r;
#X obj 862 514 s \$0-16steps-s12-r;
#X obj 894 459 s \$0-16steps-s13-r;
#X obj 921 409 s \$0-16steps-s14-r;
#X obj 945 352 s \$0-16steps-s15-r;
#X obj 974 300 s \$0-16steps-s16-r;
#X obj 1079 381 s \$0-16steps-begin-r;
#X obj 1108 329 s \$0-16steps-end-r;
#X obj 120 370 list prepend set;
#X obj 120 391 list trim;
#X connect 0 0 63 0;
#X connect 1 0 0 0;
#X connect 2 0 0 0;
#X connect 4 0 2 0;
#X connect 4 1 1 0;
#X connect 5 0 52 0;
#X connect 6 0 19 0;
#X connect 7 0 10 0;
#X connect 7 1 9 0;
#X connect 7 2 8 0;
#X connect 8 0 3 0;
#X connect 9 0 5 0;
#X connect 10 0 6 0;
#X connect 11 0 7 0;
#X connect 12 0 11 0;
#X connect 13 0 17 0;
#X connect 14 0 4 0;
#X connect 14 1 13 0;
#X connect 15 0 14 0;
#X connect 15 1 13 1;
#X connect 16 0 17 1;
#X connect 17 0 41 0;
#X connect 18 0 16 0;
#X connect 19 0 42 0;
#X connect 20 0 21 0;
#X connect 21 0 19 1;
#X connect 22 0 15 0;
#X connect 23 0 6 1;
#X connect 24 0 46 0;
#X connect 25 0 44 0;
#X connect 26 0 45 0;
#X connect 27 0 43 0;
#X connect 28 0 51 0;
#X connect 29 0 47 0;
#X connect 30 0 48 0;
#X connect 31 0 49 0;
#X connect 32 0 5 1;
#X connect 33 0 52 1;
#X connect 34 0 52 2;
#X connect 35 0 52 3;
#X connect 36 0 52 4;
#X connect 37 0 52 5;
#X connect 38 0 52 6;
#X connect 39 0 52 7;
#X connect 40 0 52 18;
#X connect 41 0 0 0;
#X connect 42 0 3 0;
#X connect 52 0 84 0;
#X connect 53 0 52 8;
#X connect 54 0 52 9;
#X connect 55 0 52 10;
#X connect 56 0 52 11;
#X connect 57 0 52 12;
#X connect 58 0 52 13;
#X connect 59 0 52 14;
#X connect 60 0 52 15;
#X connect 61 0 52 16;
#X connect 62 0 52 17;
#X connect 63 0 24 0;
#X connect 63 1 26 0;
#X connect 63 2 25 0;
#X connect 63 3 27 0;
#X connect 63 4 28 0;
#X connect 63 5 29 0;
#X connect 63 6 30 0;
#X connect 63 7 31 0;
#X connect 63 8 64 0;
#X connect 63 9 66 0;
#X connect 63 10 65 0;
#X connect 63 11 67 0;
#X connect 63 12 68 0;
#X connect 63 13 69 0;
#X connect 63 14 70 0;
#X connect 63 15 71 0;
#X connect 63 16 72 0;
#X connect 63 17 73 0;
#X connect 63 18 50 0;
#X connect 64 0 74 0;
#X connect 65 0 76 0;
#X connect 66 0 75 0;
#X connect 67 0 77 0;
#X connect 68 0 78 0;
#X connect 69 0 79 0;
#X connect 70 0 80 0;
#X connect 71 0 81 0;
#X connect 72 0 82 0;
#X connect 73 0 83 0;
#X connect 84 0 85 0;
#X connect 85 0 3 0;
#X restore 129 580 pd state-saving-via-preset-manager-module;
#X text 767 560 STEP1;
#N canvas 297 27 863 513 parameter-nudging-system 0;
#X obj 23 67 clip 0 127;
#X obj 141 65 clip 0 127;
#X obj 256 68 clip 0 127;
#X obj 381 67 clip 0 127;
#X obj 22 186 clip 0 127;
#X obj 144 187 clip 0 127;
#X obj 272 187 clip 0 127;
#X obj 394 184 clip 0 127;
#X obj 518 184 clip 0 127;
#N canvas 0 22 484 497 nudge-parameters 0;
#X obj 124 234 random;
#X obj 232 335 f;
#X obj 232 368 +;
#X obj 257 166 random 2;
#X obj 124 275 t f f;
#X obj 124 351 t b f;
#X obj 124 297 *;
#X obj 257 188 sel 0 1;
#X msg 257 280 -1;
#X msg 335 280 1;
#X obj 124 149 t b b b;
#X obj 124 74 r NUDGE!;
#X obj 157 193 r NUDGE-RANGE;
#X obj 247 308 inlet;
#X obj 232 397 outlet;
#X obj 124 96 spigot;
#X obj 185 79 r parameters2-s;
#X connect 0 0 4 0;
#X connect 1 0 2 0;
#X connect 2 0 14 0;
#X connect 3 0 7 0;
#X connect 4 0 6 0;
#X connect 5 0 2 0;
#X connect 5 1 2 1;
#X connect 6 0 5 0;
#X connect 7 0 8 0;
#X connect 7 1 9 0;
#X connect 8 0 6 1;
#X connect 9 0 6 1;
#X connect 10 0 0 0;
#X connect 10 1 1 0;
#X connect 10 2 3 0;
#X connect 11 0 15 0;
#X connect 12 0 0 1;
#X connect 13 0 1 1;
#X connect 15 0 10 0;
#X connect 16 0 15 1;
#X restore 23 45 pd nudge-parameters;
#N canvas 0 22 484 497 nudge-parameters 0;
#X obj 124 234 random;
#X obj 232 335 f;
#X obj 232 368 +;
#X obj 257 166 random 2;
#X obj 124 275 t f f;
#X obj 124 351 t b f;
#X obj 124 297 *;
#X obj 257 188 sel 0 1;
#X msg 257 280 -1;
#X msg 335 280 1;
#X obj 124 149 t b b b;
#X obj 124 74 r NUDGE!;
#X obj 157 193 r NUDGE-RANGE;
#X obj 247 308 inlet;
#X obj 232 397 outlet;
#X obj 124 96 spigot;
#X obj 185 79 r parameters2-s;
#X connect 0 0 4 0;
#X connect 1 0 2 0;
#X connect 2 0 14 0;
#X connect 3 0 7 0;
#X connect 4 0 6 0;
#X connect 5 0 2 0;
#X connect 5 1 2 1;
#X connect 6 0 5 0;
#X connect 7 0 8 0;
#X connect 7 1 9 0;
#X connect 8 0 6 1;
#X connect 9 0 6 1;
#X connect 10 0 0 0;
#X connect 10 1 1 0;
#X connect 10 2 3 0;
#X connect 11 0 15 0;
#X connect 12 0 0 1;
#X connect 13 0 1 1;
#X connect 15 0 10 0;
#X connect 16 0 15 1;
#X restore 145 44 pd nudge-parameters;
#N canvas 0 22 484 497 nudge-parameters 0;
#X obj 124 234 random;
#X obj 232 335 f;
#X obj 232 368 +;
#X obj 257 166 random 2;
#X obj 124 275 t f f;
#X obj 124 351 t b f;
#X obj 124 297 *;
#X obj 257 188 sel 0 1;
#X msg 257 280 -1;
#X msg 335 280 1;
#X obj 124 149 t b b b;
#X obj 124 74 r NUDGE!;
#X obj 157 193 r NUDGE-RANGE;
#X obj 247 308 inlet;
#X obj 232 397 outlet;
#X obj 124 96 spigot;
#X obj 185 79 r parameters2-s;
#X connect 0 0 4 0;
#X connect 1 0 2 0;
#X connect 2 0 14 0;
#X connect 3 0 7 0;
#X connect 4 0 6 0;
#X connect 5 0 2 0;
#X connect 5 1 2 1;
#X connect 6 0 5 0;
#X connect 7 0 8 0;
#X connect 7 1 9 0;
#X connect 8 0 6 1;
#X connect 9 0 6 1;
#X connect 10 0 0 0;
#X connect 10 1 1 0;
#X connect 10 2 3 0;
#X connect 11 0 15 0;
#X connect 12 0 0 1;
#X connect 13 0 1 1;
#X connect 15 0 10 0;
#X connect 16 0 15 1;
#X restore 518 159 pd nudge-parameters;
#N canvas 0 22 484 497 nudge-parameters 0;
#X obj 124 234 random;
#X obj 232 335 f;
#X obj 232 368 +;
#X obj 257 166 random 2;
#X obj 124 275 t f f;
#X obj 124 351 t b f;
#X obj 124 297 *;
#X obj 257 188 sel 0 1;
#X msg 257 280 -1;
#X msg 335 280 1;
#X obj 124 149 t b b b;
#X obj 124 74 r NUDGE!;
#X obj 157 193 r NUDGE-RANGE;
#X obj 247 308 inlet;
#X obj 232 397 outlet;
#X obj 124 96 spigot;
#X obj 185 79 r parameters2-s;
#X connect 0 0 4 0;
#X connect 1 0 2 0;
#X connect 2 0 14 0;
#X connect 3 0 7 0;
#X connect 4 0 6 0;
#X connect 5 0 2 0;
#X connect 5 1 2 1;
#X connect 6 0 5 0;
#X connect 7 0 8 0;
#X connect 7 1 9 0;
#X connect 8 0 6 1;
#X connect 9 0 6 1;
#X connect 10 0 0 0;
#X connect 10 1 1 0;
#X connect 10 2 3 0;
#X connect 11 0 15 0;
#X connect 12 0 0 1;
#X connect 13 0 1 1;
#X connect 15 0 10 0;
#X connect 16 0 15 1;
#X restore 273 44 pd nudge-parameters;
#N canvas 0 22 484 497 nudge-parameters 0;
#X obj 124 234 random;
#X obj 232 335 f;
#X obj 232 368 +;
#X obj 257 166 random 2;
#X obj 124 275 t f f;
#X obj 124 351 t b f;
#X obj 124 297 *;
#X obj 257 188 sel 0 1;
#X msg 257 280 -1;
#X msg 335 280 1;
#X obj 124 149 t b b b;
#X obj 124 74 r NUDGE!;
#X obj 157 193 r NUDGE-RANGE;
#X obj 247 308 inlet;
#X obj 232 397 outlet;
#X obj 124 96 spigot;
#X obj 185 79 r parameters2-s;
#X connect 0 0 4 0;
#X connect 1 0 2 0;
#X connect 2 0 14 0;
#X connect 3 0 7 0;
#X connect 4 0 6 0;
#X connect 5 0 2 0;
#X connect 5 1 2 1;
#X connect 6 0 5 0;
#X connect 7 0 8 0;
#X connect 7 1 9 0;
#X connect 8 0 6 1;
#X connect 9 0 6 1;
#X connect 10 0 0 0;
#X connect 10 1 1 0;
#X connect 10 2 3 0;
#X connect 11 0 15 0;
#X connect 12 0 0 1;
#X connect 13 0 1 1;
#X connect 15 0 10 0;
#X connect 16 0 15 1;
#X restore 395 43 pd nudge-parameters;
#N canvas 0 22 484 497 nudge-parameters 0;
#X obj 124 234 random;
#X obj 232 335 f;
#X obj 232 368 +;
#X obj 257 166 random 2;
#X obj 124 275 t f f;
#X obj 124 351 t b f;
#X obj 124 297 *;
#X obj 257 188 sel 0 1;
#X msg 257 280 -1;
#X msg 335 280 1;
#X obj 124 149 t b b b;
#X obj 124 74 r NUDGE!;
#X obj 157 193 r NUDGE-RANGE;
#X obj 247 308 inlet;
#X obj 232 397 outlet;
#X obj 124 96 spigot;
#X obj 185 79 r parameters2-s;
#X connect 0 0 4 0;
#X connect 1 0 2 0;
#X connect 2 0 14 0;
#X connect 3 0 7 0;
#X connect 4 0 6 0;
#X connect 5 0 2 0;
#X connect 5 1 2 1;
#X connect 6 0 5 0;
#X connect 7 0 8 0;
#X connect 7 1 9 0;
#X connect 8 0 6 1;
#X connect 9 0 6 1;
#X connect 10 0 0 0;
#X connect 10 1 1 0;
#X connect 10 2 3 0;
#X connect 11 0 15 0;
#X connect 12 0 0 1;
#X connect 13 0 1 1;
#X connect 15 0 10 0;
#X connect 16 0 15 1;
#X restore 22 162 pd nudge-parameters;
#N canvas 0 22 484 497 nudge-parameters 0;
#X obj 124 234 random;
#X obj 232 335 f;
#X obj 232 368 +;
#X obj 257 166 random 2;
#X obj 124 275 t f f;
#X obj 124 351 t b f;
#X obj 124 297 *;
#X obj 257 188 sel 0 1;
#X msg 257 280 -1;
#X msg 335 280 1;
#X obj 124 149 t b b b;
#X obj 124 74 r NUDGE!;
#X obj 157 193 r NUDGE-RANGE;
#X obj 247 308 inlet;
#X obj 232 397 outlet;
#X obj 124 96 spigot;
#X obj 185 79 r parameters2-s;
#X connect 0 0 4 0;
#X connect 1 0 2 0;
#X connect 2 0 14 0;
#X connect 3 0 7 0;
#X connect 4 0 6 0;
#X connect 5 0 2 0;
#X connect 5 1 2 1;
#X connect 6 0 5 0;
#X connect 7 0 8 0;
#X connect 7 1 9 0;
#X connect 8 0 6 1;
#X connect 9 0 6 1;
#X connect 10 0 0 0;
#X connect 10 1 1 0;
#X connect 10 2 3 0;
#X connect 11 0 15 0;
#X connect 12 0 0 1;
#X connect 13 0 1 1;
#X connect 15 0 10 0;
#X connect 16 0 15 1;
#X restore 144 161 pd nudge-parameters;
#N canvas 0 22 484 497 nudge-parameters 0;
#X obj 124 234 random;
#X obj 232 335 f;
#X obj 232 368 +;
#X obj 257 166 random 2;
#X obj 124 275 t f f;
#X obj 124 351 t b f;
#X obj 124 297 *;
#X obj 257 188 sel 0 1;
#X msg 257 280 -1;
#X msg 335 280 1;
#X obj 124 149 t b b b;
#X obj 124 74 r NUDGE!;
#X obj 157 193 r NUDGE-RANGE;
#X obj 247 308 inlet;
#X obj 232 397 outlet;
#X obj 124 96 spigot;
#X obj 185 79 r parameters2-s;
#X connect 0 0 4 0;
#X connect 1 0 2 0;
#X connect 2 0 14 0;
#X connect 3 0 7 0;
#X connect 4 0 6 0;
#X connect 5 0 2 0;
#X connect 5 1 2 1;
#X connect 6 0 5 0;
#X connect 7 0 8 0;
#X connect 7 1 9 0;
#X connect 8 0 6 1;
#X connect 9 0 6 1;
#X connect 10 0 0 0;
#X connect 10 1 1 0;
#X connect 10 2 3 0;
#X connect 11 0 15 0;
#X connect 12 0 0 1;
#X connect 13 0 1 1;
#X connect 15 0 10 0;
#X connect 16 0 15 1;
#X restore 272 161 pd nudge-parameters;
#N canvas 0 22 484 497 nudge-parameters 0;
#X obj 124 234 random;
#X obj 232 335 f;
#X obj 232 368 +;
#X obj 257 166 random 2;
#X obj 124 275 t f f;
#X obj 124 351 t b f;
#X obj 124 297 *;
#X obj 257 188 sel 0 1;
#X msg 257 280 -1;
#X msg 335 280 1;
#X obj 124 149 t b b b;
#X obj 124 74 r NUDGE!;
#X obj 157 193 r NUDGE-RANGE;
#X obj 247 308 inlet;
#X obj 232 397 outlet;
#X obj 124 96 spigot;
#X obj 185 79 r parameters2-s;
#X connect 0 0 4 0;
#X connect 1 0 2 0;
#X connect 2 0 14 0;
#X connect 3 0 7 0;
#X connect 4 0 6 0;
#X connect 5 0 2 0;
#X connect 5 1 2 1;
#X connect 6 0 5 0;
#X connect 7 0 8 0;
#X connect 7 1 9 0;
#X connect 8 0 6 1;
#X connect 9 0 6 1;
#X connect 10 0 0 0;
#X connect 10 1 1 0;
#X connect 10 2 3 0;
#X connect 11 0 15 0;
#X connect 12 0 0 1;
#X connect 13 0 1 1;
#X connect 15 0 10 0;
#X connect 16 0 15 1;
#X restore 394 160 pd nudge-parameters;
#X obj 23 22 r \$0-16steps-s1-s;
#X obj 22 139 r \$0-16steps-s5-s;
#X obj 144 138 r \$0-16steps-s6-s;
#X obj 141 20 r \$0-16steps-s2-s;
#X obj 256 21 r \$0-16steps-s3-s;
#X obj 23 95 s \$0-16steps-s1-r;
#X obj 141 93 s \$0-16steps-s2-r;
#X obj 256 94 s \$0-16steps-s3-r;
#X obj 22 214 s \$0-16steps-s5-r;
#X obj 144 215 s \$0-16steps-s6-r;
#X obj 272 213 s \$0-16steps-s7-r;
#X obj 272 138 r \$0-16steps-s7-s;
#X obj 394 210 s \$0-16steps-s8-r;
#X obj 394 137 r \$0-16steps-s8-s;
#X obj 381 93 s \$0-16steps-s4-r;
#X obj 381 20 r \$0-16steps-s4-s;
#X obj 518 136 r \$0-16steps-scale-s;
#X obj 516 209 s \$0-16steps-scale-r;
#X connect 0 0 23 0;
#X connect 1 0 24 0;
#X connect 2 0 25 0;
#X connect 3 0 32 0;
#X connect 4 0 26 0;
#X connect 5 0 27 0;
#X connect 6 0 28 0;
#X connect 7 0 30 0;
#X connect 8 0 35 0;
#X connect 9 0 0 0;
#X connect 10 0 1 0;
#X connect 11 0 8 0;
#X connect 12 0 2 0;
#X connect 13 0 3 0;
#X connect 14 0 4 0;
#X connect 15 0 5 0;
#X connect 16 0 6 0;
#X connect 17 0 7 0;
#X connect 18 0 9 0;
#X connect 19 0 14 0;
#X connect 20 0 15 0;
#X connect 21 0 10 0;
#X connect 22 0 12 0;
#X connect 29 0 16 0;
#X connect 31 0 17 0;
#X connect 33 0 13 0;
#X connect 34 0 11 0;
#X restore 129 455 pd parameter-nudging-system;
#X obj 443 65 threshold~ 0.9 0 0.9 0;
#X obj 547 476 spigot;
#X floatatom 483 391 5 0 0 0 - - -;
#X obj 425 459 spigot;
#X obj 556 426 == 0;
#X obj 562 392 t f f;
#X floatatom 547 498 5 0 0 0 - - -;
#X floatatom 603 460 5 0 0 0 - - -;
#X obj 1154 536 s \$0-8steps-s1-r;
#X msg 1154 486 label \$1;
#X obj 1154 43 r \$0-8steps-s1-s;
#X obj 1154 65 / 127;
#X obj 1154 87 * 28;
#X obj 1154 109 tabread;
#X floatatom 1154 131 5 0 0 0 - - -;
#X obj 1154 150 sel 0 1 2 3 4 5 6 7 8 9 10 11;
#X obj 265 420 s \$0-active-scale;
#X obj 1214 92 r \$0-active-scale;
#X msg 1154 462 symbol C;
#X msg 1168 436 symbol Db;
#X msg 1182 412 symbol D;
#X msg 1195 385 symbol Eb;
#X msg 1209 359 symbol E;
#X msg 1223 335 symbol F;
#N canvas 0 0 1680 1028 external-messages 0;
#X floatatom 11 518 5 0 0 0 - - -;
#X obj 188 295 spigot;
#X obj 216 255 tgl 15 0 empty empty empty 17 7 0 10 -262144 -1 -1 0
1;
#X obj 252 239 ==;
#X obj 267 215 f \$1;
#X obj 267 191 loadbang;
#X msg 185 202 \$1 \$2;
#X msg 185 156 symbol \$1;
#X obj 185 180 pack s f;
#X obj 11 497 f;
#X obj 11 445 t b f;
#X obj 11 468 spigot;
#X obj 185 62 unpack s f f;
#X symbolatom 185 94 10 0 0 0 - - -;
#X obj 216 275 t f f;
#X obj 243 299 s \$0-msg-spigot;
#X obj 59 452 r \$0-msg-spigot;
#X obj 193 418 t l l;
#X obj -101 139 fudiformat;
#X obj -62 186 list length;
#X obj -105 159 t l l;
#X obj -107 241 list split;
#X obj -62 207 - 2;
#X obj -107 262 list split 1;
#X obj -73 286 fudiparse;
#X obj -8 405 list trim;
#X obj 185 14 r 16steps;
#X obj -73 320 makefilename \$0-16steps-s%d-r;
#X obj 188 326 route BEGIN END;
#X obj 193 371 s \$0-16steps-begin-r;
#X obj 328 366 s \$0-16steps-end-r;
#X floatatom 348 428 5 0 0 0 - - -;
#X msg 348 448 S15 \$1 1;
#X obj 348 469 s 16steps;
#X obj 266 429 list;
#X obj -95 106 list trim;
#X msg 194 462 \$2;
#X obj 11 538 s;
#X msg 99 492 symbol help-send2;
#X symbolatom 86 521 10 0 0 0 - - -;
#X obj -8 364 list prepend symbol;
#X connect 0 0 37 0;
#X connect 1 0 28 0;
#X connect 2 0 14 0;
#X connect 3 0 2 0;
#X connect 4 0 3 1;
#X connect 5 0 4 0;
#X connect 6 0 1 0;
#X connect 7 0 8 0;
#X connect 8 0 6 0;
#X connect 9 0 0 0;
#X connect 10 0 11 0;
#X connect 10 1 9 1;
#X connect 11 0 9 0;
#X connect 12 0 13 0;
#X connect 12 1 8 1;
#X connect 12 2 3 0;
#X connect 13 0 7 0;
#X connect 14 0 1 1;
#X connect 14 1 15 0;
#X connect 16 0 11 1;
#X connect 17 0 35 0;
#X connect 17 1 36 0;
#X connect 18 0 20 0;
#X connect 19 0 22 0;
#X connect 20 0 21 0;
#X connect 20 1 19 0;
#X connect 21 0 23 0;
#X connect 22 0 21 1;
#X connect 23 1 24 0;
#X connect 24 0 27 0;
#X connect 25 0 39 0;
#X connect 26 0 12 0;
#X connect 27 0 40 0;
#X connect 28 0 29 0;
#X connect 28 1 30 0;
#X connect 28 2 34 0;
#X connect 31 0 32 0;
#X connect 32 0 33 0;
#X connect 34 0 17 0;
#X connect 35 0 18 0;
#X connect 36 0 10 0;
#X connect 38 0 39 0;
#X connect 39 0 37 1;
#X connect 40 0 25 0;
#X restore 128 604 pd external-messages;
#X obj 239 152 vsl 15 96 0 127 0 1 \$0-16steps-s10-s \$0-16steps-s10-r
10 1 -9 0 10 -262144 -1 -1 4000 1;
#X obj 224 152 vsl 15 96 0 127 0 1 \$0-16steps-s9-s \$0-15steps-s9-r
9 3 -9 0 10 -262144 -1 -1 9500 1;
#X obj 254 152 vsl 15 96 0 127 0 1 \$0-16steps-s11-s \$0-16steps-s11-r
11 1 -9 0 10 -262144 -1 -1 4800 1;
#X obj 269 152 vsl 15 96 0 127 0 1 \$0-16steps-s12-s \$0-16steps-s12-r
12 1 -9 0 10 -262144 -1 -1 1700 1;
#X obj 284 152 vsl 15 96 0 127 0 1 \$0-16steps-s13-s \$0-16steps-s13-r
13 1 -9 0 10 -262144 -1 -1 3200 1;
#X obj 299 152 vsl 15 96 0 127 0 1 \$0-16steps-s14-s \$0-16steps-s14-r
14 1 -9 0 10 -262144 -1 -1 2700 1;
#X obj 314 152 vsl 15 96 0 127 0 1 \$0-16steps-s15-s \$0-16steps-s15-r
15 1 -9 0 10 -262144 -1 -1 3100 1;
#X obj 329 152 vsl 15 96 0 127 0 1 \$0-16steps-s16-s \$0-16steps-s16-r
16 1 -9 0 10 -262144 -1 -1 3400 1;
#X obj 719 300 f;
#X obj 760 300 f;
#X obj 798 300 f;
#X obj 838 301 f;
#X obj 734 250 / 127;
#X obj 734 272 * 28;
#X obj 775 250 / 127;
#X obj 775 272 * 28;
#X obj 813 250 / 127;
#X obj 813 272 * 28;
#X obj 853 251 / 127;
#X obj 853 273 * 28;
#X obj 877 300 f;
#X obj 914 300 f;
#X obj 950 300 f;
#X obj 986 299 f;
#X obj 892 251 / 127;
#X obj 892 272 * 28;
#X obj 929 251 / 127;
#X obj 929 272 * 28;
#X obj 965 251 / 127;
#X obj 965 272 * 28;
#X obj 1001 250 / 127;
#X obj 1001 271 * 28;
#X obj 415 207 sel 0 1 2 3 4 5 6 7 8 9 10 11 12 13 14 15, f 101;
#N canvas 0 22 945 757 incIndex 0;
#X obj -71 192 f;
#X obj -78 47 inlet;
#X obj 432 15 inlet;
#X obj -56 520 outlet;
#X obj 264 9 inlet;
#X obj 344 9 inlet;
#X obj 222 98 pack, f 23;
#X obj 339 65 t b f;
#X obj 219 125 t l l l, f 25;
#X floatatom 309 10 5 0 0 0 - - -;
#X floatatom 223 8 5 0 0 0 - - -;
#X obj 306 221 expr min($f1 \, $f2);
#X obj 352 151 expr ($f2-$f1)>0;
#X obj -33 189 + 1;
#X obj 304 274 spigot;
#X obj 352 175 == 1;
#X obj 101 162 sel 0;
#X msg 97 188 -1;
#X floatatom -71 221 5 0 0 0 - - -;
#X obj 77 327 expr $f1<$f2;
#X obj 77 348 sel 1;
#X obj -75 313 spigot;
#X obj -74 283 t 1 f;
#X floatatom -62 447 5 0 0 0 - - -;
#X obj 194 190 expr max($f1 \, $f2);
#X floatatom 194 211 5 0 0 0 - - -;
#X floatatom 306 242 5 0 0 0 - - -;
#X obj -27 355 sel 1;
#X obj -27 334 expr $f1>$f2;
#X obj -67 135 bng 15 250 50 0 empty empty empty 17 7 0 10 -262144
-1 -1;
#X msg -56 388 0;
#X obj -22 412 f, f 30;
#X obj 197 244 spigot;
#X obj 228 220 == 0;
#X obj -71 257 t f f f f, f 28;
#X obj -40 145 f;
#X obj 264 30 - 1;
#X obj 344 30 - 1;
#X connect 0 0 18 0;
#X connect 1 0 0 0;
#X connect 2 0 35 0;
#X connect 4 0 36 0;
#X connect 5 0 37 0;
#X connect 6 0 8 0;
#X connect 7 0 6 0;
#X connect 7 1 6 1;
#X connect 8 0 24 0;
#X connect 8 1 11 0;
#X connect 8 2 12 0;
#X connect 10 0 6 0;
#X connect 11 0 19 1;
#X connect 11 0 26 0;
#X connect 11 0 14 0;
#X connect 12 0 15 0;
#X connect 12 0 16 0;
#X connect 12 0 33 0;
#X connect 13 0 0 1;
#X connect 14 0 31 1;
#X connect 14 0 35 1;
#X connect 15 0 14 1;
#X connect 16 0 17 0;
#X connect 16 1 13 1;
#X connect 17 0 13 1;
#X connect 18 0 34 0;
#X connect 19 0 20 0;
#X connect 20 0 30 0;
#X connect 20 0 31 0;
#X connect 21 0 23 0;
#X connect 22 0 21 1;
#X connect 22 1 21 0;
#X connect 23 0 3 0;
#X connect 24 0 25 0;
#X connect 24 0 28 1;
#X connect 24 0 32 0;
#X connect 27 0 30 0;
#X connect 27 0 31 0;
#X connect 28 0 27 0;
#X connect 29 0 0 0;
#X connect 30 0 21 1;
#X connect 31 0 23 0;
#X connect 31 0 13 0;
#X connect 32 0 31 1;
#X connect 32 0 35 1;
#X connect 33 0 32 1;
#X connect 34 0 22 0;
#X connect 34 1 28 0;
#X connect 34 2 19 0;
#X connect 34 3 13 0;
#X connect 35 0 0 1;
#X connect 36 0 6 0;
#X connect 37 0 7 0;
#X restore 418 172 pd incIndex;
#X obj 748 4 inlet~;
#X obj 827 5 inlet~;
#X obj 753 39 snapshot~;
#X obj 249 110 cnv 5 5 5 empty empty BEGIN 0 0 0 8 -262144 -1 0;
#X obj 288 110 cnv 5 5 5 empty empty END 0 0 0 8 -262144 -1 0;
#X obj 754 87 * 16;
#X obj 754 108 clip 0 15;
#X obj 827 87 * 16;
#X obj 827 108 clip 0 15;
#X obj 827 36 snapshot~;
#X obj 827 57 change;
#X obj 753 60 change;
#X floatatom 325 254 3 0 0 0 - - -;
#X obj 754 129 expr floor($f1)+1;
#X obj 855 128 expr 16-floor($f1);
#X obj 246 120 nbx 2 14 -1e+37 1e+37 0 0 \$0-16steps-begin-s \$0-16steps-begin-r
empty 0 -8 0 10 -262144 -1 -1 1 256;
#X obj 99 25 hsl 128 15 0 127 0 0 \$0-16steps-end-s \$0-16steps-end-r
empty -2 -8 0 10 -262144 -1 -1 700 1;
#X obj 282 120 nbx 2 14 -1e+37 1e+37 0 0 \$0-16steps-end-s \$0-16steps-end-r
empty 0 -8 0 10 -262144 -1 -1 10 256;
#X text 277 254 curStep;
#X obj 372 193 + 1;
#X connect 0 0 95 0;
#X connect 2 0 20 0;
#X connect 3 0 18 0;
#X connect 4 0 24 0;
#X connect 5 0 22 0;
#X connect 7 0 91 0;
#X connect 8 0 153 3;
#X connect 14 0 48 0;
#X connect 14 0 53 0;
#X connect 15 0 53 0;
#X connect 16 0 53 0;
#X connect 17 0 53 0;
#X connect 18 0 19 0;
#X connect 19 0 14 1;
#X connect 20 0 21 0;
#X connect 21 0 15 1;
#X connect 22 0 23 0;
#X connect 23 0 16 1;
#X connect 24 0 25 0;
#X connect 25 0 17 1;
#X connect 26 0 51 0;
#X connect 28 0 12 0;
#X connect 28 1 100 0;
#X connect 29 0 26 0;
#X connect 31 0 8 0;
#X connect 31 1 30 0;
#X connect 32 0 42 0;
#X connect 33 0 40 0;
#X connect 34 0 46 0;
#X connect 35 0 44 0;
#X connect 36 0 53 0;
#X connect 37 0 53 0;
#X connect 38 0 53 0;
#X connect 39 0 53 0;
#X connect 40 0 41 0;
#X connect 41 0 36 1;
#X connect 42 0 43 0;
#X connect 43 0 37 1;
#X connect 44 0 45 0;
#X connect 45 0 38 1;
#X connect 46 0 47 0;
#X connect 47 0 39 1;
#X connect 49 0 8 0;
#X connect 50 0 80 0;
#X connect 51 0 58 0;
#X connect 52 0 61 0;
#X connect 53 0 69 0;
#X connect 53 0 97 0;
#X connect 54 0 55 0;
#X connect 55 0 53 0;
#X connect 55 1 53 1;
#X connect 56 0 153 0;
#X connect 56 1 67 0;
#X connect 57 0 54 0;
#X connect 57 0 156 0;
#X connect 57 0 163 0;
#X connect 58 0 59 0;
#X connect 59 0 27 0;
#X connect 60 0 51 1;
#X connect 60 0 72 1;
#X connect 61 0 54 0;
#X connect 63 0 60 0;
#X connect 69 0 79 0;
#X connect 69 1 70 0;
#X connect 70 0 71 0;
#X connect 71 0 72 0;
#X connect 72 0 73 0;
#X connect 73 0 74 0;
#X connect 74 0 68 0;
#X connect 79 0 98 0;
#X connect 80 0 28 0;
#X connect 80 1 81 0;
#X connect 81 0 79 0;
#X connect 81 0 111 0;
#X connect 82 0 84 0;
#X connect 84 0 86 0;
#X connect 86 0 83 0;
#X connect 88 0 89 0;
#X connect 89 0 87 0;
#X connect 91 0 31 0;
#X connect 95 0 56 0;
#X connect 96 0 29 0;
#X connect 96 0 101 0;
#X connect 97 0 96 0;
#X connect 98 0 29 0;
#X connect 99 0 98 1;
#X connect 100 0 99 0;
#X connect 100 1 96 1;
#X connect 100 1 102 0;
#X connect 105 0 106 0;
#X connect 106 0 107 0;
#X connect 107 0 108 0;
#X connect 108 0 109 0;
#X connect 109 0 110 0;
#X connect 110 0 113 0;
#X connect 110 1 114 0;
#X connect 110 2 115 0;
#X connect 110 3 116 0;
#X connect 110 4 117 0;
#X connect 110 5 118 0;
#X connect 112 0 108 0;
#X connect 113 0 104 0;
#X connect 114 0 104 0;
#X connect 115 0 104 0;
#X connect 116 0 104 0;
#X connect 117 0 104 0;
#X connect 118 0 104 0;
#X connect 120 0 134 0;
#X connect 121 0 132 0;
#X connect 122 0 136 0;
#X connect 123 0 138 0;
#X connect 124 0 144 0;
#X connect 125 0 146 0;
#X connect 126 0 148 0;
#X connect 127 0 150 0;
#X connect 128 0 53 0;
#X connect 129 0 53 0;
#X connect 130 0 53 0;
#X connect 131 0 53 0;
#X connect 132 0 133 0;
#X connect 133 0 128 1;
#X connect 134 0 135 0;
#X connect 135 0 129 1;
#X connect 136 0 137 0;
#X connect 137 0 130 1;
#X connect 138 0 139 0;
#X connect 139 0 131 1;
#X connect 140 0 53 0;
#X connect 141 0 53 0;
#X connect 142 0 53 0;
#X connect 143 0 53 0;
#X connect 144 0 145 0;
#X connect 145 0 140 1;
#X connect 146 0 147 0;
#X connect 147 0 141 1;
#X connect 148 0 149 0;
#X connect 149 0 142 1;
#X connect 150 0 151 0;
#X connect 151 0 143 1;
#X connect 152 0 14 0;
#X connect 152 0 88 0;
#X connect 152 1 15 0;
#X connect 152 2 16 0;
#X connect 152 3 17 0;
#X connect 152 4 36 0;
#X connect 152 5 37 0;
#X connect 152 6 38 0;
#X connect 152 7 39 0;
#X connect 152 8 128 0;
#X connect 152 9 129 0;
#X connect 152 10 130 0;
#X connect 152 11 131 0;
#X connect 152 12 140 0;
#X connect 152 13 141 0;
#X connect 152 14 142 0;
#X connect 152 15 143 0;
#X connect 153 0 152 0;
#X connect 153 0 173 0;
#X connect 154 0 156 0;
#X connect 155 0 163 0;
#X connect 156 0 165 0;
#X connect 159 0 160 0;
#X connect 160 0 167 0;
#X connect 161 0 162 0;
#X connect 162 0 168 0;
#X connect 163 0 164 0;
#X connect 164 0 161 0;
#X connect 165 0 159 0;
#X connect 167 0 169 0;
#X connect 168 0 171 0;
#X connect 169 0 153 1;
#X connect 171 0 153 2;
#X connect 173 0 166 0;
#X coords 0 -1 1 1 250 200 2 100 100;
