#N canvas 0 22 1447 787 12;
#X obj 47 211 sel 1;
#X obj 47 233 bng 15 250 50 0 empty empty empty 17 7 0 10 -262144 -1
-1;
#X obj 214 213 sel 1;
#X obj 214 235 bng 15 250 50 0 empty empty empty 17 7 0 10 -262144
-1 -1;
#X obj 397 211 sel 1;
#X obj 397 233 bng 15 250 50 0 empty empty empty 17 7 0 10 -262144
-1 -1;
#X obj 62 33 r globalClock;
#X floatatom 140 235 5 0 0 0 - - -;
#X floatatom 335 233 5 0 0 0 - - -;
#X floatatom 445 215 5 0 0 0 - - -;
#X floatatom 273 235 5 0 0 0 - - -;
#X obj 229 163 expr ($f2>>$f1) & 1 == 1;
#X obj 43 163 expr ($f2>>$f1) & 1 == 1;
#X obj 412 161 expr ($f2>>$f1) & 1 == 1;
#X obj 222 55 r \$1;
#X obj 226 103 unpack f f f f;
#X msg 55 343 1 0 \, 0 1 1;
#X obj 55 364 vline~;
#X obj 55 388 outlet~;
#X msg 238 356 1 0 \, 0 1 1;
#X obj 238 377 vline~;
#X obj 238 401 outlet~;
#X msg 402 363 1 0 \, 0 1 1;
#X obj 402 384 vline~;
#X obj 402 408 outlet~;
#X obj 63 103 expr $f1 % 8;
#X obj 181 -52 \$2;
#X obj 182 0 sel 0;
#X msg 181 23 1;
#X obj 62 57 expr floor($f1/$f2);
#X obj 180 -79 loadbang;
#X obj 139 -61 bng 15 250 50 0 empty empty empty 17 7 0 10 -262144
-1 -1;
#X obj 62 80 change;
#X floatatom 193 -26 5 0 0 0 - - -;
#X obj 229 -49 inlet;
#X connect 0 0 1 0;
#X connect 1 0 16 0;
#X connect 2 0 3 0;
#X connect 3 0 19 0;
#X connect 4 0 5 0;
#X connect 5 0 22 0;
#X connect 6 0 29 0;
#X connect 11 0 2 0;
#X connect 12 0 0 0;
#X connect 13 0 4 0;
#X connect 13 0 9 0;
#X connect 14 0 15 0;
#X connect 15 0 12 1;
#X connect 15 1 11 1;
#X connect 15 2 13 1;
#X connect 16 0 17 0;
#X connect 17 0 18 0;
#X connect 19 0 20 0;
#X connect 20 0 21 0;
#X connect 22 0 23 0;
#X connect 23 0 24 0;
#X connect 25 0 11 0;
#X connect 25 0 12 0;
#X connect 25 0 13 0;
#X connect 26 0 33 0;
#X connect 27 0 28 0;
#X connect 27 1 29 1;
#X connect 28 0 29 1;
#X connect 29 0 32 0;
#X connect 30 0 26 0;
#X connect 31 0 26 0;
#X connect 32 0 25 0;
#X connect 33 0 27 0;
#X connect 34 0 33 0;
