#N canvas 322 78 958 1028 10;
#X obj 30 123 oscparse;
#X obj 558 253 netsend -u -b;
#X obj 658 91 oscformat pixel;
#X obj 566 92 oscformat red;
#X obj 445 92 oscformat green;
#X obj 342 93 oscformat blue;
#X floatatom 624 53 5 0 0 0 - - -;
#X floatatom 510 58 5 0 0 0 - - -;
#X floatatom 375 55 5 0 0 0 - - -;
#X floatatom 722 61 5 0 0 0 - - -;
#X obj 425 6 t b b b b;
#X obj 558 149 list prepend send;
#X obj 559 201 list trim;
#X obj 262 58 bng 15 250 50 0 empty empty empty 17 7 0 10 -262144 -1
-1;
#X obj 30 213 route row0 row1 row2 row3 button_down button_up;
#X msg 387 203 connect localhost 5006;
#X obj 30 86 netreceive -u -b 5005;
#X obj 383 169 loadbang;
#X obj 26 164 list trim;
#X obj 31 268 & 1;
#X obj 273 334 tgl 15 0 empty empty empty 17 7 0 10 -262144 -1 -1 0
1;
#X obj 67 268 & 2;
#X obj 98 268 & 4;
#X obj 133 268 & 8;
#X obj 308 334 tgl 15 0 empty empty empty 17 7 0 10 -262144 -1 -1 0
1;
#X obj 340 334 tgl 15 0 empty empty empty 17 7 0 10 -262144 -1 -1 0
1;
#X obj 375 334 tgl 15 0 empty empty empty 17 7 0 10 -262144 -1 -1 0
1;
#X obj 30 330 & 1;
#X obj 273 361 tgl 15 0 empty empty empty 17 7 0 10 -262144 -1 -1 0
1;
#X obj 66 330 & 2;
#X obj 97 330 & 4;
#X obj 132 330 & 8;
#X obj 308 361 tgl 15 0 empty empty empty 17 7 0 10 -262144 -1 -1 0
1;
#X obj 340 361 tgl 15 0 empty empty empty 17 7 0 10 -262144 -1 -1 0
1;
#X obj 375 361 tgl 15 0 empty empty empty 17 7 0 10 -262144 -1 -1 0
1;
#X obj 29 391 & 1;
#X obj 271 391 tgl 15 0 empty empty empty 17 7 0 10 -262144 -1 -1 0
1;
#X obj 65 391 & 2;
#X obj 96 391 & 4;
#X obj 131 391 & 8;
#X obj 306 391 tgl 15 0 empty empty empty 17 7 0 10 -262144 -1 -1 0
1;
#X obj 338 391 tgl 15 0 empty empty empty 17 7 0 10 -262144 -1 -1 0
1;
#X obj 373 391 tgl 15 0 empty empty empty 17 7 0 10 -262144 -1 -1 0
1;
#X obj 29 450 & 1;
#X obj 271 422 tgl 15 0 empty empty empty 17 7 0 10 -262144 -1 -1 0
1;
#X obj 64 450 & 2;
#X obj 96 450 & 4;
#X obj 131 450 & 8;
#X obj 307 422 tgl 15 0 empty empty empty 17 7 0 10 -262144 -1 -1 0
1;
#X obj 338 422 tgl 15 0 empty empty empty 17 7 0 10 -262144 -1 -1 0
1;
#X obj 373 422 tgl 15 0 empty empty empty 17 7 0 10 -262144 -1 -1 0
1;
#X obj 147 146 print;
#X connect 0 0 18 0;
#X connect 0 0 51 0;
#X connect 2 0 11 0;
#X connect 3 0 11 0;
#X connect 4 0 11 0;
#X connect 5 0 11 0;
#X connect 6 0 3 0;
#X connect 7 0 4 0;
#X connect 8 0 5 0;
#X connect 9 0 2 0;
#X connect 10 0 8 0;
#X connect 10 1 7 0;
#X connect 10 2 6 0;
#X connect 10 3 9 0;
#X connect 11 0 12 0;
#X connect 12 0 1 0;
#X connect 13 0 10 0;
#X connect 14 0 19 0;
#X connect 14 0 21 0;
#X connect 14 0 22 0;
#X connect 14 0 23 0;
#X connect 14 1 27 0;
#X connect 14 1 29 0;
#X connect 14 1 30 0;
#X connect 14 1 31 0;
#X connect 14 2 35 0;
#X connect 14 2 37 0;
#X connect 14 2 38 0;
#X connect 14 2 39 0;
#X connect 14 3 43 0;
#X connect 14 3 45 0;
#X connect 14 3 46 0;
#X connect 14 3 47 0;
#X connect 15 0 1 0;
#X connect 16 0 0 0;
#X connect 17 0 15 0;
#X connect 18 0 14 0;
#X connect 19 0 20 0;
#X connect 21 0 24 0;
#X connect 22 0 25 0;
#X connect 23 0 26 0;
#X connect 27 0 28 0;
#X connect 29 0 32 0;
#X connect 30 0 33 0;
#X connect 31 0 34 0;
#X connect 35 0 36 0;
#X connect 37 0 40 0;
#X connect 38 0 41 0;
#X connect 39 0 42 0;
#X connect 43 0 44 0;
#X connect 45 0 48 0;
#X connect 46 0 49 0;
#X connect 47 0 50 0;
