#N canvas 76 3 1440 855 12;
#X obj 25 206 receiveOSC;
#X obj 441 432 sendOSC, f 20;
#X msg 575 371 0;
#X obj 575 394 oscformat mirror;
#X obj 20 -43 vsl 30 128 1.27 127 0 0 empty empty Synth -1 -9 0 10
-262144 -1 -1 0 1;
#X obj 89 -43 vsl 30 128 1.27 127 0 0 empty empty Sub 6 -9 0 10 -262144
-1 -1 0 1;
#X obj 136 -43 vsl 30 128 1.27 127 0 0 empty empty Verb 0 -9 0 10 -262144
-1 -1 0 1;
#X obj 25 238 s incomingOSC;
#X obj 26 313 r incomingOSC;
#X obj 153 224 spigot;
#X obj 153 247 print;
#X obj 191 206 tgl 15 0 empty empty empty 17 7 0 10 -262144 -1 -1 1
1;
#X msg 443 305 0;
#X obj 443 328 oscformat cancel;
#X obj 14 428 keyGrid, f 19;
#X obj 14 455 oscformat keyDown;
#X obj 32 483 oscformat keyUp;
#X obj 14 505 s outgoingOSC;
#X obj 699 393 r outgoingOSC;
#X obj 577 327 r incomingOSC;
#X obj 577 350 route init;
#N canvas 212 380 1468 317 gains 0;
#X obj 23 18 inlet;
#X obj 100 17 inlet;
#X obj 177 17 inlet;
#X obj 254 16 inlet;
#X obj 331 16 inlet;
#X obj 540 11 inlet;
#X obj 620 13 inlet;
#X obj 697 12 inlet;
#X msg 540 34 VCA \$1 20;
#X msg 620 36 VCA \$1 21;
#X msg 697 35 VCA \$1 22;
#X msg 331 39 VCA \$1 25;
#X obj 429 12 inlet;
#X msg 429 35 MASTER \$1 2;
#X obj 244 133 s maestro4;
#X obj 426 101 s mixer;
#X msg 101 40 VCA \$1 9;
#X msg 117 62 VCA \$1 10;
#X obj 104 124 s vca;
#X msg 177 40 VCA \$1 4;
#X msg 254 39 VCA \$1 5;
#X msg 264 68 VCA \$1 6;
#X msg 23 41 VCA \$1 50;
#X connect 0 0 22 0;
#X connect 1 0 16 0;
#X connect 1 0 17 0;
#X connect 2 0 19 0;
#X connect 3 0 20 0;
#X connect 3 0 21 0;
#X connect 4 0 11 0;
#X connect 5 0 8 0;
#X connect 6 0 9 0;
#X connect 7 0 10 0;
#X connect 8 0 15 0;
#X connect 9 0 15 0;
#X connect 10 0 15 0;
#X connect 11 0 14 0;
#X connect 12 0 13 0;
#X connect 16 0 18 0;
#X connect 17 0 18 0;
#X connect 19 0 18 0;
#X connect 20 0 18 0;
#X connect 21 0 18 0;
#X connect 22 0 18 0;
#X restore 19 115 pd gains;
#X f 32;
#X obj 17 -82 cnv 15 155 20 empty empty MIXER 4 10 0 14 -203904 -66577
0;
#X obj 177 -41 vsl 32 128 1.27 127 1 0 empty empty MASTER 0 -9 0 10
-203904 -1 -1 0 1;
#X obj 359 -86 cnv 15 225 20 empty empty tuning 4 10 0 10 -204786 -66577
0;
#X obj 16 174 cnv 15 320 20 empty empty MONITOR 4 10 0 14 -203904 -66577
0;
#X obj 167 428 r prog-synth-seq-s;
#X obj 167 451 oscformat progSynthSeq;
#X obj 226 211 r incomingOSC;
#X obj 226 234 route param module;
#X obj 226 292 s;
#X obj 284 258 symbol;
#X obj 54 -43 vsl 30 128 1.27 127 0 0 empty empty V1+V2 0 -9 0 10 -262144
-1 -1 0 1;
#X obj 707 289 tgl 15 0 empty empty empty 17 7 0 10 -262144 -1 -1 1
1;
#X obj 707 309 metro 1000;
#X obj 707 266 loadbang;
#X msg 707 332 0;
#X obj 707 355 oscformat tick;
#X obj 18 -108 cnv 15 600 20 empty empty CHESTER 4 10 0 20 -258113
-262144 0;
#X obj 26 336 dataMonitor opto0 optoDelta optoScale1 optoScale2;
#X connect 0 0 9 0;
#X connect 0 0 7 0;
#X connect 2 0 3 0;
#X connect 3 0 1 0;
#X connect 3 0 1 1;
#X connect 4 0 21 0;
#X connect 5 0 21 2;
#X connect 6 0 21 3;
#X connect 8 0 39 0;
#X connect 9 0 10 0;
#X connect 11 0 9 1;
#X connect 12 0 13 0;
#X connect 13 0 1 0;
#X connect 14 0 15 0;
#X connect 14 1 16 0;
#X connect 15 0 17 0;
#X connect 16 0 17 0;
#X connect 18 0 1 0;
#X connect 19 0 20 0;
#X connect 20 0 2 0;
#X connect 23 0 21 4;
#X connect 26 0 27 0;
#X connect 27 0 17 0;
#X connect 28 0 29 0;
#X connect 29 0 30 0;
#X connect 29 1 31 0;
#X connect 31 0 30 1;
#X connect 32 0 21 1;
#X connect 33 0 34 0;
#X connect 34 0 36 0;
#X connect 35 0 33 0;
#X connect 36 0 37 0;
#X connect 37 0 1 0;
#X coords 0 0 0.5 0.5 0 0 0;
