#N canvas 0 23 558 392 12;
#X obj 38 65 *~;
#X obj 38 43 sig~;
#X obj 38 20 / 127;
#X obj 148 -2 r cap-t-\$1;
#X obj 38 -1 r cap-p-\$1;
#X obj 37 104 outlet~;
#X connect 0 0 5 0;
#X connect 1 0 0 0;
#X connect 2 0 1 0;
#X connect 3 0 0 1;
#X connect 4 0 2 0;
