#N canvas 319 0 1361 1028 12;
#X obj 193 72 capSenseMonitoring2;
#X obj 98 42 dataMonitoring;
#X obj 248 100 EncoderMonitoring;
#X obj 1465 231 print;
#X obj 1497 181 tgl 15 0 empty empty empty 17 7 0 10 -262144 -1 -1
0 1;
#X obj 1465 207 spigot;
#X obj 1475 241 print;
#X obj 1507 191 tgl 15 0 empty empty empty 17 7 0 10 -262144 -1 -1
0 1;
#X obj 1475 217 spigot;
#X obj 248 157 spigot;
#X obj 286 128 tgl 15 0 empty empty empty 17 7 0 10 -262144 -1 -1 0
1;
#X obj 248 180 print;
#X obj 84 244 route digital0 digital1 digital4 analog10 analog11;
#X floatatom 84 267 5 0 0 0 - - -;
#X floatatom 133 269 5 0 0 0 - - -;
#X floatatom 176 271 5 0 0 0 - - -;
#X floatatom 240 275 5 0 0 0 - - -;
#X floatatom 319 270 5 0 0 0 - - -;
#X obj 469 144 OSC_OUTPUT;
#X obj 500 373 s m370_OSC_SEND;
#X obj 518 301 oscformat led;
#X obj 518 267 pack f 0 0 0;
#X floatatom 514 207 5 0 0 0 - - -;
#X floatatom 554 208 5 0 0 0 - - -;
#X floatatom 592 209 5 0 0 0 - - -;
#X floatatom 630 207 5 0 0 0 - - -;
#X connect 0 1 2 0;
#X connect 1 1 0 0;
#X connect 2 0 12 0;
#X connect 4 0 5 1;
#X connect 5 0 3 0;
#X connect 7 0 8 1;
#X connect 8 0 6 0;
#X connect 9 0 11 0;
#X connect 10 0 9 1;
#X connect 12 0 13 0;
#X connect 12 1 14 0;
#X connect 12 2 15 0;
#X connect 12 3 16 0;
#X connect 12 4 17 0;
#X connect 12 5 9 0;
#X connect 20 0 19 0;
#X connect 21 0 20 0;
#X connect 22 0 21 0;
#X connect 23 0 21 1;
#X connect 24 0 21 2;
#X connect 25 0 21 3;
