#N canvas 56 28 1440 855 12;
#X obj 25 206 receiveOSC;
#X obj 441 432 sendOSC, f 20;
#X msg 575 371 0;
#X obj 575 394 oscformat mirror;
#X obj 20 -43 vsl 30 128 1.27 127 0 0 empty empty Synth -1 -9 0 10 #fcfcfc #000000 #000000 0 1;
#X obj 89 -43 vsl 30 128 1.27 127 0 0 empty empty Sub 6 -9 0 10 #fcfcfc #000000 #000000 0 1;
#X obj 136 -43 vsl 30 128 1.27 127 0 0 empty empty Verb 0 -9 0 10 #fcfcfc #000000 #000000 0 1;
#X obj 25 238 s incomingOSC;
#X obj 26 261 r incomingOSC;
#X obj 153 224 spigot;
#X obj 153 247 print;
#X obj 191 206 tgl 15 0 empty empty empty 17 7 0 10 #fcfcfc #000000 #000000 0 1;
#X msg 443 305 0;
#X obj 443 328 oscformat cancel;
#X obj 14 428 keyGrid, f 19;
#X obj 14 455 oscformat keyDown;
#X obj 32 483 oscformat keyUp;
#X obj 14 505 s outgoingOSC;
#X obj 699 393 r outgoingOSC;
#X obj 577 327 r incomingOSC;
#X obj 577 350 route init;
#N canvas 0 23 1283 302 pitchReceives 0;
#X obj 143 25 r v1-pitch-s;
#X obj 235 26 r v2-pitch-s;
#X obj 327 27 r sub-pitch-s;
#X obj 38 25 r base-pitch-s;
#X msg 38 48 0 \$1;
#X obj 38 71 oscformat setPitch;
#X obj 38 94 s outgoingOSC;
#X msg 143 48 1 \$1;
#X msg 235 49 2 \$1;
#X msg 327 50 3 \$1;
#X obj 433 29 r synthDetune-s;
#X obj 423 53 oscformat synthDetune;
#X connect 0 0 7 0;
#X connect 1 0 8 0;
#X connect 2 0 9 0;
#X connect 3 0 4 0;
#X connect 4 0 5 0;
#X connect 5 0 6 0;
#X connect 7 0 5 0;
#X connect 8 0 5 0;
#X connect 9 0 5 0;
#X connect 10 0 11 0;
#X connect 11 0 6 0;
#X restore 523 218 pd pitchReceives;
#N canvas 212 380 1468 317 gains 0;
#X obj 23 18 inlet;
#X obj 100 17 inlet;
#X obj 177 17 inlet;
#X obj 254 16 inlet;
#X obj 331 16 inlet;
#X obj 540 11 inlet;
#X obj 620 13 inlet;
#X obj 697 12 inlet;
#X msg 540 34 VCA \$1 20;
#X msg 620 36 VCA \$1 21;
#X msg 697 35 VCA \$1 22;
#X msg 331 39 VCA \$1 25;
#X obj 429 12 inlet;
#X msg 429 35 MASTER \$1 2;
#X obj 244 133 s maestro4;
#X obj 426 101 s mixer;
#X msg 101 40 VCA \$1 9;
#X msg 117 62 VCA \$1 10;
#X obj 104 124 s vca;
#X msg 177 40 VCA \$1 4;
#X msg 254 39 VCA \$1 5;
#X msg 264 68 VCA \$1 6;
#X msg 23 41 VCA \$1 50;
#X connect 0 0 22 0;
#X connect 1 0 16 0;
#X connect 1 0 17 0;
#X connect 2 0 19 0;
#X connect 3 0 20 0;
#X connect 3 0 21 0;
#X connect 4 0 11 0;
#X connect 5 0 8 0;
#X connect 6 0 9 0;
#X connect 7 0 10 0;
#X connect 8 0 15 0;
#X connect 9 0 15 0;
#X connect 10 0 15 0;
#X connect 11 0 14 0;
#X connect 12 0 13 0;
#X connect 16 0 18 0;
#X connect 17 0 18 0;
#X connect 19 0 18 0;
#X connect 20 0 18 0;
#X connect 21 0 18 0;
#X connect 22 0 18 0;
#X restore 19 115 pd gains;
#X f 32;
#X obj 17 -82 cnv 15 155 20 empty empty MIXER 4 10 0 14 #c4c4fc #404040 0;
#X obj 177 -41 vsl 32 128 1.27 127 1 0 empty empty MASTER 0 -9 0 10 #c4c4fc #000000 #000000 0 1;
#X obj 359 -86 cnv 15 225 20 empty empty tuning 4 10 0 10 #c4fcc4 #404040 0;
#X obj 16 174 cnv 15 320 20 empty empty MONITOR 4 10 0 14 #c4c4fc #404040 0;
#X obj 167 428 r prog-synth-seq-s;
#X obj 167 451 oscformat progSynthSeq;
#X obj 362 -44 hsl 128 15 0 127 0 0 magnitude-s magnitude-r magnitude_smoothing -2 -8 0 10 #fcfcfc #000000 #000000 0 1;
#X obj 226 211 r incomingOSC;
#X obj 226 234 route param module;
#X obj 226 292 s;
#X obj 284 258 symbol;
#X obj 54 -43 vsl 30 128 1.27 127 0 0 empty empty V1+V2 0 -9 0 10 #fcfcfc #000000 #000000 0 1;
#X obj 707 289 tgl 15 0 empty empty empty 17 7 0 10 #fcfcfc #000000 #000000 0 1;
#X obj 707 309 metro 1000;
#X obj 707 266 loadbang;
#X msg 707 332 0;
#X obj 707 355 oscformat tick;
#X obj 26 284 IMUmonitor;
#X obj 28 314 r incomingOSC;
#X obj 28 337 route sw0 sw1 sw2 sw3 enc encSw;
#X obj 29 367 tgl 15 0 empty empty empty 17 7 0 10 #fcfcfc #000000 #000000 0 1;
#X obj 63 365 tgl 15 0 empty empty empty 17 7 0 10 #fcfcfc #000000 #000000 0 1;
#X obj 96 368 tgl 15 0 empty empty empty 17 7 0 10 #fcfcfc #000000 #000000 0 1;
#X obj 130 366 tgl 15 0 empty empty empty 17 7 0 10 #fcfcfc #000000 #000000 0 1;
#X floatatom 154 363 5 0 0 0 - - - 0;
#X obj 201 365 tgl 15 0 empty empty empty 17 7 0 10 #fcfcfc #000000 #000000 0 1;
#X obj 18 -108 cnv 15 600 20 empty empty IMU_LAB 4 10 0 20 #fc0400 #fcfcfc 0;
#X obj 515 -10 hradio 15 1 0 4 pitchset-s empty pitchset 8 -6 0 14 #fcfcfc #000000 #000000 0;
#N canvas 1925 98 1199 603 parameterSends 0;
#X obj 38 37 r magnitude-s;
#X obj 38 60 oscformat setMagnitudeSmooth;
#X obj 274 169 r FM-depth-s;
#X obj 274 192 oscformat FMDepth;
#X obj 248 266 s outgoingOSC;
#X obj 273 69 r waveshape-s;
#X obj 273 92 oscformat waveshape;
#X obj 273 119 r waveshape-lfo-rate-s;
#X obj 273 142 oscformat ws-lfo-rate;
#X obj 92 116 r waveshape-lfo-depth-s;
#X obj 92 139 oscformat ws-lfo-depth;
#X obj 274 19 r reverb-size-s;
#X obj 274 219 r pitch-glide-s;
#X obj 274 242 oscformat pitch-glide;
#X obj 274 43 oscformat reverb-size;
#X obj 52 225 oscformat setPitchset;
#X obj 52 203 r pitchset-s;
#X obj 39 7 oscformat setTiltSmooth;
#X obj 39 -16 r tilt-s;
#X obj 43 -40 oscformat setVelocitySmooth;
#X obj 43 -63 r velocity-s;
#X connect 0 0 1 0;
#X connect 1 0 4 0;
#X connect 2 0 3 0;
#X connect 2 0 4 0;
#X connect 3 0 4 0;
#X connect 5 0 6 0;
#X connect 6 0 4 0;
#X connect 7 0 8 0;
#X connect 8 0 4 0;
#X connect 9 0 10 0;
#X connect 10 0 4 0;
#X connect 11 0 14 0;
#X connect 12 0 13 0;
#X connect 13 0 4 0;
#X connect 14 0 4 0;
#X connect 15 0 4 0;
#X connect 16 0 15 0;
#X connect 17 0 4 0;
#X connect 18 0 17 0;
#X connect 19 0 4 0;
#X connect 20 0 19 0;
#X coords 0 0 0.5 0.5 0 0 0;
#X restore 384 217 pd parameterSends;
#X obj 362 -15 hsl 128 15 0 127 0 0 tilt-s tilt-r tilt_smoothing -2 -8 0 10 #fcfcfc #000000 #000000 0 1;
#X obj 362 14 hsl 128 15 0 127 0 0 velocity-s velocity-r velocity_smoothing -2 -8 0 10 #fcfcfc #000000 #000000 0 1;
#X connect 0 0 9 0;
#X connect 0 0 7 0;
#X connect 2 0 3 0;
#X connect 3 0 1 0;
#X connect 3 0 1 1;
#X connect 4 0 22 0;
#X connect 5 0 22 2;
#X connect 6 0 22 3;
#X connect 8 0 40 0;
#X connect 9 0 10 0;
#X connect 11 0 9 1;
#X connect 12 0 13 0;
#X connect 13 0 1 0;
#X connect 14 0 15 0;
#X connect 14 1 16 0;
#X connect 15 0 17 0;
#X connect 16 0 17 0;
#X connect 18 0 1 0;
#X connect 19 0 20 0;
#X connect 20 0 2 0;
#X connect 24 0 22 4;
#X connect 27 0 28 0;
#X connect 28 0 17 0;
#X connect 30 0 31 0;
#X connect 31 0 32 0;
#X connect 31 1 33 0;
#X connect 33 0 32 1;
#X connect 34 0 22 1;
#X connect 35 0 36 0;
#X connect 36 0 38 0;
#X connect 37 0 35 0;
#X connect 38 0 39 0;
#X connect 39 0 1 0;
#X connect 41 0 42 0;
#X connect 42 0 43 0;
#X connect 42 1 44 0;
#X connect 42 2 45 0;
#X connect 42 3 46 0;
#X connect 42 4 47 0;
#X connect 42 5 48 0;
#X coords 0 0 0.5 0.5 0 0 0;
