#N canvas 56 38 1441 822 12;
#X obj 102 30 keygrid, f 41;
#X msg 125 67 set \$1 \$2;
#X msg 125 90 4 1;
#X msg 209 67 set \$1 \$2;
#X msg 209 90 1 1;
#X msg 385 83 -0;
#X obj 104 143 sendOSC;
#X obj 107 183 receiveOSC;
#X text 398 29 <-click on keygrid to see how it works;
#X msg 385 60 set \$1;
#X floatatom 107 235 5 0 0 0 - - -;
#X obj 56 212 print;
#X obj 560 278 vradio 15 1 0 2 empty empty Pitch_source 0 -8 0 10 -262144
-1 -1 0;
#X text 578 277 seq8;
#X text 579 295 keyboard;
#X obj 560 313 s pitchSource;
#X obj 179 313 s keyPitch;
#X obj 107 257 t b f, f 11;
#X obj 107 314 s keyTrig;
#X obj 107 284 delay 20;
#X obj 107 119 oscformat keydown;
#X obj 250 129 oscformat keyup;
#X obj 107 212 route pitch module param, f 64;
#X obj 273 313 s;
#X obj 256 238 symbol;
#X obj 413 280 hsl 128 15 0 127 0 0 empty empty empty -2 -8 0 10 -262144
-1 -1 0 1;
#X msg 410 300 MASTER \$1 1;
#X obj 410 323 s maestro4;
#X msg 293 64 set \$1 \$2;
#X msg 293 87 0 1;
#X connect 0 0 1 0;
#X connect 0 0 20 0;
#X connect 0 1 3 0;
#X connect 0 1 21 0;
#X connect 0 2 28 0;
#X connect 0 3 9 0;
#X connect 1 0 2 0;
#X connect 3 0 4 0;
#X connect 7 0 11 0;
#X connect 7 0 22 0;
#X connect 9 0 5 0;
#X connect 10 0 17 0;
#X connect 12 0 15 0;
#X connect 17 0 19 0;
#X connect 17 1 16 0;
#X connect 19 0 18 0;
#X connect 20 0 6 0;
#X connect 21 0 6 0;
#X connect 22 0 10 0;
#X connect 22 1 24 0;
#X connect 22 2 23 0;
#X connect 24 0 23 1;
#X connect 25 0 26 0;
#X connect 26 0 27 0;
#X connect 28 0 29 0;
