#N canvas 0 22 1544 590 12;
#X obj 103 29 keygrid, f 41;
#X msg 203 60 set \$1 \$2;
#X msg 203 83 0 2;
#X msg 300 61 set \$1 \$2;
#X msg 300 84 1 1;
#X msg 385 60 set \$1 \$2;
#X msg 385 83 1 0;
#X obj 102 59 oscformat key;
#X obj 102 82 sendOSC;
#X obj 105 148 receiveOSC;
#X obj 105 171 route;
#X connect 0 0 1 0;
#X connect 0 0 7 0;
#X connect 0 1 3 0;
#X connect 0 2 5 0;
#X connect 1 0 2 0;
#X connect 3 0 4 0;
#X connect 5 0 6 0;
#X connect 7 0 8 0;
#X connect 9 0 10 0;
