#N canvas 168 23 1512 1005 12;
#X obj 38 24 dataMonitoring;
#X obj 307 14 tgl 15 0 empty empty empty 17 7 0 10 -262144 -1 -1 0
1;
#X obj 132 60 route accelX accelY accelZ gyroX gyroY gyroZ temp, f
121;
#X floatatom -70 131 5 0 0 0 - - -;
#X floatatom -10 135 5 0 0 0 - - -;
#X obj -72 104 route button0raw button1raw;
#X floatatom -244 104 5 0 0 0 - - -;
#X floatatom -179 69 5 0 0 0 - - -;
#X floatatom -122 66 5 0 0 0 - - -;
#X floatatom -77 70 5 0 0 0 - - -;
#X obj -241 38 route analog0 analog1 analog2 analog9;
#X obj -240 68 > 0;
#X msg -247 143 joyB \$1;
#X msg -179 143 cds0 \$1;
#X msg -158 108 cds1 \$1;
#X msg -104 153 cds2 \$1;
#X msg -30 156 joyX \$1;
#X msg 41 156 joyY \$1;
#X obj 145 223 pack f f f;
#X obj 144 281 expr atan($f1/sqrt(pow($f2 \, 2)+pow($f3 \, 2))), f
27;
#X floatatom 142 323 5 0 0 0 - - -;
#X floatatom 351 327 5 0 0 0 - - -;
#X obj 350 281 expr atan($f2/sqrt(pow($f1 \, 2)+pow($f3 \, 2))), f
27;
#X floatatom 549 326 5 0 0 0 - - -;
#X obj 548 280 expr atan($f3/sqrt(pow($f2 \, 2)+pow($f1 \, 2))), f
27;
#X text 38 285 calculate tilt;
#X obj 165 401 expr pow(pow($f1 \, 2)+pow($f2 \, 2)+pow($f3 \, 2) \,
0.25);
#X msg 190 323 tiltX \$1;
#X msg 395 326 tiltY \$1;
#X msg 597 326 tiltZ \$1;
#X msg 233 583 accelMag \$1;
#X obj 490 198 f;
#X floatatom 553 115 5 0 0 0 - - -;
#X obj 490 165 expr ($f1*$f3) + ($f2*$f4 );
#X floatatom 595 115 5 0 0 0 - - -;
#X obj 490 141 pack f f 2 0.7;
#X text 549 84 input gain, f 5;
#X text 593 84 leak rate, f 6;
#X msg 490 221 gyroX \$1;
#X obj 692 196 f;
#X obj 692 163 expr ($f1*$f3) + ($f2*$f4 );
#X obj 692 139 pack f f 2 0.7;
#X obj 897 195 f;
#X obj 897 162 expr ($f1*$f3) + ($f2*$f4 );
#X obj 897 138 pack f f 2 0.7;
#X msg 692 219 gyroY \$1;
#X msg 899 220 gyroZ \$1;
#X obj -205 210 outlet;
#X obj 16 467 outlet;
#X obj 798 288 outlet;
#X floatatom 842 222 5 0 0 0 - - -;
#X floatatom 641 221 5 0 0 0 - - -;
#X floatatom 444 221 5 0 0 0 - - -;
#X obj 166 456 -;
#X obj 234 549 f;
#X obj 234 492 pack f f 2 0.7;
#X floatatom 263 560 5 0 0 0 - - -;
#X floatatom 165 484 5 0 0 0 - - -;
#X obj 165 427 t f f;
#X obj 234 516 expr (abs($f1)*$f3) + ($f2*$f4 );
#X connect 0 0 10 0;
#X connect 0 1 2 0;
#X connect 0 1 5 0;
#X connect 2 0 18 0;
#X connect 2 1 18 1;
#X connect 2 2 18 2;
#X connect 2 3 35 0;
#X connect 2 4 41 0;
#X connect 2 5 44 0;
#X connect 3 0 16 0;
#X connect 4 0 17 0;
#X connect 5 0 3 0;
#X connect 5 1 4 0;
#X connect 6 0 12 0;
#X connect 7 0 13 0;
#X connect 8 0 14 0;
#X connect 9 0 15 0;
#X connect 10 0 11 0;
#X connect 10 1 7 0;
#X connect 10 2 8 0;
#X connect 10 3 9 0;
#X connect 11 0 6 0;
#X connect 12 0 47 0;
#X connect 13 0 47 0;
#X connect 14 0 47 0;
#X connect 15 0 47 0;
#X connect 16 0 47 0;
#X connect 17 0 47 0;
#X connect 18 0 19 0;
#X connect 18 0 22 0;
#X connect 18 0 24 0;
#X connect 18 0 26 0;
#X connect 19 0 20 0;
#X connect 19 0 27 0;
#X connect 22 0 21 0;
#X connect 22 0 28 0;
#X connect 24 0 23 0;
#X connect 24 0 29 0;
#X connect 26 0 58 0;
#X connect 27 0 48 0;
#X connect 28 0 48 0;
#X connect 29 0 48 0;
#X connect 30 0 48 0;
#X connect 31 0 35 1;
#X connect 31 0 38 0;
#X connect 31 0 52 0;
#X connect 32 0 35 2;
#X connect 33 0 31 0;
#X connect 34 0 35 3;
#X connect 35 0 33 0;
#X connect 38 0 49 0;
#X connect 39 0 41 1;
#X connect 39 0 45 0;
#X connect 39 0 51 0;
#X connect 40 0 39 0;
#X connect 41 0 40 0;
#X connect 42 0 44 1;
#X connect 42 0 46 0;
#X connect 42 0 50 0;
#X connect 43 0 42 0;
#X connect 44 0 43 0;
#X connect 45 0 49 0;
#X connect 46 0 49 0;
#X connect 53 0 55 0;
#X connect 53 0 57 0;
#X connect 54 0 55 1;
#X connect 54 0 30 0;
#X connect 54 0 56 0;
#X connect 55 0 59 0;
#X connect 58 0 53 1;
#X connect 58 1 53 0;
#X connect 59 0 54 0;
