#N canvas 0 23 1425 855 10;
#X obj 109 147 hsl 128 15 0 127 0 1 \$0-wave-sampler-rate-s \$0-wave-sampler-rate-r
RATE 133 7 0 10 -262144 -1 -1 9400 1;
#X obj 109 177 hsl 128 15 0 127 0 1 \$0-wave-sampler-length-s \$0-wave-sampler-length-r
LENGTH 133 7 0 10 -262144 -1 -1 8700 1;
#X obj 224 192 tgl 15 1 \$0-wave-sampler-link-s \$0-wave-sampler-link-r
LINK 17 7 0 10 -262144 -1 -1 1 1;
#X obj 105 115 bng 15 50 50 0 empty empty empty 17 7 0 10 -262144 -226533
-1;
#X obj 105 40 threshold~ 0.9 0 0.9 0;
#X obj 105 139 cnv 5 5 5 empty empty WAVE-SAMPLER 0 0 0 12 -262144
-66577 0;
#X obj 155 109 cnv 5 5 5 empty empty RATE 0 0 0 8 -262144 -66577 0
;
#X obj 104 109 cnv 5 5 5 empty empty TRIG 0 0 0 8 -262144 -226533 0
;
#X obj 244 108 cnv 5 5 5 empty empty LENGTH 0 0 0 8 -262144 -66577
0;
#X obj 199 109 cnv 5 5 5 empty empty START 0 0 0 8 -262144 -66577 0
;
#N canvas 672 50 593 735 state-saving-multiple-instances 0;
#X obj 164 26 loadbang;
#X obj 210 479 textfile;
#X msg 491 462 rewind;
#X msg 448 462 bang;
#X obj 88 702 textfile;
#X obj 448 421 t b b;
#X obj 88 355 f;
#X obj 101 578 f;
#X obj 27 402 t b b b;
#X msg 163 573 clear;
#X obj 230 235 outlet;
#X text 272 237 INSTANCE NUMBER;
#X obj 191 200 t f f f;
#X obj 191 164 f \$1;
#X obj 164 59 t b b;
#X obj 27 378 bng 15 250 50 0 empty empty empty 17 7 0 10 -262144 -1
-1;
#X obj 27 234 r SAVE-S;
#X msg 88 436 set \$1 \$2 \$3 \$4;
#X obj 99 406 pack f f f f;
#X obj 210 501 unpack f f f f;
#X obj 222 45 r \$0-reload!;
#X obj 122 297 r \$0-wave-sampler-rate-s;
#X obj 130 319 r \$0-wave-sampler-start-s;
#X obj 148 341 r \$0-wave-sampler-length-s;
#X obj 177 368 r \$0-wave-sampler-link-s;
#X msg 210 454 read statesave/\$1-wave-sampler-ss.txt;
#X msg 101 668 write statesave/\$1-wave-sampler-ss.txt;
#X obj 223 631 s \$0-wave-sampler-rate-r;
#X obj 242 597 s \$0-wave-sampler-start-r;
#X obj 261 561 s \$0-wave-sampler-length-r;
#X obj 286 530 s \$0-wave-sampler-link-r;
#X connect 0 0 14 0;
#X connect 1 0 19 0;
#X connect 2 0 1 0;
#X connect 3 0 1 0;
#X connect 5 0 3 0;
#X connect 5 1 2 0;
#X connect 6 0 18 0;
#X connect 7 0 26 0;
#X connect 8 0 7 0;
#X connect 8 1 6 0;
#X connect 8 2 9 0;
#X connect 9 0 4 0;
#X connect 12 0 7 1;
#X connect 12 1 25 0;
#X connect 12 2 10 0;
#X connect 13 0 12 0;
#X connect 14 0 5 0;
#X connect 14 1 13 0;
#X connect 15 0 8 0;
#X connect 16 0 15 0;
#X connect 17 0 4 0;
#X connect 18 0 17 0;
#X connect 19 0 27 0;
#X connect 19 1 28 0;
#X connect 19 2 29 0;
#X connect 19 3 30 0;
#X connect 20 0 14 0;
#X connect 21 0 6 1;
#X connect 22 0 18 1;
#X connect 23 0 18 2;
#X connect 24 0 18 3;
#X connect 25 0 1 0;
#X connect 26 0 4 0;
#X restore 19 650 pd state-saving-multiple-instances;
#X obj 19 723 s \$0-instance-num;
#X obj 19 675 makefilename %d;
#X msg 19 700 label \$1;
#N canvas 81 23 1117 745 state-saving-via-preset-manager-module 0;
#X obj 477 349 textfile;
#X msg 788 323 rewind;
#X msg 745 323 bang;
#X obj 243 690 textfile;
#X obj 745 284 t b b;
#X obj 244 356 f;
#X obj 257 579 f;
#X obj 190 474 t b b b;
#X msg 373 621 clear;
#X obj 244 180 delay 5;
#X obj 190 529 delay 10;
#X msg 190 314 bang;
#X obj 190 155 r STORE-S!;
#X obj 477 250 f;
#X obj 450 207 t b b;
#X obj 465 171 t b f;
#X obj 522 268 f \$1;
#X obj 477 295 pack f f;
#X obj 522 218 loadbang;
#X obj 257 609 pack f f;
#X obj 302 562 loadbang;
#X obj 302 584 f \$1;
#X obj 465 122 r preset-manager-scan;
#X obj 272 540 r preset-manager-store-slot;
#X obj 465 144 i;
#X obj 244 423 pack f f f f;
#X msg 243 490 set \$1 \$2 \$3 \$4;
#X obj 477 371 unpack f f f f;
#N canvas 0 22 1069 747 morph-parameters 0;
#X obj 176 94 inlet;
#X obj 176 236 pack f f;
#X obj 176 261 line;
#X obj 209 117 r preset-manager-morph-s;
#X msg 72 244 stop;
#X obj 72 214 r STOP-MORPH!;
#X obj 209 206 spigot;
#X obj 398 137 t f f;
#X obj 455 154 == 0;
#X obj 221 176 f;
#X floatatom 455 222 5 0 0 0 - - -;
#X obj 398 159 t b f;
#X floatatom 425 192 5 0 0 0 - - -;
#X obj 209 139 t f f;
#X obj 398 102 r parameters-s;
#X obj 176 288 outlet;
#X connect 0 0 1 0;
#X connect 1 0 2 0;
#X connect 2 0 15 0;
#X connect 3 0 13 0;
#X connect 4 0 2 0;
#X connect 5 0 4 0;
#X connect 6 0 1 1;
#X connect 7 0 11 0;
#X connect 7 1 8 0;
#X connect 8 0 10 0;
#X connect 9 0 6 0;
#X connect 10 0 1 1;
#X connect 11 0 9 0;
#X connect 11 1 12 0;
#X connect 12 0 6 1;
#X connect 13 0 6 0;
#X connect 13 1 9 1;
#X connect 14 0 7 0;
#X restore 500 470 pd morph-parameters;
#N canvas 0 22 1069 747 morph-frequencies 0;
#X obj 176 94 inlet;
#X obj 176 236 pack f f;
#X obj 176 261 line;
#X obj 209 117 r preset-manager-morph-s;
#X msg 72 244 stop;
#X obj 72 214 r STOP-MORPH!;
#X obj 398 102 r frequencies-s;
#X obj 209 206 spigot;
#X obj 398 137 t f f;
#X obj 455 154 == 0;
#X obj 221 176 f;
#X floatatom 455 222 5 0 0 0 - - -;
#X obj 398 159 t b f;
#X floatatom 425 192 5 0 0 0 - - -;
#X obj 209 139 t f f;
#X obj 176 283 outlet;
#X connect 0 0 1 0;
#X connect 1 0 2 0;
#X connect 2 0 15 0;
#X connect 3 0 14 0;
#X connect 4 0 2 0;
#X connect 5 0 4 0;
#X connect 6 0 8 0;
#X connect 7 0 1 1;
#X connect 8 0 12 0;
#X connect 8 1 9 0;
#X connect 9 0 11 0;
#X connect 10 0 7 0;
#X connect 11 0 1 1;
#X connect 12 0 10 0;
#X connect 12 1 13 0;
#X connect 13 0 7 1;
#X connect 14 0 7 0;
#X connect 14 1 10 1;
#X restore 478 526 pd morph-frequencies;
#X msg 477 324 read statesave/\$1-\$2-wave-sampler-ss.txt;
#X msg 256 650 write statesave/\$1-\$2-wave-sampler-ss.txt;
#X obj 259 308 r \$0-wave-sampler-rate-s;
#X obj 267 330 r \$0-wave-sampler-start-s;
#X obj 290 352 r \$0-wave-sampler-length-s;
#X obj 314 379 r \$0-wave-sampler-link-s;
#X obj 479 548 s \$0-wave-sampler-rate-r;
#X obj 499 496 s \$0-wave-sampler-start-r;
#X obj 529 445 s \$0-wave-sampler-length-r;
#X obj 670 418 s \$0-wave-sampler-link-r;
#N canvas 0 22 1069 747 morph-parameters 0;
#X obj 176 94 inlet;
#X obj 176 236 pack f f;
#X obj 176 261 line;
#X obj 209 117 r preset-manager-morph-s;
#X msg 72 244 stop;
#X obj 72 214 r STOP-MORPH!;
#X obj 209 206 spigot;
#X obj 398 137 t f f;
#X obj 455 154 == 0;
#X obj 221 176 f;
#X floatatom 455 222 5 0 0 0 - - -;
#X obj 398 159 t b f;
#X floatatom 425 192 5 0 0 0 - - -;
#X obj 209 139 t f f;
#X obj 398 102 r parameters-s;
#X obj 176 288 outlet;
#X connect 0 0 1 0;
#X connect 1 0 2 0;
#X connect 2 0 15 0;
#X connect 3 0 13 0;
#X connect 4 0 2 0;
#X connect 5 0 4 0;
#X connect 6 0 1 1;
#X connect 7 0 11 0;
#X connect 7 1 8 0;
#X connect 8 0 10 0;
#X connect 9 0 6 0;
#X connect 10 0 1 1;
#X connect 11 0 9 0;
#X connect 11 1 12 0;
#X connect 12 0 6 1;
#X connect 13 0 6 0;
#X connect 13 1 9 1;
#X connect 14 0 7 0;
#X restore 529 420 pd morph-parameters;
#X connect 0 0 27 0;
#X connect 1 0 0 0;
#X connect 2 0 0 0;
#X connect 4 0 2 0;
#X connect 4 1 1 0;
#X connect 5 0 25 0;
#X connect 6 0 19 0;
#X connect 7 0 10 0;
#X connect 7 1 9 0;
#X connect 7 2 8 0;
#X connect 8 0 3 0;
#X connect 9 0 5 0;
#X connect 10 0 6 0;
#X connect 11 0 7 0;
#X connect 12 0 11 0;
#X connect 13 0 17 0;
#X connect 14 0 4 0;
#X connect 14 1 13 0;
#X connect 15 0 14 0;
#X connect 15 1 13 1;
#X connect 16 0 17 1;
#X connect 17 0 30 0;
#X connect 18 0 16 0;
#X connect 19 0 31 0;
#X connect 20 0 21 0;
#X connect 21 0 19 1;
#X connect 22 0 24 0;
#X connect 23 0 6 1;
#X connect 24 0 15 0;
#X connect 25 0 26 0;
#X connect 26 0 3 0;
#X connect 27 0 29 0;
#X connect 27 1 28 0;
#X connect 27 2 40 0;
#X connect 27 3 39 0;
#X connect 28 0 37 0;
#X connect 29 0 36 0;
#X connect 30 0 0 0;
#X connect 31 0 3 0;
#X connect 32 0 5 1;
#X connect 33 0 25 1;
#X connect 34 0 25 2;
#X connect 35 0 25 3;
#X connect 40 0 38 0;
#X restore 20 626 pd state-saving-via-preset-manager-module;
#N canvas 297 27 563 235 parameter-nudging-system 0;
#X obj 23 67 clip 0 127;
#X obj 182 67 clip 0 127;
#X obj 351 69 clip 0 127;
#X obj 23 22 r \$0-sample-player-file-s;
#X obj 23 95 s \$0-sample-player-file-r;
#X obj 182 22 r \$0-sample-player-pitch-s;
#X obj 182 95 s \$0-sample-player-pitch-r;
#X obj 351 22 r \$0-sample-player-loop-s;
#X obj 351 95 s \$0-sample-player-loop-r;
#N canvas 0 22 484 497 param-nudge 0;
#X obj 124 234 random;
#X obj 232 335 f;
#X obj 232 368 +;
#X obj 257 166 random 2;
#X obj 124 275 t f f;
#X obj 124 351 t b f;
#X obj 124 297 *;
#X obj 257 188 sel 0 1;
#X msg 257 280 -1;
#X msg 335 280 1;
#X obj 124 149 t b b b;
#X obj 124 123 r NUDGE!;
#X obj 157 193 r NUDGE-RANGE;
#X obj 247 308 inlet;
#X obj 232 397 outlet;
#X floatatom 316 396 5 0 0 0 - - -;
#X connect 0 0 4 0;
#X connect 1 0 2 0;
#X connect 2 0 14 0;
#X connect 2 0 15 0;
#X connect 3 0 7 0;
#X connect 4 0 6 0;
#X connect 5 0 2 0;
#X connect 5 1 2 1;
#X connect 6 0 5 0;
#X connect 7 0 8 0;
#X connect 7 1 9 0;
#X connect 8 0 6 1;
#X connect 9 0 6 1;
#X connect 10 0 0 0;
#X connect 10 1 1 0;
#X connect 10 2 3 0;
#X connect 11 0 10 0;
#X connect 12 0 0 1;
#X connect 13 0 1 1;
#X restore 23 144 pd param-nudge;
#X obj 23 166 clip 0 127;
#X obj 23 121 r \$0-sample-player-pitch-cv-att-s;
#X obj 23 194 s \$0-sample-player-pitch-cv-att-r;
#N canvas 0 22 484 497 nudge-freq 0;
#X obj 124 234 random;
#X obj 232 335 f;
#X obj 232 368 +;
#X obj 257 166 random 2;
#X obj 124 275 t f f;
#X obj 124 351 t b f;
#X obj 124 297 *;
#X obj 257 188 sel 0 1;
#X msg 257 280 -1;
#X msg 335 280 1;
#X obj 124 149 t b b b;
#X obj 124 51 r NUDGE!;
#X obj 157 193 r NUDGE-RANGE;
#X obj 247 308 inlet;
#X obj 232 397 outlet;
#X obj 124 73 spigot;
#X obj 185 56 r frequencies2-s;
#X connect 0 0 4 0;
#X connect 1 0 2 0;
#X connect 2 0 14 0;
#X connect 3 0 7 0;
#X connect 4 0 6 0;
#X connect 5 0 2 0;
#X connect 5 1 2 1;
#X connect 6 0 5 0;
#X connect 7 0 8 0;
#X connect 7 1 9 0;
#X connect 8 0 6 1;
#X connect 9 0 6 1;
#X connect 10 0 0 0;
#X connect 10 1 1 0;
#X connect 10 2 3 0;
#X connect 11 0 15 0;
#X connect 12 0 0 1;
#X connect 13 0 1 1;
#X connect 15 0 10 0;
#X connect 16 0 15 1;
#X restore 182 44 pd nudge-freq;
#N canvas 0 22 484 497 nudge-parameters 0;
#X obj 124 234 random;
#X obj 232 335 f;
#X obj 232 368 +;
#X obj 257 166 random 2;
#X obj 124 275 t f f;
#X obj 124 351 t b f;
#X obj 124 297 *;
#X obj 257 188 sel 0 1;
#X msg 257 280 -1;
#X msg 335 280 1;
#X obj 124 149 t b b b;
#X obj 124 74 r NUDGE!;
#X obj 157 193 r NUDGE-RANGE;
#X obj 247 308 inlet;
#X obj 232 397 outlet;
#X obj 124 96 spigot;
#X obj 185 79 r parameters2-s;
#X connect 0 0 4 0;
#X connect 1 0 2 0;
#X connect 2 0 14 0;
#X connect 3 0 7 0;
#X connect 4 0 6 0;
#X connect 5 0 2 0;
#X connect 5 1 2 1;
#X connect 6 0 5 0;
#X connect 7 0 8 0;
#X connect 7 1 9 0;
#X connect 8 0 6 1;
#X connect 9 0 6 1;
#X connect 10 0 0 0;
#X connect 10 1 1 0;
#X connect 10 2 3 0;
#X connect 11 0 15 0;
#X connect 12 0 0 1;
#X connect 13 0 1 1;
#X connect 15 0 10 0;
#X connect 16 0 15 1;
#X restore 23 44 pd nudge-parameters;
#N canvas 0 22 484 497 nudge-attenuators 0;
#X obj 124 234 random;
#X obj 232 335 f;
#X obj 232 368 +;
#X obj 257 166 random 2;
#X obj 124 275 t f f;
#X obj 124 351 t b f;
#X obj 124 297 *;
#X obj 257 188 sel 0 1;
#X msg 257 280 -1;
#X msg 335 280 1;
#X obj 124 149 t b b b;
#X obj 124 71 r NUDGE!;
#X obj 157 193 r NUDGE-RANGE;
#X obj 247 308 inlet;
#X obj 232 397 outlet;
#X obj 124 93 spigot;
#X obj 201 76 r attenuators2-s;
#X connect 0 0 4 0;
#X connect 1 0 2 0;
#X connect 2 0 14 0;
#X connect 3 0 7 0;
#X connect 4 0 6 0;
#X connect 5 0 2 0;
#X connect 5 1 2 1;
#X connect 6 0 5 0;
#X connect 7 0 8 0;
#X connect 7 1 9 0;
#X connect 8 0 6 1;
#X connect 9 0 6 1;
#X connect 10 0 0 0;
#X connect 10 1 1 0;
#X connect 10 2 3 0;
#X connect 11 0 15 0;
#X connect 12 0 0 1;
#X connect 13 0 1 1;
#X connect 15 0 10 0;
#X connect 16 0 15 1;
#X restore 351 45 pd nudge-attenuators;
#X connect 0 0 4 0;
#X connect 1 0 6 0;
#X connect 2 0 8 0;
#X connect 3 0 14 0;
#X connect 5 0 13 0;
#X connect 7 0 15 0;
#X connect 9 0 10 0;
#X connect 10 0 12 0;
#X connect 11 0 9 0;
#X connect 13 0 1 0;
#X connect 14 0 0 0;
#X connect 15 0 2 0;
#X restore 21 601 pd parameter-nudging-system;
#X obj 428 546 outlet~ LEFT;
#X obj 107 270 cnv 5 5 5 empty empty LEFT 0 0 0 8 -262144 -66577 0
;
#X obj 105 62 t b b b;
#X obj 262 271 cnv 5 5 5 empty empty EOC 0 0 0 8 -262144 -226533 0
;
#X obj 109 162 hsl 128 15 0 127 0 1 \$0-wave-sampler-start-s \$0-wave-sampler-start-r
START 133 7 0 10 -262144 -1 -1 100 1;
#N canvas 632 73 749 752 external-messages 0;
#X obj 185 328 spigot;
#X obj 218 288 tgl 15 0 empty empty empty 17 7 0 10 -262144 -1 -1 0
1;
#X obj 254 272 ==;
#X obj 269 248 f \$1;
#X obj 269 224 loadbang;
#X msg 185 202 \$1 \$2;
#X msg 185 156 symbol \$1;
#X obj 185 180 pack s f;
#X obj 185 62 unpack s f f;
#X symbolatom 185 94 10 0 0 0 - - -;
#X obj 218 308 t f f;
#X obj 245 332 s \$0-msg-spigot;
#X floatatom 223 594 5 0 0 0 - - -;
#X obj 223 573 f;
#X obj 223 521 t b f;
#X obj 223 544 spigot;
#X obj 271 528 r \$0-msg-spigot;
#X floatatom 387 639 5 0 0 0 - - -;
#X obj 387 618 f;
#X obj 387 566 t b f;
#X obj 387 589 spigot;
#X obj 435 573 r \$0-msg-spigot;
#X floatatom 424 527 5 0 0 0 - - -;
#X obj 424 506 f;
#X obj 424 454 t b f;
#X obj 424 477 spigot;
#X obj 472 461 r \$0-msg-spigot;
#X floatatom 572 635 5 0 0 0 - - -;
#X obj 572 614 f;
#X obj 572 562 t b f;
#X obj 572 585 spigot;
#X obj 620 569 r \$0-msg-spigot;
#X obj 185 14 r wave-sampler;
#X obj 185 380 route READ RATE START LENGTH LINK, f 69;
#X obj 38 607 s \$0-wave-sampler-read-r;
#X obj 35 556 list prepend read;
#X obj 35 577 list trim;
#X obj 224 614 s \$0-wave-sampler-rate-r;
#X obj 37 495 spigot;
#X obj 85 479 r \$0-msg-spigot;
#X obj 37 524 symbol;
#X obj 37 472 t b s;
#X obj 388 659 s \$0-wave-sampler-start-r;
#X obj 424 547 s \$0-wave-sampler-length-r;
#X obj 572 655 s \$0-wave-sampler-link-r;
#X connect 0 0 33 0;
#X connect 1 0 10 0;
#X connect 2 0 1 0;
#X connect 3 0 2 1;
#X connect 4 0 3 0;
#X connect 5 0 0 0;
#X connect 6 0 7 0;
#X connect 7 0 5 0;
#X connect 8 0 9 0;
#X connect 8 1 7 1;
#X connect 8 2 2 0;
#X connect 9 0 6 0;
#X connect 10 0 0 1;
#X connect 10 1 11 0;
#X connect 12 0 37 0;
#X connect 13 0 12 0;
#X connect 14 0 15 0;
#X connect 14 1 13 1;
#X connect 15 0 13 0;
#X connect 16 0 15 1;
#X connect 17 0 42 0;
#X connect 18 0 17 0;
#X connect 19 0 20 0;
#X connect 19 1 18 1;
#X connect 20 0 18 0;
#X connect 21 0 20 1;
#X connect 22 0 43 0;
#X connect 23 0 22 0;
#X connect 24 0 25 0;
#X connect 24 1 23 1;
#X connect 25 0 23 0;
#X connect 26 0 25 1;
#X connect 27 0 44 0;
#X connect 28 0 27 0;
#X connect 29 0 30 0;
#X connect 29 1 28 1;
#X connect 30 0 28 0;
#X connect 31 0 30 1;
#X connect 32 0 8 0;
#X connect 33 0 41 0;
#X connect 33 1 14 0;
#X connect 33 2 19 0;
#X connect 33 3 24 0;
#X connect 33 4 29 0;
#X connect 35 0 36 0;
#X connect 36 0 34 0;
#X connect 38 0 40 0;
#X connect 39 0 38 1;
#X connect 40 0 35 0;
#X connect 41 0 38 0;
#X connect 41 1 40 1;
#X restore 22 575 pd external-messages;
#X obj 69 35 bng 15 250 50 0 \$0-sampler-triggui-s \$0-sampler-triggui-r
empty 17 7 0 10 -262144 -1 -1;
#X obj 533 37 inlet~ RATE;
#X obj 105 18 inlet~ fwd, f 33;
#X obj 787 -6 inlet~ START;
#X obj 1097 82 inlet~ LENGTH;
#X obj 342 106 soundfiler;
#X obj 265 117 bng 15 250 50 0 empty empty empty 17 7 0 10 -262144
-1 -1;
#X obj 345 -73 openpanel;
#N canvas 0 22 450 278 (subpatch) 0;
#X array \$0main 151047 float 2;
#X coords 0 1 151047 -1 170 53 1 0 0;
#X restore 107 210 graph;
#X floatatom 416 141 7 0 0 0 file_length_(ms) - -;
#N canvas 56 23 1384 855 wave~ 0;
#X obj 23 282 *~, f 12;
#X obj 35 461 *~, f 84;
#X floatatom 600 401 5 0 0 0 - - -;
#N canvas 429 213 1088 815 trapezoid 0;
#X obj 99 263 *~, f 16;
#X obj 192 154 -~;
#X obj 107 294 outlet~;
#X obj 108 51 inlet~;
#X obj 189 114 inlet~;
#X obj 290 122 inlet;
#X floatatom 290 141 5 0 0 0 - - -;
#X obj 191 183 clip~ 0 440;
#X obj 192 243 /~ 440;
#X obj 98 185 clip~ 0 440;
#X obj 99 245 /~ 440;
#X connect 0 0 2 0;
#X connect 1 0 7 0;
#X connect 3 0 9 0;
#X connect 3 0 1 1;
#X connect 4 0 1 0;
#X connect 5 0 6 0;
#X connect 6 0 7 2;
#X connect 6 0 8 1;
#X connect 6 0 9 2;
#X connect 6 0 10 1;
#X connect 7 0 8 0;
#X connect 8 0 0 1;
#X connect 9 0 10 0;
#X connect 10 0 0 0;
#X restore 533 432 pd trapezoid;
#X obj 537 252 *~ 1;
#X obj 89 243 inlet;
#X text 125 240 sample length;
#X text 527 44 length;
#X obj 147 35 inlet~;
#X obj 531 66 inlet~;
#X obj 35 481 outlet~;
#X obj 19 213 *~, f 13;
#X text 148 18 phasor;
#X obj 21 184 clip~ 0 1;
#X obj 532 180 lop~ 2;
#X obj 222 342 threshold~ 1.5 0 1.1 0;
#X obj 530 153 samphold~;
#X obj 579 118 expr~ $v1<1.5;
#X text 213 17 difference between wave instances is in scaling and
triggering of phasor, f 38;
#X obj 147 61 *~ 2;
#X obj 37 435 tabread4~ \$0main, f 32;
#X obj 650 268 outlet~;
#X obj 224 409 f;
#X obj 262 390 snapshot~;
#X obj 387 352 inlet~;
#X obj 223 366 t b b;
#X obj 654 241 -~;
#X obj 682 198 delwrite~ \$0trigSampleB 1;
#X obj 684 221 delread~ \$0trigSampleB 1;
#X connect 0 0 3 0;
#X connect 0 0 20 0;
#X connect 1 0 10 0;
#X connect 2 0 3 2;
#X connect 3 0 1 1;
#X connect 4 0 3 1;
#X connect 5 0 0 1;
#X connect 5 0 4 1;
#X connect 8 0 19 0;
#X connect 9 0 16 0;
#X connect 11 0 0 0;
#X connect 13 0 11 0;
#X connect 14 0 11 1;
#X connect 14 0 4 0;
#X connect 15 0 25 0;
#X connect 16 0 14 0;
#X connect 17 0 16 1;
#X connect 17 0 26 0;
#X connect 17 0 27 0;
#X connect 19 0 13 0;
#X connect 19 0 15 0;
#X connect 19 0 17 0;
#X connect 20 0 1 0;
#X connect 22 0 20 1;
#X connect 23 0 22 1;
#X connect 24 0 23 0;
#X connect 25 0 22 0;
#X connect 25 1 23 0;
#X connect 26 0 21 0;
#X connect 28 0 26 1;
#X restore 431 488 pd wave~;
#X f 31;
#X obj 454 280 expr 44100/$f1;
#X obj 459 417 phasor~;
#X obj 454 300 sig~;
#N canvas 689 160 760 723 rateCntl 0;
#X obj 31 269 *~, f 10;
#X obj 67 181 -~;
#X obj 31 247 *~;
#X obj 68 153 sig~;
#X msg 69 130 1;
#X obj 69 105 loadbang;
#X obj 33 293 outlet~;
#X obj 19 182 inlet~;
#X obj 162 142 inlet~;
#X text 164 125 rate;
#X text -20 160 sample length;
#X connect 0 0 6 0;
#X connect 1 0 2 1;
#X connect 2 0 0 0;
#X connect 3 0 1 0;
#X connect 4 0 3 0;
#X connect 5 0 4 0;
#X connect 7 0 2 0;
#X connect 8 0 0 1;
#X restore 454 372 pd rateCntl;
#X f 23;
#N canvas 56 23 1384 855 wave~ 0;
#X obj 23 282 *~, f 12;
#X obj 35 461 *~, f 84;
#X floatatom 600 401 5 0 0 0 - - -;
#N canvas 429 213 1088 815 trapezoid 0;
#X obj 99 263 *~, f 16;
#X obj 192 154 -~;
#X obj 107 294 outlet~;
#X obj 108 51 inlet~;
#X obj 189 114 inlet~;
#X obj 290 122 inlet;
#X floatatom 290 141 5 0 0 0 - - -;
#X obj 191 183 clip~ 0 440;
#X obj 192 243 /~ 440;
#X obj 98 185 clip~ 0 440;
#X obj 99 245 /~ 440;
#X connect 0 0 2 0;
#X connect 1 0 7 0;
#X connect 3 0 9 0;
#X connect 3 0 1 1;
#X connect 4 0 1 0;
#X connect 5 0 6 0;
#X connect 6 0 7 2;
#X connect 6 0 8 1;
#X connect 6 0 9 2;
#X connect 6 0 10 1;
#X connect 7 0 8 0;
#X connect 8 0 0 1;
#X connect 9 0 10 0;
#X connect 10 0 0 0;
#X restore 533 432 pd trapezoid;
#X obj 563 402 *~ 1;
#X obj 89 243 inlet;
#X text 125 240 sample length;
#X text 527 44 length;
#X obj 147 35 inlet~;
#X obj 531 66 inlet~;
#X obj 35 481 outlet~;
#X obj 19 213 *~, f 13;
#X text 148 18 phasor;
#X obj 21 184 clip~ 0 1;
#X obj 532 180 lop~ 2;
#X obj 224 409 f;
#X obj 530 153 samphold~;
#X text 213 17 difference between wave instances is in scaling and
triggering of phasor, f 38;
#X obj 147 61 *~ 2;
#X text 389 336 start time;
#X obj 147 84 -~ 1;
#X obj 223 345 threshold~ -0.5 0 -0.7 0;
#X obj 579 118 expr~ $v1<-0.5;
#X obj 37 435 tabread4~ \$0main, f 32;
#X obj 683 461 outlet~;
#X obj 262 390 snapshot~;
#X obj 387 352 inlet~;
#X obj 223 366 t b b;
#X obj 686 393 -~;
#X obj 714 350 delwrite~ \$0trigSampleA 1;
#X obj 716 373 delread~ \$0trigSampleA 1;
#X connect 0 0 3 0;
#X connect 0 0 23 0;
#X connect 1 0 10 0;
#X connect 2 0 3 2;
#X connect 3 0 1 1;
#X connect 4 0 3 1;
#X connect 5 0 0 1;
#X connect 5 0 4 1;
#X connect 8 0 18 0;
#X connect 9 0 16 0;
#X connect 11 0 0 0;
#X connect 13 0 11 0;
#X connect 14 0 11 1;
#X connect 14 0 4 0;
#X connect 15 0 23 1;
#X connect 16 0 14 0;
#X connect 18 0 20 0;
#X connect 20 0 13 0;
#X connect 20 0 21 0;
#X connect 20 0 22 0;
#X connect 21 0 27 0;
#X connect 22 0 16 1;
#X connect 22 0 29 0;
#X connect 22 0 28 0;
#X connect 23 0 1 0;
#X connect 25 0 15 1;
#X connect 26 0 25 0;
#X connect 27 0 15 0;
#X connect 27 1 25 0;
#X connect 28 0 24 0;
#X connect 30 0 28 1;
#X restore 744 494 pd wave~;
#X f 27;
#X text 209 116 load file;
#X msg 342 84 read -resize \$1 \$2;
#X obj 372 -18 symbol \$0main;
#X obj 345 -50 t s b;
#X obj 345 13 pack s s;
#X text 3 -35 load soundfile \, trigger sample (int with sample number)
;
#X obj 588 339 *~, f 17;
#X obj 688 157 loadbang;
#X obj 1047 173 expr~ 1/$v1;
#X obj 688 205 sig~;
#X obj 688 314 *~;
#X msg 688 184 1;
#X obj 768 240 samphold~, f 17;
#X obj 607 168 /~ 2;
#X msg 725 205 set 1;
#X obj 759 275 *~;
#X obj 849 158 sig~ 1;
#X obj 783 189 *~;
#X obj 776 94 loadbang;
#X msg 776 115 0;
#X msg 652 136 1;
#X obj 551 452 *~;
#X msg 419 323 0;
#X obj 770 550 outlet~ EOC;
#X obj 344 46 route read open link, f 26;
#X obj 608 190 +~;
#X obj 787 21 +~;
#X obj 1048 111 +~;
#X obj 474 85 > 0;
#X obj 475 9 r \$0-wave-sampler-link-s;
#X obj 651 -44 r \$0-wave-sampler-rate-s;
#X obj 874 -61 r \$0-wave-sampler-start-s;
#X obj 1048 33 r \$0-wave-sampler-length-s;
#X obj 479 -23 r \$0-wave-sampler-read-r;
#X obj 276 370 tgl 15 0 empty empty empty 17 7 0 10 -262144 -1 -1 1
1;
#X obj 277 390 metro 100;
#X obj 276 411 snapshot~;
#X floatatom 276 432 5 0 0 0 - - -;
#X obj 1048 54 / 127;
#X obj 873 -39 / 127;
#X obj 652 -23 expr ($f1/127)*2-1;
#X text 167 146 |;
#X floatatom 510 139 5 0 0 0 - - -;
#X obj 989 328 scope;
#X msg 872 -14 \$1 20;
#X obj 872 7 vline~;
#X msg 651 0 \$1 20;
#X obj 651 21 vline~;
#X msg 987 70 \$1 20;
#X obj 987 91 vline~;
#X obj 701 288 +~;
#X obj 781 161 == 0;
#X obj 1048 146 clip~ 0.0001 1;
#X obj 657 419 phasor~;
#N canvas 689 160 760 723 rateCntl 0;
#X obj 31 269 *~, f 10;
#X obj 67 181 -~;
#X obj 31 247 *~;
#X obj 68 153 sig~;
#X msg 69 130 1;
#X obj 69 105 loadbang;
#X obj 33 293 outlet~;
#X obj 19 182 inlet~;
#X obj 162 142 inlet~;
#X text 164 125 rate;
#X text -20 160 sample length;
#X connect 0 0 6 0;
#X connect 1 0 2 1;
#X connect 2 0 0 0;
#X connect 3 0 1 0;
#X connect 4 0 3 0;
#X connect 5 0 4 0;
#X connect 7 0 2 0;
#X connect 8 0 0 1;
#X restore 654 379 pd rateCntl;
#X f 23;
#X obj 788 346 *~, f 17;
#X obj 888 321 *~;
#X obj 939 273 *~;
#X obj 901 295 +~;
#X obj 945 240 samphold~, f 17;
#X obj 607 575 send~ \$0triggerA;
#X obj 895 549 send~ \$0triggerB;
#X obj 865 183 receive~ \$0triggerA;
#X obj 1057 223 receive~ \$0triggerB;
#X obj 500 670 bng 15 250 50 0 empty empty empty 17 7 0 10 -262144
-1 -1;
#X obj 504 630 threshold~ 0.5 20 0.5 20;
#X connect 3 0 60 0;
#X connect 4 0 18 0;
#X connect 10 0 12 0;
#X connect 12 0 13 0;
#X connect 13 0 11 0;
#X connect 18 0 3 0;
#X connect 22 0 3 0;
#X connect 22 0 18 0;
#X connect 23 0 51 0;
#X connect 24 0 4 0;
#X connect 24 1 62 0;
#X connect 25 0 64 0;
#X connect 26 0 65 1;
#X connect 27 0 31 0;
#X connect 28 0 29 0;
#X connect 29 0 41 0;
#X connect 31 0 32 0;
#X connect 31 0 33 0;
#X connect 31 0 37 0;
#X connect 31 0 59 1;
#X connect 32 0 16 0;
#X connect 32 1 61 0;
#X connect 32 1 98 0;
#X connect 32 1 103 0;
#X connect 33 0 35 0;
#X connect 34 0 32 1;
#X connect 35 0 36 0;
#X connect 35 0 92 0;
#X connect 36 0 34 0;
#X connect 37 0 16 0;
#X connect 37 1 61 0;
#X connect 37 1 99 0;
#X connect 37 1 103 0;
#X connect 39 0 27 0;
#X connect 40 0 42 1;
#X connect 41 0 42 0;
#X connect 41 1 40 0;
#X connect 42 0 39 0;
#X connect 44 0 36 1;
#X connect 45 0 49 0;
#X connect 45 0 52 0;
#X connect 46 0 50 0;
#X connect 46 0 97 0;
#X connect 47 0 48 0;
#X connect 47 0 94 0;
#X connect 48 0 44 1;
#X connect 49 0 47 0;
#X connect 50 0 53 0;
#X connect 51 0 63 0;
#X connect 52 0 50 0;
#X connect 53 0 88 1;
#X connect 54 0 55 1;
#X connect 55 0 88 0;
#X connect 55 0 96 0;
#X connect 56 0 57 0;
#X connect 56 0 58 0;
#X connect 57 0 89 0;
#X connect 58 0 51 0;
#X connect 59 0 37 2;
#X connect 59 0 32 2;
#X connect 60 0 34 1;
#X connect 60 0 91 1;
#X connect 62 0 39 0;
#X connect 62 1 28 0;
#X connect 62 2 66 0;
#X connect 63 0 44 0;
#X connect 63 0 93 0;
#X connect 64 0 59 0;
#X connect 65 0 90 0;
#X connect 66 0 53 1;
#X connect 66 0 89 0;
#X connect 66 0 95 1;
#X connect 67 0 66 0;
#X connect 68 0 78 0;
#X connect 69 0 77 0;
#X connect 70 0 76 0;
#X connect 71 0 62 0;
#X connect 72 0 73 0;
#X connect 73 0 74 0;
#X connect 74 0 75 0;
#X connect 76 0 86 0;
#X connect 77 0 82 0;
#X connect 78 0 84 0;
#X connect 82 0 83 0;
#X connect 83 0 64 1;
#X connect 84 0 85 0;
#X connect 85 0 63 1;
#X connect 86 0 87 0;
#X connect 87 0 65 0;
#X connect 88 0 48 1;
#X connect 89 0 55 0;
#X connect 90 0 46 0;
#X connect 90 0 32 3;
#X connect 90 0 37 3;
#X connect 91 0 37 1;
#X connect 92 0 91 0;
#X connect 93 0 92 1;
#X connect 94 0 93 1;
#X connect 95 0 96 1;
#X connect 96 0 94 1;
#X connect 97 0 95 0;
#X connect 100 0 50 1;
#X connect 100 0 81 0;
#X connect 101 0 97 1;
#X connect 103 0 60 0;
#X connect 103 0 102 0;
#X coords 0 -1 1 1 190 180 2 100 100;
