#N canvas 0 22 785 485 12;
#X obj 85 58 sendOSC;
#X obj 86 89 receiveOSC;
#X obj 68 166 print;
#X obj 113 166 list prepend set;
#X obj 113 189 list trim;
#X msg 113 212 mirror 12 13;
#X floatatom 86 10 5 0 0 0 - - -;
#X obj 86 35 oscformat mirror;
#X obj 193 115 route mirror;
#X floatatom 193 138 5 0 0 0 - - -;
#X msg 167 8 12 13;
#X obj 296 74 list prepend set;
#X obj 296 97 list trim;
#X msg 296 120 47 109 105 114 114 111 114 0 44 102 102 0 65 64 0 0
65 80 0 0;
#X connect 1 0 8 0;
#X connect 1 0 2 0;
#X connect 1 0 3 0;
#X connect 3 0 4 0;
#X connect 4 0 5 0;
#X connect 6 0 7 0;
#X connect 7 0 0 0;
#X connect 7 0 11 0;
#X connect 8 0 9 0;
#X connect 10 0 7 0;
#X connect 11 0 12 0;
#X connect 12 0 13 0;
