#N canvas 1797 6 1680 1006 12;
#X obj 25 206 receiveOSC;
#X obj 441 432 sendOSC, f 20;
#X msg 575 371 0;
#X obj 575 394 oscformat mirror;
#X obj 20 -22 vsl 30 128 1.27 127 0 0 empty empty V1 0 -9 0 10 -262144
-1 -1 25500 1;
#X obj 68 -22 vsl 30 128 1.27 127 0 0 empty empty V2 0 -9 0 10 -262144
-1 -1 12700 1;
#X obj 116 -22 vsl 30 128 1.27 127 0 0 empty empty V3 0 -9 0 10 -262144
-1 -1 22700 1;
#X obj 25 238 s incomingOSC;
#X obj 26 261 r incomingOSC;
#X obj 153 224 spigot;
#X obj 153 247 print;
#X obj 191 206 tgl 15 0 empty empty empty 17 7 0 10 -262144 -1 -1 0
1;
#X msg 443 305 0;
#X obj 443 328 oscformat cancel;
#X obj 14 428 keyGrid, f 19;
#X obj 14 455 oscformat keyDown;
#X obj 32 483 oscformat keyUp;
#X obj 14 505 s outgoingOSC;
#X obj 699 393 r outgoingOSC;
#X obj 577 327 r incomingOSC;
#X obj 577 350 route init;
#N canvas 0 22 1022 302 pitchReceives 0;
#X obj 143 25 r v1-pitch-s;
#X obj 235 26 r v2-pitch-s;
#X obj 327 27 r sub-pitch-s;
#X obj 38 25 r base-pitch-s;
#X msg 38 48 0 \$1;
#X obj 38 71 oscformat setPitch;
#X obj 38 94 s outgoingOSC;
#X msg 143 48 1 \$1;
#X msg 235 49 2 \$1;
#X msg 327 50 3 \$1;
#X obj 433 29 r synthDetune-s;
#X obj 423 53 oscformat synthDetune;
#X connect 0 0 7 0;
#X connect 1 0 8 0;
#X connect 2 0 9 0;
#X connect 3 0 4 0;
#X connect 4 0 5 0;
#X connect 5 0 6 0;
#X connect 7 0 5 0;
#X connect 8 0 5 0;
#X connect 9 0 5 0;
#X connect 10 0 11 0;
#X connect 11 0 6 0;
#X restore 14 535 pd pitchReceives;
#N canvas 171 246 1468 317 gains 0;
#X obj 23 18 inlet;
#X obj 100 17 inlet;
#X obj 177 17 inlet;
#X obj 254 16 inlet;
#X obj 331 16 inlet;
#X obj 540 11 inlet;
#X obj 620 13 inlet;
#X obj 697 12 inlet;
#X msg 540 34 VCA \$1 20;
#X msg 620 36 VCA \$1 21;
#X msg 697 35 VCA \$1 22;
#X msg 331 39 VCA \$1 25;
#X obj 429 12 inlet;
#X msg 429 35 MASTER \$1 2;
#X obj 483 103 s maestro4;
#X obj 426 101 s mixer;
#X msg 23 41 CH1 \$1 1;
#X msg 101 40 CH2 \$1 1;
#X msg 177 40 CH1 \$1 2;
#X msg 254 39 CH2 \$1 2;
#X connect 0 0 16 0;
#X connect 1 0 17 0;
#X connect 2 0 18 0;
#X connect 3 0 19 0;
#X connect 4 0 11 0;
#X connect 5 0 8 0;
#X connect 6 0 9 0;
#X connect 7 0 10 0;
#X connect 8 0 15 0;
#X connect 9 0 15 0;
#X connect 10 0 15 0;
#X connect 11 0 15 0;
#X connect 12 0 13 0;
#X connect 13 0 14 0;
#X connect 16 0 15 0;
#X connect 17 0 15 0;
#X connect 18 0 15 0;
#X connect 19 0 15 0;
#X restore 19 114 pd gains;
#X f 31;
#X obj 17 -61 cnv 15 155 20 empty empty MIXER 4 10 0 14 -203904 -66577
0;
#X obj 213 -21 vsl 32 128 1.27 127 1 0 empty empty MASTER 0 -9 0 10
-203904 -1 -1 17400 1;
#X obj 360 -59 cnv 15 225 20 empty empty sampler 4 10 0 10 -261682
-66577 0;
#X obj 16 174 cnv 15 320 20 empty empty MONITOR 4 10 0 14 -203904 -66577
0;
#X obj 167 428 r prog-synth-seq-s;
#X obj 167 451 oscformat progSynthSeq;
#X obj 26 284 capSenseMonitor;
#X obj 363 -17 hsl 128 15 0 127 0 0 envelope-s empty envelope -2 -8
0 10 -262144 -1 -1 2400 1;
#X obj 368 25 hsl 128 15 0 127 0 0 lfo_rate-s empty lfo_rate -2 -8
0 10 -262144 -1 -1 4500 1;
#X obj 368 62 hsl 128 15 0 127 0 0 FM-depth-s empty FM-depth -2 -8
0 10 -262144 -1 -1 24400 1;
#X obj 369 94 hsl 128 15 0 127 0 0 starlight-s empty starlight -2 -8
0 10 -262144 -1 -1 5600 1;
#X obj 377 134 hsl 128 15 0 127 0 0 pitch_range-s empty pitch_range
-2 -8 0 10 -262144 -1 -1 5900 1;
#X obj 374 173 hsl 128 15 0 127 0 0 filter_frequency-s empty filter_frequency
-2 -8 0 10 -262144 -1 -1 6500 1;
#X obj 698 -112 r filter_frequency-s;
#X obj 697 -62 r pitch_range-s;
#X obj 697 -12 r starlight-s;
#X obj 698 38 r FM-depth-s;
#X obj 698 88 r envelope-s;
#X obj 698 -88 oscformat filterFrequency;
#X obj 697 -39 oscformat pitchRange;
#X obj 697 11 oscformat starlight;
#X obj 698 61 oscformat FMDepth;
#X obj 698 111 oscformat envelope-s;
#X obj 672 135 s outgoingOSC;
#X obj 239 276 r incomingOSC;
#X obj 239 299 route param module;
#X obj 239 357 s;
#X obj 297 323 symbol;
#X obj 164 -22 vsl 30 128 1.27 127 0 0 empty empty V4 0 -9 0 10 -262144
-1 -1 11400 1;
#X obj 691 287 tgl 15 0 empty empty empty 17 7 0 10 -262144 -1 -1 1
1;
#X obj 691 307 metro 1000;
#X obj 691 264 loadbang;
#X msg 691 330 0;
#X obj 691 353 oscformat tick;
#X obj 50 -22 vsl 10 128 0 127 0 0 empty monitor1 empty 0 -9 0 10 -204786
-1 -1 0 1;
#X obj 98 -22 vsl 10 128 0 127 0 0 empty monitor2 empty 0 -9 0 10 -204786
-1 -1 0 1;
#X obj 146 -22 vsl 10 128 0 127 0 0 empty monitor3 empty 0 -9 0 10
-204786 -1 -1 0 1;
#X obj 194 -22 vsl 10 128 0 127 0 0 empty monitor4 empty 0 -9 0 10
-204786 -1 -1 0 1;
#X text 322 -21 slow;
#X text 496 -21 fast;
#X connect 0 0 9 0;
#X connect 0 0 7 0;
#X connect 2 0 3 0;
#X connect 3 0 1 0;
#X connect 3 0 1 1;
#X connect 4 0 22 0;
#X connect 5 0 22 1;
#X connect 6 0 22 2;
#X connect 8 0 29 0;
#X connect 9 0 10 0;
#X connect 11 0 9 1;
#X connect 12 0 13 0;
#X connect 13 0 1 0;
#X connect 14 0 15 0;
#X connect 14 1 16 0;
#X connect 15 0 17 0;
#X connect 16 0 17 0;
#X connect 18 0 1 0;
#X connect 19 0 20 0;
#X connect 20 0 2 0;
#X connect 24 0 22 5;
#X connect 27 0 28 0;
#X connect 28 0 17 0;
#X connect 36 0 41 0;
#X connect 37 0 42 0;
#X connect 38 0 43 0;
#X connect 39 0 44 0;
#X connect 39 0 46 0;
#X connect 40 0 45 0;
#X connect 41 0 46 0;
#X connect 42 0 46 0;
#X connect 43 0 46 0;
#X connect 44 0 46 0;
#X connect 45 0 46 0;
#X connect 47 0 48 0;
#X connect 48 0 49 0;
#X connect 48 1 50 0;
#X connect 50 0 49 1;
#X connect 51 0 22 3;
#X connect 52 0 53 0;
#X connect 53 0 55 0;
#X connect 54 0 52 0;
#X connect 55 0 56 0;
#X connect 56 0 1 0;
#X coords 0 0 0.5 0.5 0 0 0;
