#N canvas 0 3 1680 1006 12;
#X obj 25 206 receiveOSC;
#X obj 21 302 / 32;
#X obj 21 325 vsl 32 64 0 127 0 0 empty empty empty 0 -9 0 10 -262144
-1 -1 0 1;
#X obj 59 304 / 32;
#X obj 59 326 vsl 32 64 0 127 0 0 empty empty empty 0 -9 0 10 -262144
-1 -1 0 1;
#X obj 97 324 tgl 30 0 empty empty empty 17 7 0 10 -262144 -1 -1 0
1;
#X obj 441 307 tgl 15 0 empty empty empty 17 7 0 10 -262144 -1 -1 1
1;
#X obj 441 351 f;
#X obj 474 349 + 1;
#X obj 441 403 oscformat clock;
#X obj 441 442 sendOSC;
#X msg 575 371 0;
#X obj 575 394 oscformat mirror;
#X obj 309 375 s trigger;
#X floatatom 502 283 5 0 0 0 - - -;
#X obj 19 -22 vsl 15 128 1.27 127 1 0 empty empty BD 0 -9 0 10 -262144
-1 -1 0 1;
#X obj 38 -22 vsl 15 128 1.27 127 1 0 empty empty SD 0 -9 0 10 -262144
-1 -1 0 1;
#X obj 57 -22 vsl 15 128 1.27 127 1 0 empty empty HH 0 -9 0 10 -262144
-1 -1 0 1;
#X obj 25 238 s incomingOSC;
#X obj 26 261 r incomingOSC;
#X obj 310 314 r incomingOSC;
#X obj 127 324 tgl 30 0 empty empty empty 17 7 0 10 -262144 -1 -1 0
1;
#X obj 157 324 tgl 30 0 empty empty empty 17 7 0 10 -262144 -1 -1 0
1;
#X obj 187 324 tgl 30 0 empty empty empty 17 7 0 10 -262144 -1 -1 0
1;
#X obj 153 224 spigot;
#X obj 153 247 print;
#X obj 191 206 tgl 15 0 empty empty empty 17 7 0 10 -262144 -1 -1 0
1;
#X obj 21 281 route pot0 pot1 sw0 sw1 sw2 sw3 module param;
#X obj 250 304 symbol;
#X obj 232 329 s;
#X msg 414 211 0;
#X obj 414 234 oscformat cancel;
#X obj 391 -47 tgl 15 0 dr1_en_decay-s dr1_en_decay-r env 0 -5 0 8
-261234 -1 -1 0 1;
#X obj 409 -47 tgl 15 0 dr1_en_tone-s dr1_en_tone-r ton 0 -5 0 8 -204786
-1 -1 0 1;
#X obj 427 -47 tgl 15 0 dr2_en_decay-s dr2_en_decay-r env 0 -5 0 8
-261234 -1 -1 0 1;
#X obj 445 -47 tgl 15 0 dr2_en_tone-s dr2_en_tone-r ton 0 -5 0 8 -204786
-1 -1 0 1;
#X obj 463 -47 tgl 15 0 dr3_en_decay-s dr3_en_decay-r env 0 -5 0 8
-261234 -1 -1 0 1;
#X obj 481 -47 tgl 15 0 dr3_en_tone-s dr3_en_tone-r ton 0 -5 0 8 -204786
-1 -1 0 1;
#X obj 503 -47 tgl 15 0 synth_en_decay-s synth_en_decay-r env 0 -5
0 8 -261234 -1 -1 0 1;
#X obj 521 -47 tgl 15 0 synth_en_tone-s synth_en_tone-r ton 0 -5 0
8 -204786 -1 -1 0 1;
#X obj 542 -47 tgl 15 0 sampler_en_decay-s sampler_en_decay-r env 0
-5 0 8 -261234 -1 -1 0 1;
#X obj 560 -47 tgl 15 0 sampler_en_tone-s sampler_en_tone-r ton 0 -5
0 8 -204786 -1 -1 0 1;
#X obj 391 -29 tgl 15 0 dr1_en_decay-s2 dr1_en_decay-r2 drum1 5 -30
0 8 -261234 -1 -258113 0 1;
#X obj 409 -29 tgl 15 0 dr1_en_tone-s2 dr1_en_tone-r2 empty 0 -5 0
8 -204786 -1 -1 0 1;
#X obj 427 -29 tgl 15 0 dr2_en_decay-s2 dr2_en_decay-r2 drum2 5 -30
0 8 -261234 -1 -258113 0 1;
#X obj 445 -29 tgl 15 0 dr2_en_tone-s2 dr2_en_tone-r2 empty 0 -5 0
8 -204786 -1 -1 0 1;
#X obj 463 -29 tgl 15 0 dr3_en_decay-s2 dr3_en_decay-r2 drum3 5 -30
0 8 -261234 -1 -258113 0 1;
#X obj 481 -29 tgl 15 0 dr3_en_tone-s2 dr3_en_tone-r2 empty 0 -5 0
8 -204786 -1 -1 0 1;
#X obj 503 -29 tgl 15 0 synth_en_decay-s2 synth_en_decay-r2 synth 2
-30 0 8 -261234 -1 -258113 0 1;
#X obj 521 -29 tgl 15 0 synth_en_tone-s2 synth_en_tone-r2 empty 0 -5
0 8 -204786 -1 -1 0 1;
#X obj 542 -29 tgl 15 0 sampler_en_decay-s2 sampler_en_decay-r2 sampler
0 -30 0 8 -261234 -1 -258113 0 1;
#X obj 560 -29 tgl 15 0 sampler_en_tone-s2 sampler_en_tone-r2 empty
0 -5 0 8 -204786 -1 -1 0 1;
#X obj 391 -11 tgl 15 0 dr1_en_decay-s3 dr1_en_decay-r3 empty 0 -5
0 8 -261234 -1 -1 0 1;
#X obj 409 -11 tgl 15 0 dr1_en_tone-s3 dr1_en_tone-r3 empty 0 -5 0
8 -204786 -1 -1 0 1;
#X obj 427 -11 tgl 15 0 dr2_en_decay-s3 dr2_en_decay-r3 empty 0 -5
0 8 -261234 -1 -1 0 1;
#X obj 445 -11 tgl 15 0 dr2_en_tone-s3 dr2_en_tone-r3 empty 0 -5 0
8 -204786 -1 -1 0 1;
#X obj 463 -11 tgl 15 0 dr3_en_decay-s3 dr3_en_decay-r3 empty 0 -5
0 8 -261234 -1 -1 0 1;
#X obj 481 -11 tgl 15 0 dr3_en_tone-s3 dr3_en_tone-r3 empty 0 -5 0
8 -204786 -1 -1 0 1;
#X obj 503 -11 tgl 15 0 synth_en_decay-s3 synth_en_decay-r3 empty 0
-5 0 8 -261234 -1 -1 0 1;
#X obj 521 -11 tgl 15 0 synth_en_tone-s3 synth_en_tone-r3 empty 0 -5
0 8 -204786 -1 -1 0 1;
#X obj 542 -11 tgl 15 0 sampler_en_decay-s3 sampler_en_decay-r3 empty
0 -5 0 8 -261234 -1 -1 0 1;
#X obj 560 -11 tgl 15 0 sampler_en_tone-s3 sampler_en_tone-r3 empty
0 -5 0 8 -204786 -1 -1 0 1;
#X text 351 -30 2:A- \;;
#X text 351 -12 3:Z-/;
#X text 351 -50 1:Q-P;
#N canvas 0 22 1680 1006 enableReceives 0;
#X obj 27 171 r dr1_en_decay-s;
#X msg 27 194 dr1 decay s1 \$1;
#X msg 391 193 dr2 tone s1 \$1;
#X msg 514 193 dr3 decay s1 \$1;
#X msg 634 192 dr3 tone s1 \$1;
#X obj 150 171 r dr1_en_tone-s;
#X obj 270 170 r dr2_en_decay-s;
#X obj 391 170 r dr2_en_tone-s;
#X obj 514 170 r dr3_en_decay-s;
#X obj 634 169 r dr3_en_tone-s;
#X obj 752 169 r synth_en_decay-s;
#X msg 752 192 synth decay s1 \$1;
#X obj 893 169 r synth_en_tone-s;
#X msg 893 192 synth tone s1 \$1;
#X obj 1028 169 r sampler_en_decay-s;
#X msg 1028 192 sampler decay s1 \$1;
#X obj 1174 167 r sampler_en_tone-s;
#X msg 1174 191 sampler tone s1 \$1;
#X obj 25 250 outlet;
#X obj 29 95 r dr1_en_decay-s2;
#X msg 27 118 dr1 decay s2 \$1;
#X obj 152 95 r dr1_en_tone-s2;
#X obj 272 94 r dr2_en_decay-s2;
#X msg 272 117 dr2 decay s2 \$1;
#X obj 393 94 r dr2_en_tone-s2;
#X msg 393 117 dr2 tone s2 \$1;
#X obj 516 94 r dr3_en_decay-s2;
#X msg 516 117 dr3 decay s2 \$1;
#X obj 636 93 r dr3_en_tone-s2;
#X msg 636 116 dr3 tone s2 \$1;
#X obj 754 93 r synth_en_decay-s2;
#X msg 754 116 synth decay s2 \$1;
#X obj 895 93 r synth_en_tone-s2;
#X msg 895 116 synth tone s2 \$1;
#X obj 1030 93 r sampler_en_decay-s2;
#X msg 1030 116 sampler decay s2 \$1;
#X obj 1187 93 r sampler_en_tone-s2;
#X msg 1187 117 sampler tone s2 \$1;
#X obj 34 -15 r dr1_en_decay-s3;
#X obj 157 -14 r dr1_en_tone-s3;
#X obj 277 -15 r dr2_en_decay-s3;
#X obj 398 -15 r dr2_en_tone-s3;
#X obj 521 -15 r dr3_en_decay-s3;
#X msg 398 8 dr2 tone s3 \$1;
#X msg 277 8 dr2 decay s3 \$1;
#X msg 156 9 dr1 tone s3 \$1;
#X msg 32 9 dr1 decay s3 \$1;
#X msg 521 8 dr3 decay s3 \$1;
#X msg 641 7 dr3 tone s3 \$1;
#X obj 641 -16 r dr3_en_tone-s3;
#X obj 759 -16 r synth_en_decay-s3;
#X obj 900 -16 r synth_en_tone-s3;
#X obj 1035 -16 r sampler_en_decay-s3;
#X obj 1192 -14 r sampler_en_tone-s3;
#X msg 1192 10 sampler tone s3 \$1;
#X msg 1035 7 sampler decay s3 \$1;
#X msg 900 7 synth tone s3 \$1;
#X msg 759 7 synth decay s3 \$1;
#X msg 152 118 dr1 tone s2 \$1;
#X msg 150 194 dr1 tone s1 \$1;
#X msg 270 193 dr2 decay s1 \$1;
#X connect 0 0 1 0;
#X connect 1 0 18 0;
#X connect 2 0 18 0;
#X connect 3 0 18 0;
#X connect 4 0 18 0;
#X connect 5 0 59 0;
#X connect 6 0 60 0;
#X connect 7 0 2 0;
#X connect 8 0 3 0;
#X connect 9 0 4 0;
#X connect 10 0 11 0;
#X connect 11 0 18 0;
#X connect 12 0 13 0;
#X connect 13 0 18 0;
#X connect 14 0 15 0;
#X connect 15 0 18 0;
#X connect 16 0 17 0;
#X connect 17 0 18 0;
#X connect 19 0 20 0;
#X connect 20 0 18 0;
#X connect 21 0 58 0;
#X connect 22 0 23 0;
#X connect 23 0 18 0;
#X connect 24 0 25 0;
#X connect 25 0 18 0;
#X connect 26 0 27 0;
#X connect 27 0 18 0;
#X connect 28 0 29 0;
#X connect 29 0 18 0;
#X connect 30 0 31 0;
#X connect 31 0 18 0;
#X connect 32 0 33 0;
#X connect 33 0 18 0;
#X connect 34 0 35 0;
#X connect 35 0 18 0;
#X connect 36 0 37 0;
#X connect 37 0 18 0;
#X connect 38 0 46 0;
#X connect 39 0 45 0;
#X connect 40 0 44 0;
#X connect 41 0 43 0;
#X connect 42 0 47 0;
#X connect 43 0 18 0;
#X connect 44 0 18 0;
#X connect 45 0 18 0;
#X connect 46 0 18 0;
#X connect 47 0 18 0;
#X connect 48 0 18 0;
#X connect 49 0 48 0;
#X connect 50 0 57 0;
#X connect 51 0 56 0;
#X connect 52 0 55 0;
#X connect 53 0 54 0;
#X connect 54 0 18 0;
#X connect 55 0 18 0;
#X connect 56 0 18 0;
#X connect 57 0 18 0;
#X connect 58 0 18 0;
#X connect 59 0 18 0;
#X connect 60 0 18 0;
#X restore 15 558 pd enableReceives;
#X obj 15 581 s enableToggles;
#X obj 752 264 r enableToggles;
#X obj 752 342 oscformat enableToggles;
#X obj 14 428 keyGrid, f 19;
#X obj 14 455 oscformat keyDown;
#X obj 32 483 oscformat keyUp;
#X obj 14 505 s outgoingOSC;
#X obj 764 374 r outgoingOSC;
#X obj 752 287 list prepend 0;
#X obj 752 310 list trim;
#X obj 280 -23 tgl 30 0 empty drumEnable2-r HH 10 5 0 8 -261234 -1
-1 0 1;
#X obj 280 10 tgl 30 0 empty drumEnable1-r SD 10 5 0 8 -261234 -1 -1
0 1;
#X obj 280 43 tgl 30 0 empty drumEnable0-r BD 10 5 0 8 -261234 -1 -1
0 1;
#X obj 577 327 r incomingOSC;
#X obj 577 350 route init;
#X obj 502 305 clip 20 1000;
#X obj 620 -26 vsl 24 70 0 127 0 0 base-pitch-s base-pitch-r base 0
-9 0 10 -204786 -1 -1 0 1;
#X obj 667 -28 vradio 15 1 0 5 v2-pitch-s v2-pitch-s v2 0 -8 0 10 -262144
-1 -1 2;
#X obj 648 -28 vradio 15 1 0 5 v1-pitch-s v1-pitch-s v1 0 -8 0 10 -262144
-1 -1 3;
#X obj 686 -28 vradio 15 1 0 3 sub-pitch-s sub-pitch-s sub 0 -8 0 10
-262144 -1 -1 0;
#N canvas 0 22 1022 302 pitchReceives 0;
#X obj 143 25 r v1-pitch-s;
#X obj 235 26 r v2-pitch-s;
#X obj 327 27 r sub-pitch-s;
#X obj 38 25 r base-pitch-s;
#X msg 38 48 0 \$1;
#X obj 38 71 oscformat setPitch;
#X obj 38 94 s outgoingOSC;
#X msg 143 48 1 \$1;
#X msg 235 49 2 \$1;
#X msg 327 50 3 \$1;
#X obj 433 29 r synthDetune-s;
#X obj 423 53 oscformat synthDetune;
#X connect 0 0 7 0;
#X connect 1 0 8 0;
#X connect 2 0 9 0;
#X connect 3 0 4 0;
#X connect 4 0 5 0;
#X connect 5 0 6 0;
#X connect 7 0 5 0;
#X connect 8 0 5 0;
#X connect 9 0 5 0;
#X connect 10 0 11 0;
#X connect 11 0 6 0;
#X restore 14 535 pd pitchReceives;
#X obj 594 -26 vsl 16 70 0 127 0 0 synthDetune-s synthDetune-r detune
-7 -9 0 8 -261234 -1 -1 0 1;
#X floatatom 594 52 5 0 0 0 - - -;
#N canvas 171 246 1468 317 gains 0;
#X obj 23 18 inlet;
#X msg 23 41 VCA \$1 30;
#X obj 426 101 s vca;
#X obj 100 17 inlet;
#X obj 177 17 inlet;
#X obj 254 16 inlet;
#X obj 331 16 inlet;
#X obj 540 11 inlet;
#X obj 620 13 inlet;
#X obj 697 12 inlet;
#X msg 101 40 VCA \$1 31;
#X msg 177 40 VCA \$1 32;
#X msg 540 34 VCA \$1 20;
#X msg 620 36 VCA \$1 21;
#X msg 697 35 VCA \$1 22;
#X msg 254 39 VCA \$1 26;
#X msg 331 39 VCA \$1 25;
#X obj 429 12 inlet;
#X msg 429 35 MASTER \$1 2;
#X obj 483 103 s maestro4;
#X connect 0 0 1 0;
#X connect 1 0 2 0;
#X connect 3 0 10 0;
#X connect 4 0 11 0;
#X connect 5 0 15 0;
#X connect 6 0 16 0;
#X connect 7 0 12 0;
#X connect 8 0 13 0;
#X connect 9 0 14 0;
#X connect 10 0 2 0;
#X connect 11 0 2 0;
#X connect 12 0 2 0;
#X connect 13 0 2 0;
#X connect 14 0 2 0;
#X connect 15 0 2 0;
#X connect 16 0 2 0;
#X connect 17 0 18 0;
#X connect 18 0 19 0;
#X restore 19 114 pd gains;
#X f 31;
#X obj 81 -22 vsl 24 128 1.27 127 1 0 empty empty SYN 0 -9 0 10 -262144
-1 -1 0 1;
#X obj 107 -22 vsl 24 128 1.27 127 1 0 empty empty SAMP 0 -9 0 10 -262144
-1 -1 0 1;
#X obj 183 -21 vsl 15 128 1.27 127 1 0 empty empty DR 0 -9 0 10 -204786
-1 -1 0 1;
#X obj 203 -21 vsl 15 128 1.27 127 1 0 empty empty SYN 0 -9 0 10 -204786
-1 -1 0 1;
#X obj 223 -21 vsl 15 128 1.27 127 1 0 empty empty SAM 0 -9 0 10 -204786
-1 -1 0 1;
#X obj 17 -61 cnv 15 155 20 empty empty MIXER 4 10 0 14 -203904 -66577
0;
#X obj 180 -61 cnv 15 60 20 empty empty reverb 4 10 0 14 -204786 -66577
0;
#X obj 259 -59 cnv 15 70 20 empty empty drumEnable 4 10 0 10 -261234
-66577 0;
#X obj 336 -11 bng 15 250 50 0 empty tr-fbk-r0 empty 17 7 0 10 -262144
-99865 -1;
#X obj 336 -29 bng 15 250 50 0 empty tr-fbk-r1 empty 17 7 0 10 -262144
-99865 -1;
#X obj 336 -47 bng 15 250 50 0 empty tr-fbk-r2 empty 17 7 0 10 -262144
-99865 -1;
#X obj 339 40 bng 15 250 50 0 loadSample-s empty LOAD_SAMPLE 17 7 0
10 -262144 -1 -1;
#X obj 139 -22 vsl 32 128 1.27 127 1 0 empty empty MASTER 0 -9 0 10
-203904 -1 -1 0 1;
#X obj 434 68 hsl 128 15 0 127 0 0 empty empty sampler_rate -2 -5 0
8 -262144 -1 -1 0 1;
#X obj 435 96 hsl 128 15 0 127 0 0 empty empty sampler_length -2 -5
0 8 -262144 -1 -1 0 1;
#N canvas 665 75 687 300 sampler 0;
#X obj 15 10 inlet;
#X msg 15 33 RATE \$1 1;
#X obj 13 106 s wave-sampler;
#X obj 104 7 inlet;
#X msg 104 66 LENGTH \$1 1;
#X obj 104 30 / 2;
#X obj 211 39 inlet;
#X msg 211 85 D \$1 5;
#X obj 211 108 s decay;
#X obj 211 62 expr $f1 * 0.9 + 5;
#X connect 0 0 1 0;
#X connect 1 0 2 0;
#X connect 3 0 5 0;
#X connect 4 0 2 0;
#X connect 5 0 4 0;
#X connect 6 0 9 0;
#X connect 7 0 8 0;
#X connect 9 0 7 0;
#X restore 412 119 pd sampler;
#X obj 433 44 hsl 128 15 0 127 0 0 empty empty sampler_decay -2 -5
0 8 -262144 -1 -1 0 1;
#X obj 336 13 cnv 15 225 20 empty empty sampler 4 10 0 10 -261682 -66577
0;
#X obj 591 -65 cnv 15 110 20 empty empty synth 4 10 0 10 -261682 -66577
0;
#X obj 16 174 cnv 15 320 20 empty empty MONITOR 4 10 0 14 -203904 -66577
0;
#X obj 310 345 route trigger;
#X obj 437 262 loadbang;
#X msg 437 285 1;
#X obj 556 219 r tempo;
#X obj 595 81 tgl 30 0 prog-synth-seq-s empty program_synth_sequence
32 12 0 10 -203904 -1 -4160 0 1;
#X obj 167 428 r prog-synth-seq-s;
#X obj 167 451 oscformat progSynthSeq;
#X obj 600 124 hsl 90 10 0 127 0 0 empty empty synth_amp_sensitivity
-2 -5 0 8 -262144 -1 -1 0 1;
#X obj 607 146 hsl 90 10 0 127 0 0 empty empty synth_amp_decay -2 -5
0 8 -262144 -1 -1 0 1;
#N canvas 0 22 960 477 synthAmpSensitivity 0;
#X obj 49 32 inlet;
#X obj 37 127 oscformat synthAmpSensitivity;
#X obj 37 152 s outgoingOSC;
#X obj 36 103 pack f f;
#X obj 109 63 t b f;
#X obj 104 28 inlet;
#X connect 0 0 3 0;
#X connect 1 0 2 0;
#X connect 3 0 1 0;
#X connect 4 0 3 0;
#X connect 4 1 3 1;
#X connect 5 0 4 0;
#X restore 596 163 pd synthAmpSensitivity;
#X text 336 55 load sample7;
#X obj 258 78 cnv 15 70 20 empty empty tempo 4 10 0 10 -261234 -66577
0;
#X obj 263 112 hsl 64 15 0 127 0 0 tempo tempo-r tempo -2 -8 0 10 -261234
-1 -1 7144 1;
#X obj 556 242 expr pow($f1/127 \, 2)*400 + 50;
#X obj 441 327 metro 140;
#X floatatom 716 184 5 0 0 0 synth_amp curSynthGain -;
#X obj 725 467 loadbang;
#X obj 725 490 delay 1000;
#X obj 705 493 bng 15 250 50 0 empty empty empty 17 7 0 10 -262144
-1 -1;
#X obj 725 561 s tempo-r;
#X floatatom 680 562 5 0 0 0 - - -;
#X obj 725 513 random 25;
#X obj 725 536 + 50;
#X text 677 440 choose a random tempo on load;
#X msg 441 372 0;
#X obj 227 210 r incomingOSC;
#X obj 227 233 IMUmonitor;
#X obj 930 310 tgl 15 0 empty empty empty 17 7 0 10 -262144 -1 -1 1
1;
#X obj 930 329 metro 1000;
#X obj 930 286 loadbang;
#X msg 930 352 0;
#X obj 930 375 oscformat tick;
#X obj 352 424 s globalClock;
#X connect 0 0 24 0;
#X connect 0 0 18 0;
#X connect 1 0 2 0;
#X connect 3 0 4 0;
#X connect 6 0 124 0;
#X connect 7 0 8 0;
#X connect 7 0 134 0;
#X connect 7 0 142 0;
#X connect 8 0 7 1;
#X connect 9 0 10 0;
#X connect 11 0 12 0;
#X connect 12 0 10 0;
#X connect 12 0 10 1;
#X connect 14 0 81 0;
#X connect 15 0 89 0;
#X connect 16 0 89 1;
#X connect 17 0 89 2;
#X connect 19 0 27 0;
#X connect 20 0 110 0;
#X connect 24 0 25 0;
#X connect 26 0 24 1;
#X connect 27 0 1 0;
#X connect 27 1 3 0;
#X connect 27 2 5 0;
#X connect 27 3 21 0;
#X connect 27 4 22 0;
#X connect 27 5 23 0;
#X connect 27 6 28 0;
#X connect 27 7 29 0;
#X connect 28 0 29 1;
#X connect 30 0 31 0;
#X connect 31 0 10 0;
#X connect 65 0 66 0;
#X connect 67 0 74 0;
#X connect 68 0 10 0;
#X connect 69 0 70 0;
#X connect 69 1 71 0;
#X connect 70 0 72 0;
#X connect 71 0 72 0;
#X connect 73 0 10 0;
#X connect 74 0 75 0;
#X connect 75 0 68 0;
#X connect 79 0 80 0;
#X connect 80 0 11 0;
#X connect 81 0 124 1;
#X connect 87 0 88 0;
#X connect 90 0 89 3;
#X connect 91 0 89 4;
#X connect 92 0 89 6;
#X connect 93 0 89 7;
#X connect 94 0 89 8;
#X connect 102 0 89 5;
#X connect 103 0 105 0;
#X connect 104 0 105 1;
#X connect 106 0 105 2;
#X connect 110 0 13 0;
#X connect 111 0 112 0;
#X connect 112 0 6 0;
#X connect 113 0 123 0;
#X connect 115 0 116 0;
#X connect 116 0 72 0;
#X connect 117 0 119 0;
#X connect 118 0 119 1;
#X connect 123 0 14 0;
#X connect 124 0 7 0;
#X connect 126 0 127 0;
#X connect 127 0 131 0;
#X connect 128 0 131 0;
#X connect 131 0 130 0;
#X connect 131 0 132 0;
#X connect 132 0 129 0;
#X connect 135 0 136 0;
#X connect 137 0 138 0;
#X connect 138 0 140 0;
#X connect 139 0 137 0;
#X connect 140 0 141 0;
#X connect 141 0 10 0;
#X coords 0 0 0.5 0.5 0 0 0;
