#N canvas 587 23 824 784 12;
#X obj 54 36 dataMonitoring;
#X obj 98 66 route testVal;
#X obj 155 89 unpack f f;
#X floatatom 155 112 5 0 0 0 - - -;
#X floatatom 209 112 5 0 0 0 - - -;
#X obj 98 159 vline~;
#X obj 97 281 dac~;
#X obj 168 165 print;
#X obj 97 197 osc~;
#X obj 149 197 tgl 15 0 empty empty empty 17 7 0 10 -262144 -1 -1 0
1;
#X obj 149 217 * 0.1;
#X obj 97 244 *~;
#X connect 0 1 1 0;
#X connect 1 0 2 0;
#X connect 1 0 5 0;
#X connect 1 0 7 0;
#X connect 2 0 3 0;
#X connect 2 1 4 0;
#X connect 5 0 8 0;
#X connect 8 0 11 0;
#X connect 9 0 10 0;
#X connect 10 0 11 1;
#X connect 11 0 6 0;
#X connect 11 0 6 1;
