#N canvas 322 23 958 1005 10;
#X obj 26 40 oscparse;
#X obj 558 253 netsend -u -b;
#X obj 658 91 oscformat pixel;
#X obj 566 92 oscformat red;
#X obj 445 92 oscformat green;
#X obj 342 93 oscformat blue;
#X floatatom 624 53 5 0 0 0 - - -;
#X floatatom 510 58 5 0 0 0 - - -;
#X floatatom 375 55 5 0 0 0 - - -;
#X floatatom 722 61 5 0 0 0 - - -;
#X obj 425 6 t b b b b;
#X obj 558 149 list prepend send;
#X obj 559 201 list trim;
#X obj 262 58 bng 15 250 50 0 empty empty empty 17 7 0 10 -262144 -1
-1;
#X msg 387 203 connect localhost 5006;
#X obj 26 18 netreceive -u -b 5005;
#X obj 383 169 loadbang;
#X obj 26 64 list trim;
#X obj 203 162 print;
#X obj 155 119 tgl 15 0 empty empty empty 17 7 0 10 -262144 -1 -1 4095
1;
#X obj 211 118 tgl 15 0 empty empty empty 17 7 0 10 -262144 -1 -1 4095
1;
#X floatatom 46 117 5 0 0 0 - - -;
#X floatatom 100 118 5 0 0 0 - - -;
#X obj 46 89 route analog0 analog1 button0 button1;
#X connect 0 0 17 0;
#X connect 2 0 11 0;
#X connect 3 0 11 0;
#X connect 4 0 11 0;
#X connect 5 0 11 0;
#X connect 6 0 3 0;
#X connect 7 0 4 0;
#X connect 8 0 5 0;
#X connect 9 0 2 0;
#X connect 10 0 8 0;
#X connect 10 1 7 0;
#X connect 10 2 6 0;
#X connect 10 3 9 0;
#X connect 11 0 12 0;
#X connect 12 0 1 0;
#X connect 13 0 10 0;
#X connect 14 0 1 0;
#X connect 15 0 0 0;
#X connect 16 0 14 0;
#X connect 17 0 23 0;
#X connect 23 0 21 0;
#X connect 23 1 22 0;
#X connect 23 2 19 0;
#X connect 23 3 20 0;
