#N canvas 0 0 1680 1028 12;
#X obj 72 31 vsl 45 128 0 127 0 0 empty empty potentiometer -15 -9
0 10 -262144 -1 -1 15500 1;
#X obj 152 157 vsl 10 64 0 127 0 0 empty empty R2 0 -9 0 10 -262144
-1 -1 7640 1;
#X obj 152 48 vsl 10 64 0 127 0 0 empty empty R1 0 -9 0 10 -262144
-1 -1 4960 1;
#X obj 142 16 expr 127-$f1;
#X floatatom 273 247 5 0 0 0 - - -;
#X text 260 8 Vout = (R2*Vin)/(R1+R2);
#X obj 151 288 expr ($f1*$f2)/$f3;
#X obj 272 224 expr ($f1+$f2);
#X obj 152 229 / 127;
#X floatatom 212 264 5 0 0 2 Vin Vin -;
#X floatatom 151 311 5 0 0 0 - - -;
#X obj 152 120 / 127;
#X obj 55 -8 cnv 15 160 20 empty empty Potentiometer 20 12 0 14 -204786
-66577 0;
#X text 260 -7 Voltage divider Equation;
#X obj 477 148 vsl 30 64 0 127 0 0 empty empty R2_variable 0 -9 0 10
-262144 -1 -1 12700 1;
#X obj 476 39 vsl 30 64 0 127 0 0 empty empty R1_fixed 0 -9 0 10 -262144
-1 -1 300 1;
#X floatatom 597 238 5 0 0 0 - - -;
#X obj 475 279 expr ($f1*$f2)/$f3;
#X obj 596 215 expr ($f1+$f2);
#X obj 476 220 / 127;
#X floatatom 536 255 5 0 0 2 Vin Vin -;
#X floatatom 475 302 5 0 0 0 - - -;
#X obj 476 111 / 127;
#X obj 469 -7 cnv 15 180 20 empty empty Variable_Resistor 20 12 0 14
-204786 -66577 0;
#X floatatom 476 243 5 0 0 0 - - -;
#X obj 763 148 vsl 30 64 0 127 0 0 empty empty Button 0 -9 0 10 -262144
-1 -1 0 1;
#X floatatom 883 238 5 0 0 0 - - -;
#X obj 761 279 expr ($f1*$f2)/$f3;
#X obj 882 215 expr ($f1+$f2);
#X obj 762 220 / 127;
#X floatatom 822 255 5 0 0 2 Vin Vin -;
#X floatatom 761 302 5 0 0 0 - - -;
#X obj 762 111 / 127;
#X obj 755 -7 cnv 15 180 20 empty empty Digital_Input 20 12 0 14 -204786
-66577 0;
#X floatatom 762 243 5 0 0 0 - - -;
#X obj 762 62 loadbang;
#X text 760 42 pull-up resistor \, fixed;
#X obj 761 324 expr $f1>2.7;
#X obj 858 324 expr $f1<0.6;
#X msg 761 370 1;
#X msg 858 370 0;
#X obj 761 401 tgl 30 0 empty empty digital_signal 33 7 0 10 -262144
-1 -1 0 1;
#X obj 761 347 sel 1;
#X obj 858 347 sel 1;
#X msg 762 85 12.7;
#X obj 1219 166 vsl 30 64 0 127 0 0 empty empty Button 0 -9 0 10 -262144
-1 -1 0 1;
#X floatatom 1339 256 5 0 0 0 - - -;
#X obj 1217 297 expr ($f1*$f2)/$f3;
#X obj 1338 233 expr ($f1+$f2);
#X obj 1218 238 / 127;
#X floatatom 1278 273 5 0 0 2 Vin Vin -;
#X floatatom 1217 320 5 0 0 0 - - -;
#X obj 1218 129 / 127;
#X obj 1087 -8 cnv 15 180 20 empty empty Capacitive_Sensor 20 12 0
14 -204786 -66577 0;
#X floatatom 1218 261 5 0 0 0 - - -;
#X obj 1218 80 loadbang;
#X text 1216 60 pull-up resistor \, fixed;
#X obj 1217 342 expr $f1>2.7;
#X obj 1314 342 expr $f1<0.6;
#X msg 1217 421 1;
#X msg 1314 421 0;
#X obj 1217 452 tgl 30 0 empty empty digital_signal 33 7 0 10 -262144
-1 -1 0 1;
#X obj 1217 393 sel 1;
#X obj 1314 390 sel 1;
#X obj 1081 28 bng 15 250 50 0 empty empty Trigger_capsense -100 7
0 10 -262144 -1 -1;
#X obj 1145 342 timer;
#X floatatom 1145 369 5 0 0 0 CapSense_value_(ms) - -;
#X obj 1217 365 change;
#X obj 1314 365 change;
#X obj 1176 318 bng 15 250 50 0 empty empty empty 17 7 0 10 -262144
-1 -1;
#X obj 1143 320 bng 15 250 50 0 empty empty empty 17 7 0 10 -262144
-1 -1;
#X msg 1218 103 16;
#X floatatom 1280 104 5 0 0 0 - - -;
#X obj 1157 127 *;
#X floatatom 1178 28 5 0 1 1 Capacitance_(0-1) - -;
#X obj 1123 85 tgl 15 0 empty empty empty 17 7 0 10 -262144 -1 -1 1
1;
#X obj 1123 105 metro 100;
#X obj 1123 132 f;
#X floatatom 1123 155 5 0 0 0 - - -;
#X msg 1149 74 127;
#X obj 1081 48 t b b, f 10;
#X obj 1579 -1 cnv 15 180 20 empty empty Capacitive_Sensor 20 12 0
14 -204786 -66577 0;
#X obj 1653 200 bng 15 250 50 0 empty empty Trigger_capsense -100 7
0 10 -262144 -1 -1;
#X floatatom 1697 202 5 0 1 1 Capacitance_(0-1) - -;
#N canvas 0 22 1680 1006 capSense 0;
#X obj 222 192 vsl 30 64 0 127 0 0 empty empty Button 0 -9 0 10 -262144
-1 -1 0 1;
#X floatatom 342 282 5 0 0 0 - - -;
#X obj 220 323 expr ($f1*$f2)/$f3;
#X obj 341 259 expr ($f1+$f2);
#X obj 221 264 / 127;
#X floatatom 281 299 5 0 0 2 Vin Vin -;
#X floatatom 221 351 5 0 0 0 - - -;
#X obj 224 156 / 127;
#X floatatom 221 287 5 0 0 0 - - -;
#X obj 224 107 loadbang;
#X text 219 86 pull-up resistor \, fixed;
#X obj 221 372 expr $f1<0.6;
#X msg 220 448 0;
#X obj 221 420 sel 1;
#X obj 148 368 timer;
#X floatatom 148 396 5 0 0 0 CapSense_value_(ms) - -;
#X obj 221 395 change;
#X obj 179 344 bng 15 250 50 0 empty empty empty 17 7 0 10 -262144
-1 -1;
#X obj 146 346 bng 15 250 50 0 empty empty empty 17 7 0 10 -262144
-1 -1;
#X obj 160 153 *;
#X obj 126 111 tgl 15 0 empty empty empty 17 7 0 10 -262144 -1 -1 1
1;
#X obj 126 158 f;
#X floatatom 126 181 5 0 0 0 - - -;
#X msg 152 100 127;
#X obj 81 42 t b b, f 10;
#X obj 81 21 inlet;
#X obj 231 18 inlet;
#X msg 224 130 12.7;
#X obj 148 420 outlet;
#X obj 13 60 loadbang;
#X obj 13 83 1;
#X text 81 0 trigger_cycle;
#X text 276 15 capacitance;
#X obj 126 131 metro 1;
#X obj 231 41 t b f;
#X msg 226 65 1;
#X connect 0 0 4 0;
#X connect 1 0 2 2;
#X connect 2 0 6 0;
#X connect 3 0 1 0;
#X connect 4 0 3 0;
#X connect 4 0 8 0;
#X connect 5 0 2 1;
#X connect 6 0 11 0;
#X connect 7 0 3 1;
#X connect 8 0 2 0;
#X connect 9 0 27 0;
#X connect 11 0 16 0;
#X connect 13 0 17 0;
#X connect 13 0 12 0;
#X connect 14 0 15 0;
#X connect 15 0 28 0;
#X connect 16 0 13 0;
#X connect 17 0 14 1;
#X connect 18 0 14 0;
#X connect 19 0 21 1;
#X connect 20 0 33 0;
#X connect 21 0 22 0;
#X connect 22 0 19 0;
#X connect 22 0 0 0;
#X connect 23 0 21 1;
#X connect 24 0 18 0;
#X connect 24 1 23 0;
#X connect 25 0 24 0;
#X connect 26 0 34 0;
#X connect 27 0 7 0;
#X connect 29 0 30 0;
#X connect 30 0 20 0;
#X connect 33 0 21 0;
#X connect 34 0 35 0;
#X connect 34 1 19 1;
#X connect 35 0 20 0;
#X restore 1653 228 pd capSense;
#X floatatom 1653 266 5 0 0 0 CapSense_value_(ms) - -;
#X obj 1654 139 tgl 15 0 empty empty empty 17 7 0 10 -262144 -1 -1
0 1;
#X obj 1654 159 metro 100;
#X obj 1683 95 hsl 128 15 0 1 0 0 empty empty Capacitance -2 -8 0 10
-262144 -1 -1 8200 1;
#X connect 0 0 1 0;
#X connect 0 0 3 0;
#X connect 1 0 8 0;
#X connect 2 0 11 0;
#X connect 3 0 2 0;
#X connect 4 0 6 2;
#X connect 6 0 10 0;
#X connect 7 0 4 0;
#X connect 8 0 7 0;
#X connect 8 0 6 0;
#X connect 9 0 6 1;
#X connect 11 0 7 1;
#X connect 14 0 19 0;
#X connect 15 0 22 0;
#X connect 16 0 17 2;
#X connect 17 0 21 0;
#X connect 18 0 16 0;
#X connect 19 0 18 0;
#X connect 19 0 24 0;
#X connect 20 0 17 1;
#X connect 22 0 18 1;
#X connect 24 0 17 0;
#X connect 25 0 29 0;
#X connect 26 0 27 2;
#X connect 27 0 31 0;
#X connect 28 0 26 0;
#X connect 29 0 28 0;
#X connect 29 0 34 0;
#X connect 30 0 27 1;
#X connect 31 0 37 0;
#X connect 31 0 38 0;
#X connect 32 0 28 1;
#X connect 34 0 27 0;
#X connect 35 0 44 0;
#X connect 37 0 42 0;
#X connect 38 0 43 0;
#X connect 39 0 41 0;
#X connect 40 0 41 0;
#X connect 42 0 39 0;
#X connect 43 0 40 0;
#X connect 44 0 32 0;
#X connect 45 0 49 0;
#X connect 46 0 47 2;
#X connect 47 0 51 0;
#X connect 48 0 46 0;
#X connect 49 0 48 0;
#X connect 49 0 54 0;
#X connect 50 0 47 1;
#X connect 51 0 57 0;
#X connect 51 0 58 0;
#X connect 52 0 48 1;
#X connect 54 0 47 0;
#X connect 55 0 71 0;
#X connect 57 0 67 0;
#X connect 58 0 68 0;
#X connect 59 0 61 0;
#X connect 60 0 61 0;
#X connect 62 0 59 0;
#X connect 63 0 60 0;
#X connect 63 0 69 0;
#X connect 64 0 80 0;
#X connect 65 0 66 0;
#X connect 67 0 62 0;
#X connect 68 0 63 0;
#X connect 69 0 65 1;
#X connect 70 0 65 0;
#X connect 71 0 52 0;
#X connect 72 0 52 0;
#X connect 73 0 77 1;
#X connect 74 0 73 1;
#X connect 75 0 76 0;
#X connect 76 0 77 0;
#X connect 77 0 78 0;
#X connect 78 0 73 0;
#X connect 78 0 45 0;
#X connect 79 0 77 1;
#X connect 80 0 70 0;
#X connect 80 1 79 0;
#X connect 82 0 84 0;
#X connect 83 0 84 1;
#X connect 84 0 85 0;
#X connect 86 0 87 0;
#X connect 87 0 82 0;
#X connect 88 0 83 0;
