#N canvas 260 23 1529 881 12;
#X obj 90 263 s m370_OSC_SEND;
#X obj 29 19 OSC_OUTPUT;
#X obj 90 235 oscformat led;
#X obj 91 203 pack 0 0 0 0;
#X obj 135 134 random 255;
#X obj 217 143 random 255;
#X obj 305 144 random 255;
#X obj 102 75 metro 200;
#X obj 108 54 tgl 15 0 empty empty empty 17 7 0 10 -262144 -1 -1 1
1;
#X obj 65 130 f;
#X obj 36 220 t f f, f 4;
#X obj 101 130 + 1;
#X obj 65 153 % 64;
#X obj 224 242 print;
#X connect 2 0 0 0;
#X connect 3 0 2 0;
#X connect 3 0 13 0;
#X connect 4 0 3 1;
#X connect 5 0 3 2;
#X connect 6 0 3 3;
#X connect 7 0 4 0;
#X connect 7 0 5 0;
#X connect 7 0 6 0;
#X connect 7 0 9 0;
#X connect 8 0 7 0;
#X connect 9 0 12 0;
#X connect 11 0 9 1;
#X connect 12 0 11 0;
#X connect 12 0 3 0;
