#N canvas 151 23 1529 881 12;
#X obj 71 169 s m370_OSC_SEND;
#X obj 75 12 OSC_OUTPUT;
#X obj 71 141 oscformat led;
#X obj 72 109 pack 0 0 0 0, f 51;
#X obj 205 148 print;
#X floatatom 73 73 5 0 0 0 - - -;
#X floatatom 191 73 5 0 0 0 - - -;
#X floatatom 300 70 5 0 0 0 - - -;
#X floatatom 414 71 5 0 0 0 - - -;
#X text 190 44 red(0-255);
#X text 300 47 green(0-255);
#X text 410 46 blue(0-255);
#X text 74 49 led number;
#X connect 2 0 0 0;
#X connect 3 0 2 0;
#X connect 3 0 4 0;
#X connect 5 0 3 0;
#X connect 6 0 3 1;
#X connect 7 0 3 2;
#X connect 8 0 3 3;
