#N canvas 297 23 1136 948 12;
#X obj 31 43 hsl 128 15 0 127 0 0 empty empty base_pitch -2 -8 0 10
-262144 -1 -1 7900 1;
#X obj 207 42 hsl 128 15 0 24 0 0 empty empty osc2-tune -2 -8 0 10
-262144 -1 -1 0 1;
#X obj 380 43 hsl 128 15 0 24 0 0 empty empty osc3-tune -2 -8 0 10
-262144 -1 -1 0 1;
#N canvas 207 105 994 500 tuning 0;
#X msg 102 309 PITCH \$1 1;
#X msg 192 307 PITCH \$1 2;
#X msg 306 316 PITCH \$1 3;
#X obj 172 351 s bwl-osc;
#X obj 306 289 +;
#X floatatom 307 237 5 0 0 0 - - -;
#X obj 307 208 expr floor($f1);
#X obj 306 263 t b f;
#X obj 103 104 inlet;
#X obj 294 165 inlet;
#X obj 191 162 inlet;
#X obj 189 282 +;
#X floatatom 190 230 5 0 0 0 - - -;
#X obj 190 201 expr floor($f1);
#X obj 189 256 t b f;
#X obj 258 373 outlet;
#X obj 323 375 outlet;
#X obj 19 372 s basic-osc;
#X msg 15 344 PITCH \$1 3;
#X obj 531 149 inlet;
#X msg 530 197 CH1 \$1 1;
#X obj 530 221 s mixer4;
#X obj 642 148 inlet;
#X obj 750 146 inlet;
#X obj 853 147 inlet;
#X msg 641 196 CH2 \$1 1;
#X msg 749 194 CH3 \$1 1;
#X msg 852 195 CH4 \$1 1;
#X obj 966 141 inlet;
#X obj 965 213 s vca;
#X msg 965 189 CV \$1 3;
#X obj 531 173 expr $f1/1;
#X obj 642 172 expr $f1/1;
#X obj 750 170 expr $f1/1;
#X obj 853 171 expr $f1/1;
#X obj 966 163 expr $f1/1;
#X obj 16 309 - 12;
#X connect 0 0 3 0;
#X connect 1 0 3 0;
#X connect 2 0 3 0;
#X connect 4 0 2 0;
#X connect 5 0 7 0;
#X connect 5 0 16 0;
#X connect 6 0 5 0;
#X connect 7 0 4 0;
#X connect 7 1 4 1;
#X connect 8 0 0 0;
#X connect 8 0 11 0;
#X connect 8 0 4 0;
#X connect 8 0 36 0;
#X connect 9 0 6 0;
#X connect 10 0 13 0;
#X connect 11 0 1 0;
#X connect 12 0 14 0;
#X connect 12 0 15 0;
#X connect 13 0 12 0;
#X connect 14 0 11 0;
#X connect 14 1 11 1;
#X connect 18 0 17 0;
#X connect 19 0 31 0;
#X connect 20 0 21 0;
#X connect 22 0 32 0;
#X connect 23 0 33 0;
#X connect 24 0 34 0;
#X connect 25 0 21 0;
#X connect 26 0 21 0;
#X connect 27 0 21 0;
#X connect 28 0 35 0;
#X connect 30 0 29 0;
#X connect 31 0 20 0;
#X connect 32 0 25 0;
#X connect 33 0 26 0;
#X connect 34 0 27 0;
#X connect 35 0 30 0;
#X connect 36 0 18 0;
#X restore 27 110 pd tuning;
#X f 77;
#X floatatom 214 133 5 0 0 0 - - -;
#X floatatom 412 138 5 0 0 0 - - -;
#X obj 53 77 hsl 128 15 0 127 0 0 empty empty osc1-level -2 -8 0 10
-262144 -1 -1 0 1;
#X obj 237 75 hsl 128 15 0 127 0 0 empty empty osc2-level -2 -8 0 10
-262144 -1 -1 0 1;
#X obj 402 75 hsl 128 15 0 127 0 0 empty empty osc3-level -2 -8 0 10
-262144 -1 -1 0 1;
#X obj 561 42 hsl 128 15 0 127 0 0 empty empty sub-osc-level -2 -8
0 10 -262144 -1 -1 0 1;
#X obj 565 77 hsl 128 15 0 127 0 0 empty empty noise-level -2 -8 0
10 -262144 -1 -1 0 1;
#X obj 30 232 s detune;
#X obj 32 207 hsl 128 15 0 127 0 0 empty empty detune -2 -8 0 10 -262144
-1 -1 14300 1;
#X obj 29 303 hsl 128 15 0 127 0 0 empty empty tempo -2 -8 0 10 -262144
-1 -1 0 1;
#X obj 26 393 s basic-lfo;
#X msg 26 369 FREQ \$1 1;
#X floatatom 26 347 5 0 0 0 - - -;
#X obj 26 323 expr $f1/4 + 65;
#X obj 217 302 hsl 128 15 0 127 0 0 empty empty base_filter_frequency
-2 -8 0 10 -262144 -1 -1 0 1;
#X floatatom 214 346 5 0 0 0 - - -;
#X msg 214 369 FREQ \$1 1;
#X obj 214 393 s ladder-filter;
#X obj 380 302 hsl 128 15 0 127 0 0 empty empty filter-envelope-depth
-2 -8 0 10 -262144 -1 -1 0 1;
#X floatatom 377 346 5 0 0 0 - - -;
#X obj 377 322 expr $f1/4 + 64;
#X obj 215 323 expr $f1*0.8+1;
#X msg 377 369 FM-/+ \$1 1;
#X obj 686 324 oscformat getSequence;
#X msg 727 296 1;
#N canvas 0 23 742 471 sendOSC 0;
#X obj 192 15 inlet;
#X obj 193 145 netsend -u -b;
#X obj 193 41 list prepend send;
#X obj 194 93 list trim;
#X msg 16 94 connect localhost 5006;
#X obj 12 60 loadbang;
#X connect 0 0 2 0;
#X connect 2 0 3 0;
#X connect 3 0 1 0;
#X connect 4 0 1 0;
#X connect 5 0 4 0;
#X restore 686 349 pd sendOSC;
#N canvas 0 23 450 300 receiveOSC 0;
#X obj 26 100 outlet;
#X obj 27 40 oscparse;
#X obj 27 18 netreceive -u -b 5005;
#X obj 27 64 list trim;
#X connect 1 0 3 0;
#X connect 2 0 1 0;
#X connect 3 0 0 0;
#X restore 692 393 pd receiveOSC;
#X obj 686 451 list prepend set;
#X msg 689 501 0 4 7 11 14 18 14 7;
#X obj 687 474 list trim;
#X obj 608 534 list split 1, f 16;
#X obj 643 588 list;
#X obj 608 558 t b f;
#X obj 607 508 t l b b;
#X obj 780 637 list length;
#X obj 779 666 expr 8-$f1;
#X obj 779 544 loadbang;
#X obj 781 602 text define -k seqNums;
#A set 0 ZERO \; 1 ONE \; 2 TWO \; 3 THREE \; 4 FOUR \; 5 FIVE \; 6
SIX \; 7 SEVEN \; 8 EIGHT \; 9 NINE \; 10 TEN \;;
#X msg 779 573 read numToNum.txt;
#X obj 780 725 text get seqNums;
#X floatatom 780 697 5 0 0 0 - - -;
#X obj 780 748 list split 1;
#X obj 568 674 pack f s;
#X msg 569 701 \$2 \$1 1;
#X obj 569 724 s 8steps;
#X text 564 626 convert for 8steps;
#X obj 640 730 list prepend set;
#X msg 640 754;
#X text 682 268 recall saved sequences from python;
#X text 864 501 monitor incoming sequence;
#X msg 770 296 2;
#X obj 544 420 s maestro4;
#X floatatom 544 378 5 0 0 0 - - -;
#X msg 544 398 MASTER \$1 1;
#X msg 807 296 3;
#X obj 570 647 expr $f1/28*127;
#X obj 731 417 route sequence sequence2;
#X obj 845 444 print;
#X msg 686 297 0;
#X obj 911 443 s 8steps;
#X connect 0 0 3 0;
#X connect 1 0 3 1;
#X connect 2 0 3 2;
#X connect 3 0 4 0;
#X connect 3 1 5 0;
#X connect 6 0 3 3;
#X connect 7 0 3 4;
#X connect 8 0 3 5;
#X connect 9 0 3 6;
#X connect 10 0 3 7;
#X connect 12 0 11 0;
#X connect 13 0 17 0;
#X connect 15 0 14 0;
#X connect 16 0 15 0;
#X connect 17 0 16 0;
#X connect 18 0 25 0;
#X connect 19 0 20 0;
#X connect 20 0 21 0;
#X connect 22 0 24 0;
#X connect 23 0 26 0;
#X connect 24 0 23 0;
#X connect 25 0 19 0;
#X connect 26 0 21 0;
#X connect 27 0 29 0;
#X connect 28 0 27 0;
#X connect 30 0 60 0;
#X connect 31 0 33 0;
#X connect 33 0 32 0;
#X connect 34 0 36 0;
#X connect 34 1 35 1;
#X connect 34 1 38 0;
#X connect 35 0 34 0;
#X connect 36 0 35 0;
#X connect 36 1 59 0;
#X connect 37 0 34 0;
#X connect 38 0 39 0;
#X connect 39 0 44 0;
#X connect 40 0 42 0;
#X connect 42 0 41 0;
#X connect 43 0 45 0;
#X connect 44 0 43 0;
#X connect 45 1 46 1;
#X connect 46 0 47 0;
#X connect 47 0 48 0;
#X connect 47 0 50 0;
#X connect 50 0 51 0;
#X connect 54 0 27 0;
#X connect 56 0 57 0;
#X connect 57 0 55 0;
#X connect 58 0 27 0;
#X connect 59 0 46 0;
#X connect 60 0 31 0;
#X connect 60 0 37 0;
#X connect 60 1 61 0;
#X connect 60 1 63 0;
#X connect 62 0 27 0;
