#N canvas 637 146 450 300 10;
#X obj 67 105 print;
#X obj 57 45 metro 10;
#X obj 56 23 tgl 15 0 empty empty empty 17 7 0 10 -262144 -1 -1 0 1
;
#X msg 121 44 listen 804;
#X obj 69 72 netreceive -u 804;
#X connect 1 0 4 0;
#X connect 2 0 1 0;
#X connect 3 0 4 0;
#X connect 4 0 0 0;
