#N canvas 637 146 854 882 10;
#X msg 68 47 listen 804;
#X msg 139 47 listen 8005;
#X obj 69 72 netreceive -u -b 804;
#X obj 213 173 print serial;
#X obj 68 96 print wifi;
#X obj 304 172 print ports;
#X msg 193 117 ports;
#X obj 213 149 comport 2 115200;
#X text 88 147 change the first -> argument to select comport;
#X msg 357 115 close;
#X msg 297 115 open \$1;
#X floatatom 299 86 5 0 0 0 - - -;
#X text 394 110 close serial port before uploading new file;
#X connect 0 0 2 0;
#X connect 1 0 2 0;
#X connect 2 0 4 0;
#X connect 6 0 7 0;
#X connect 7 0 3 0;
#X connect 7 1 5 0;
#X connect 9 0 7 0;
#X connect 10 0 7 0;
#X connect 11 0 10 0;
