#N canvas 817 42 863 891 10;
#X obj 108 13 inlet~;
#X obj 201 143 vsl 32 28 0 127 0 1 \$0-cartesian-s4a-s \$0-cartesian-s4a-r
4a 1 3 0 10 -262144 -1 -1 2618 1;
#X obj 132 128 cnv 5 5 5 empty empty CARTESIAN 0 0 0 12 -262144 -66577
0;
#X obj 989 28 inlet~;
#X msg 989 95 0;
#X text 986 7 RESET IN;
#X obj 102 107 cnv 5 5 5 empty empty NEXT 0 0 0 8 -262144 -226533 0
;
#X obj 324 106 cnv 5 5 5 empty empty RESET 0 0 0 8 -262144 -226533
0;
#X obj 327 293 cnv 5 5 5 empty empty S1 0 0 0 8 -262144 -226533 0;
#X obj 425 506 sig~;
#X obj 425 600 outlet~;
#X obj 1036 104 bng 15 50 50 0 empty empty empty 17 7 0 10 -262144
-258113 -1;
#X obj 989 72 t b b;
#X obj 1029 78 loadbang;
#X obj 425 531 +~;
#X obj 569 45 inlet~;
#X obj 569 74 snapshot~;
#X obj 108 57 t b b;
#X obj 620 4 bang~;
#X obj 425 553 min~ 1;
#X obj 425 575 max~ 0;
#X obj 632 45 inlet~;
#X obj 60 115 bng 15 50 50 0 empty empty empty 17 7 0 10 -262144 -226533
-1;
#X obj 531 593 outlet~;
#X obj 531 525 +~;
#X obj 531 547 min~ 1;
#X obj 531 569 max~ 0;
#N canvas 0 22 1204 721 scales-tables 0;
#X obj 11 17 loadbang;
#X obj 10 156 loadbang;
#X obj 15 269 loadbang;
#X obj 17 383 loadbang;
#X obj 18 503 loadbang;
#X obj 427 3 loadbang;
#X obj 429 98 loadbang;
#X obj 430 197 loadbang;
#X obj 431 294 loadbang;
#X obj 430 421 loadbang;
#X obj 20 598 loadbang;
#X obj 433 534 loadbang;
#X obj 822 12 loadbang;
#X obj 823 149 loadbang;
#X obj 818 293 loadbang;
#X obj 11 131 table \$0-ionian;
#X obj 8 248 table \$0-aeolian;
#X obj 16 361 table \$0-dorian;
#X obj 17 479 table \$0-phrygian;
#X obj 18 692 table \$0-lyd-minor;
#X obj 459 24 table \$0-chromatic;
#X obj 462 119 table \$0-ancient;
#X obj 464 218 table \$0-tetra;
#X obj 466 315 table \$0-indian;
#X obj 468 441 table \$0-siga;
#X obj 433 653 table \$0-harm-major;
#X obj 864 35 table \$0-pelog;
#X obj 823 267 table \$0-slendro;
#X obj 817 395 table \$0-whole;
#X msg 11 81 \; \$1-ionian 0 0 2 4 5 7 9 11 12 14 16 17 19 21 23 24
26 28 29 31 33 35 36 38 40 41 43 45 47 48;
#X msg 10 201 \; \$1-aeolian 0 0 2 3 5 7 8 10 12 14 15 17 19 20 22
24 26 27 29 31 32 34 36 38 39 41 43 44 46 48;
#X msg 16 312 \; \$1-dorian 0 0 2 3 5 7 9 10 12 14 15 17 19 21 22 24
26 27 29 31 33 34 36 38 39 41 43 45 46 48;
#X msg 17 432 \; \$1-phrygian 0 0 1 3 5 7 8 10 12 13 15 17 19 20 22
24 25 27 29 31 32 34 36 37 39 41 43 44 46 48;
#X msg 18 549 \; \$1-lydian 0 0 2 4 6 7 9 11 12 14 16 18 19 21 23 24
26 28 30 31 33 35 36 38 40 42 43 45 47 48;
#X msg 19 643 \; \$1-lyd-minor 0 0 2 3 6 7 9 11 12 14 15 18 19 21 23
24 26 27 30 31 33 35 36 38 39 42 43 45 47 48;
#X msg 427 50 \; \$1-chromatic 0 0 1 2 3 4 5 6 7 8 9 10 11 12 13 14
15 16 17 18 19 20 21 22 23 24 25 26 27 28;
#X msg 428 151 \; \$1-ancient 0 0 0.5 1 5 7 7.5 8 12 12.5 13 17 19
19.5 20 24 24.5 25 29 31 31.5 32 36 36.5 37 41 43 43.5 44 48;
#X msg 430 248 \; \$1-tetra 0 0 1 1.75 2 3 3.75 4 5 12 13 13.75 14
15 15.75 16 17 24 25 25.75 26 27 27.75 28 29 36 37 37.75 38 39;
#X msg 431 350 \; \$1-indian 0 0 0.9 1.14 1.8 2.04 2.94 3.18 3.84 4.08
4.9 5.22 5.88 6.12 7.02 7.92 8.16 8.82 9.06 9.96 10.2 10.86 11.1 12
12.9 13.14 13.8 14.04 14.94 15.18;
#X msg 430 468 \; \$1-siga 0 0 1.5 3.5 5.5 7 8.5 10.5 12 13.5 15.5
17.5 19 20.5 22.5 24 25.5 27.5 29.5 31 32.5 34.5 36 37.5 39.5 41.5
43 44.5 46.5 48.5;
#X msg 433 601 \; \$1-harm-major 0 0 2 4 5 7 8 11 12 14 16 17 19 20
23 24 26 28 29 31 32 35 36 38 40 41 43 44 47 48;
#X msg 822 73 \; \$1-pelog 0 0 1.5 2.5 3.5 7 8 10.5 12 13.5 14.5 15.5
19 20 22.5 24 25.5 26.5 27.5 31 32 34.5 36 37.5 38.5 39.5 42.5 43.5
45 46.5;
#X msg 823 218 \; \$1-slendro 0 0 2.5 5 7 9.5 12 14.5 17 19 21.5 24
26.5 29 31 33.5 36 38.5 41 43 45.5 47 49.5 52 54 56.5 59 61.5 64 66.5
;
#X msg 818 346 \; \$1-whole 0 0 2 4 6 8 10 12 14 16 18 20 22 24 26
28 30 32 34 36 38 40 42 44 46 48 50 52 54 56;
#X obj 11 39 f \$0;
#X obj 10 178 f \$0;
#X obj 15 291 f \$0;
#X obj 17 405 f \$0;
#X obj 18 525 f \$0;
#X obj 20 620 f \$0;
#X obj 427 25 f \$0;
#X obj 429 120 f \$0;
#X obj 430 219 f \$0;
#X obj 431 316 f \$0;
#X obj 430 443 f \$0;
#X obj 433 556 f \$0;
#X obj 822 34 f \$0;
#X obj 823 171 f \$0;
#X obj 818 315 f \$0;
#X obj 49 524 table \$0-lydian;
#X connect 0 0 44 0;
#X connect 1 0 45 0;
#X connect 2 0 46 0;
#X connect 3 0 47 0;
#X connect 4 0 48 0;
#X connect 5 0 50 0;
#X connect 6 0 51 0;
#X connect 7 0 52 0;
#X connect 8 0 53 0;
#X connect 9 0 54 0;
#X connect 10 0 49 0;
#X connect 11 0 55 0;
#X connect 12 0 56 0;
#X connect 13 0 57 0;
#X connect 14 0 58 0;
#X connect 44 0 29 0;
#X connect 45 0 30 0;
#X connect 46 0 31 0;
#X connect 47 0 32 0;
#X connect 48 0 33 0;
#X connect 49 0 34 0;
#X connect 50 0 35 0;
#X connect 51 0 36 0;
#X connect 52 0 37 0;
#X connect 53 0 38 0;
#X connect 54 0 39 0;
#X connect 55 0 40 0;
#X connect 56 0 41 0;
#X connect 57 0 42 0;
#X connect 58 0 43 0;
#X restore 129 433 pd scales-tables;
#X obj 176 293 cnv 5 5 5 empty empty BETA 0 0 0 8 -262144 -1 0;
#N canvas 0 23 1440 855 state-saving-multiple-instances 0;
#X obj 456 38 loadbang;
#X obj 317 424 textfile;
#X msg 587 407 rewind;
#X msg 544 407 bang;
#X obj 110 663 textfile;
#X obj 544 368 t b b;
#X obj 111 329 f;
#X obj 124 552 f;
#X obj 24 277 t b b b;
#X msg 187 552 clear;
#X obj 445 188 outlet;
#X text 487 192 INSTANCE NUMBER;
#X obj 406 124 f \$1;
#X obj 406 160 t f f f;
#X obj 457 71 t b b;
#X obj 24 254 bng 15 250 50 0 empty empty empty 17 7 0 10 -262144 -1
-1;
#X obj 25 221 r SAVE-S;
#X obj 98 140 r \$0-16steps-scale-s;
#X obj 106 163 r \$0-16steps-s1-s;
#X obj 120 184 r \$0-16steps-s2-s;
#X obj 138 209 r \$0-16steps-s3-s;
#X obj 158 234 r \$0-16steps-s4-s;
#X obj 176 255 r \$0-16steps-s5-s;
#X obj 206 280 r \$0-16steps-s6-s;
#X obj 226 305 r \$0-16steps-s7-s;
#X obj 244 326 r \$0-16steps-s8-s;
#X msg 317 399 read statesave/\$1-16steps-ss.txt;
#X obj 474 489 s \$0-16steps-s8-r;
#X obj 453 513 s \$0-16steps-s7-r;
#X obj 432 539 s \$0-16steps-s6-r;
#X obj 422 574 s \$0-16steps-s5-r;
#X obj 401 598 s \$0-16steps-s4-r;
#X obj 380 624 s \$0-16steps-s3-r;
#X obj 359 648 s \$0-16steps-s2-r;
#X obj 338 672 s \$0-16steps-s1-r;
#X obj 317 696 s \$0-16steps-scale-r;
#X msg 123 623 write statesave/\$1-16steps-ss.txt;
#X obj 111 372 pack f f f f f f f f f f f f f f f f f f f;
#X msg 111 410 set \$1 \$2 \$3 \$4 \$5 \$6 \$7 \$8 \$9 \$10 \$11 \$12
\$13 \$14 \$15 \$16 \$17 \$18 \$19;
#X obj 317 447 unpack f f f f f f f f f f f f f f f f f f f;
#X obj 257 166 r \$0-16steps-s9-s;
#X obj 271 187 r \$0-16steps-s10-s;
#X obj 289 212 r \$0-16steps-s11-s;
#X obj 309 237 r \$0-16steps-s12-s;
#X obj 327 258 r \$0-16steps-s13-s;
#X obj 357 283 r \$0-16steps-s14-s;
#X obj 376 307 r \$0-16steps-s15-s;
#X obj 395 329 r \$0-16steps-s16-s;
#X obj 533 274 r \$0-16steps-begin-s;
#X obj 552 296 r \$0-16steps-end-s;
#X obj 479 670 s \$0-16steps-s9-r;
#X obj 499 646 s \$0-16steps-s10-r;
#X obj 520 622 s \$0-16steps-s11-r;
#X obj 541 596 s \$0-16steps-s12-r;
#X obj 562 572 s \$0-16steps-s13-r;
#X obj 572 537 s \$0-16steps-s14-r;
#X obj 593 511 s \$0-16steps-s15-r;
#X obj 614 487 s \$0-16steps-s16-r;
#X obj 717 517 s \$0-16steps-begin-r;
#X obj 738 493 s \$0-16steps-end-r;
#X connect 0 0 14 0;
#X connect 1 0 39 0;
#X connect 2 0 1 0;
#X connect 3 0 1 0;
#X connect 5 0 3 0;
#X connect 5 1 2 0;
#X connect 6 0 37 0;
#X connect 7 0 36 0;
#X connect 8 0 7 0;
#X connect 8 1 6 0;
#X connect 8 2 9 0;
#X connect 9 0 4 0;
#X connect 12 0 13 0;
#X connect 13 0 7 1;
#X connect 13 1 26 0;
#X connect 13 2 10 0;
#X connect 14 0 5 0;
#X connect 14 1 12 0;
#X connect 15 0 8 0;
#X connect 16 0 15 0;
#X connect 17 0 6 1;
#X connect 18 0 37 1;
#X connect 19 0 37 2;
#X connect 20 0 37 3;
#X connect 21 0 37 4;
#X connect 22 0 37 5;
#X connect 23 0 37 6;
#X connect 24 0 37 7;
#X connect 25 0 37 8;
#X connect 26 0 1 0;
#X connect 36 0 4 0;
#X connect 37 0 38 0;
#X connect 38 0 4 0;
#X connect 39 0 35 0;
#X connect 39 1 34 0;
#X connect 39 2 33 0;
#X connect 39 3 32 0;
#X connect 39 4 31 0;
#X connect 39 5 30 0;
#X connect 39 6 29 0;
#X connect 39 7 28 0;
#X connect 39 8 27 0;
#X connect 39 9 50 0;
#X connect 39 10 51 0;
#X connect 39 11 52 0;
#X connect 39 12 53 0;
#X connect 39 13 54 0;
#X connect 39 14 55 0;
#X connect 39 15 56 0;
#X connect 39 16 57 0;
#X connect 39 17 58 0;
#X connect 39 18 59 0;
#X connect 40 0 37 9;
#X connect 41 0 37 10;
#X connect 42 0 37 11;
#X connect 43 0 37 12;
#X connect 44 0 37 13;
#X connect 45 0 37 14;
#X connect 46 0 37 15;
#X connect 47 0 37 16;
#X connect 48 0 37 17;
#X connect 49 0 37 18;
#X restore 129 479 pd state-saving-multiple-instances;
#X obj 129 556 s \$0-instance-num;
#X obj 129 508 makefilename %d;
#X obj 201 128 cnv 5 5 5 empty \$0-instance-num 1 0 0 0 12 -262144
-66577 0;
#X msg 129 533 label \$1;
#X obj 848 575 outlet~;
#X msg 848 528 1 0 \, 0 1 1;
#X obj 848 550 vline~;
#X obj 105 293 cnv 5 5 5 empty empty ALPHA 0 0 0 8 -262144 -1 0;
#X obj 989 50 threshold~ 0.99 0 1 0;
#N canvas 81 23 1117 745 state-saving-via-preset-manager-module 0;
#X obj 648 215 textfile;
#X msg 926 198 rewind;
#X msg 883 198 bang;
#X obj 106 568 textfile;
#X obj 883 159 t b b;
#X obj 107 234 f;
#X obj 120 457 f;
#X obj 53 352 t b b b;
#X msg 236 499 clear;
#X obj 107 56 delay 5;
#X obj 53 407 delay 10;
#X msg 53 192 bang;
#X obj 53 26 r STORE-S!;
#X obj 648 116 f;
#X obj 621 73 t b b;
#X obj 636 37 t b f;
#X obj 693 134 f \$1;
#X obj 648 161 pack f f;
#X obj 693 84 loadbang;
#X obj 120 487 pack f f;
#X obj 165 440 loadbang;
#X obj 165 462 f \$1;
#X obj 636 14 r preset-manager-scan;
#X obj 135 418 r preset-manager-store-slot;
#N canvas 0 22 1069 747 morph-parameters 0;
#X obj 176 94 inlet;
#X obj 176 236 pack f f;
#X obj 176 261 line;
#X obj 209 117 r preset-manager-morph-s;
#X msg 72 244 stop;
#X obj 72 214 r STOP-MORPH!;
#X obj 209 206 spigot;
#X obj 398 137 t f f;
#X obj 455 154 == 0;
#X obj 221 176 f;
#X floatatom 455 222 5 0 0 0 - - -;
#X obj 398 159 t b f;
#X floatatom 425 192 5 0 0 0 - - -;
#X obj 209 139 t f f;
#X obj 398 102 r parameters-s;
#X obj 176 288 outlet;
#X connect 0 0 1 0;
#X connect 1 0 2 0;
#X connect 2 0 15 0;
#X connect 3 0 13 0;
#X connect 4 0 2 0;
#X connect 5 0 4 0;
#X connect 6 0 1 1;
#X connect 7 0 11 0;
#X connect 7 1 8 0;
#X connect 8 0 10 0;
#X connect 9 0 6 0;
#X connect 10 0 1 1;
#X connect 11 0 9 0;
#X connect 11 1 12 0;
#X connect 12 0 6 1;
#X connect 13 0 6 0;
#X connect 13 1 9 1;
#X connect 14 0 7 0;
#X restore 651 652 pd morph-parameters;
#N canvas 0 22 1069 747 morph-parameters 0;
#X obj 176 94 inlet;
#X obj 176 236 pack f f;
#X obj 176 261 line;
#X obj 209 117 r preset-manager-morph-s;
#X msg 72 244 stop;
#X obj 72 214 r STOP-MORPH!;
#X obj 209 206 spigot;
#X obj 398 137 t f f;
#X obj 455 154 == 0;
#X obj 221 176 f;
#X floatatom 455 222 5 0 0 0 - - -;
#X obj 398 159 t b f;
#X floatatom 425 192 5 0 0 0 - - -;
#X obj 209 139 t f f;
#X obj 398 102 r parameters-s;
#X obj 176 288 outlet;
#X connect 0 0 1 0;
#X connect 1 0 2 0;
#X connect 2 0 15 0;
#X connect 3 0 13 0;
#X connect 4 0 2 0;
#X connect 5 0 4 0;
#X connect 6 0 1 1;
#X connect 7 0 11 0;
#X connect 7 1 8 0;
#X connect 8 0 10 0;
#X connect 9 0 6 0;
#X connect 10 0 1 1;
#X connect 11 0 9 0;
#X connect 11 1 12 0;
#X connect 12 0 6 1;
#X connect 13 0 6 0;
#X connect 13 1 9 1;
#X connect 14 0 7 0;
#X restore 694 541 pd morph-parameters;
#N canvas 0 22 1069 747 morph-parameters 0;
#X obj 176 94 inlet;
#X obj 176 236 pack f f;
#X obj 176 261 line;
#X obj 209 117 r preset-manager-morph-s;
#X msg 72 244 stop;
#X obj 72 214 r STOP-MORPH!;
#X obj 209 206 spigot;
#X obj 398 137 t f f;
#X obj 455 154 == 0;
#X obj 221 176 f;
#X floatatom 455 222 5 0 0 0 - - -;
#X obj 398 159 t b f;
#X floatatom 425 192 5 0 0 0 - - -;
#X obj 209 139 t f f;
#X obj 398 102 r parameters-s;
#X obj 176 288 outlet;
#X connect 0 0 1 0;
#X connect 1 0 2 0;
#X connect 2 0 15 0;
#X connect 3 0 13 0;
#X connect 4 0 2 0;
#X connect 5 0 4 0;
#X connect 6 0 1 1;
#X connect 7 0 11 0;
#X connect 7 1 8 0;
#X connect 8 0 10 0;
#X connect 9 0 6 0;
#X connect 10 0 1 1;
#X connect 11 0 9 0;
#X connect 11 1 12 0;
#X connect 12 0 6 1;
#X connect 13 0 6 0;
#X connect 13 1 9 1;
#X connect 14 0 7 0;
#X restore 680 594 pd morph-parameters;
#N canvas 0 22 1069 747 morph-parameters 0;
#X obj 176 94 inlet;
#X obj 176 236 pack f f;
#X obj 176 261 line;
#X obj 209 117 r preset-manager-morph-s;
#X msg 72 244 stop;
#X obj 72 214 r STOP-MORPH!;
#X obj 209 206 spigot;
#X obj 398 137 t f f;
#X obj 455 154 == 0;
#X obj 221 176 f;
#X floatatom 455 222 5 0 0 0 - - -;
#X obj 398 159 t b f;
#X floatatom 425 192 5 0 0 0 - - -;
#X obj 209 139 t f f;
#X obj 398 102 r parameters-s;
#X obj 176 288 outlet;
#X connect 0 0 1 0;
#X connect 1 0 2 0;
#X connect 2 0 15 0;
#X connect 3 0 13 0;
#X connect 4 0 2 0;
#X connect 5 0 4 0;
#X connect 6 0 1 1;
#X connect 7 0 11 0;
#X connect 7 1 8 0;
#X connect 8 0 10 0;
#X connect 9 0 6 0;
#X connect 10 0 1 1;
#X connect 11 0 9 0;
#X connect 11 1 12 0;
#X connect 12 0 6 1;
#X connect 13 0 6 0;
#X connect 13 1 9 1;
#X connect 14 0 7 0;
#X restore 709 481 pd morph-parameters;
#N canvas 0 22 1069 747 morph-parameters 0;
#X obj 176 94 inlet;
#X obj 176 236 pack f f;
#X obj 176 261 line;
#X obj 209 117 r preset-manager-morph-s;
#X msg 72 244 stop;
#X obj 72 214 r STOP-MORPH!;
#X obj 209 206 spigot;
#X obj 398 137 t f f;
#X obj 455 154 == 0;
#X obj 221 176 f;
#X floatatom 455 222 5 0 0 0 - - -;
#X obj 398 159 t b f;
#X floatatom 425 192 5 0 0 0 - - -;
#X obj 209 139 t f f;
#X obj 398 102 r parameters-s;
#X obj 176 288 outlet;
#X connect 0 0 1 0;
#X connect 1 0 2 0;
#X connect 2 0 15 0;
#X connect 3 0 13 0;
#X connect 4 0 2 0;
#X connect 5 0 4 0;
#X connect 6 0 1 1;
#X connect 7 0 11 0;
#X connect 7 1 8 0;
#X connect 8 0 10 0;
#X connect 9 0 6 0;
#X connect 10 0 1 1;
#X connect 11 0 9 0;
#X connect 11 1 12 0;
#X connect 12 0 6 1;
#X connect 13 0 6 0;
#X connect 13 1 9 1;
#X connect 14 0 7 0;
#X restore 743 428 pd morph-parameters;
#N canvas 0 22 1069 747 morph-parameters 0;
#X obj 176 94 inlet;
#X obj 176 236 pack f f;
#X obj 176 261 line;
#X obj 209 117 r preset-manager-morph-s;
#X msg 72 244 stop;
#X obj 72 214 r STOP-MORPH!;
#X obj 209 206 spigot;
#X obj 398 137 t f f;
#X obj 455 154 == 0;
#X obj 221 176 f;
#X floatatom 455 222 5 0 0 0 - - -;
#X obj 398 159 t b f;
#X floatatom 425 192 5 0 0 0 - - -;
#X obj 209 139 t f f;
#X obj 398 102 r parameters-s;
#X obj 176 288 outlet;
#X connect 0 0 1 0;
#X connect 1 0 2 0;
#X connect 2 0 15 0;
#X connect 3 0 13 0;
#X connect 4 0 2 0;
#X connect 5 0 4 0;
#X connect 6 0 1 1;
#X connect 7 0 11 0;
#X connect 7 1 8 0;
#X connect 8 0 10 0;
#X connect 9 0 6 0;
#X connect 10 0 1 1;
#X connect 11 0 9 0;
#X connect 11 1 12 0;
#X connect 12 0 6 1;
#X connect 13 0 6 0;
#X connect 13 1 9 1;
#X connect 14 0 7 0;
#X restore 768 375 pd morph-parameters;
#N canvas 0 22 1069 747 morph-parameters 0;
#X obj 176 94 inlet;
#X obj 176 236 pack f f;
#X obj 176 261 line;
#X obj 209 117 r preset-manager-morph-s;
#X msg 72 244 stop;
#X obj 72 214 r STOP-MORPH!;
#X obj 209 206 spigot;
#X obj 398 137 t f f;
#X obj 455 154 == 0;
#X obj 221 176 f;
#X floatatom 455 222 5 0 0 0 - - -;
#X obj 398 159 t b f;
#X floatatom 425 192 5 0 0 0 - - -;
#X obj 209 139 t f f;
#X obj 398 102 r parameters-s;
#X obj 176 288 outlet;
#X connect 0 0 1 0;
#X connect 1 0 2 0;
#X connect 2 0 15 0;
#X connect 3 0 13 0;
#X connect 4 0 2 0;
#X connect 5 0 4 0;
#X connect 6 0 1 1;
#X connect 7 0 11 0;
#X connect 7 1 8 0;
#X connect 8 0 10 0;
#X connect 9 0 6 0;
#X connect 10 0 1 1;
#X connect 11 0 9 0;
#X connect 11 1 12 0;
#X connect 12 0 6 1;
#X connect 13 0 6 0;
#X connect 13 1 9 1;
#X connect 14 0 7 0;
#X restore 793 319 pd morph-parameters;
#N canvas 0 22 1069 747 morph-parameters 0;
#X obj 176 94 inlet;
#X obj 176 236 pack f f;
#X obj 176 261 line;
#X obj 209 117 r preset-manager-morph-s;
#X msg 72 244 stop;
#X obj 72 214 r STOP-MORPH!;
#X obj 209 206 spigot;
#X obj 398 137 t f f;
#X obj 455 154 == 0;
#X obj 221 176 f;
#X floatatom 455 222 5 0 0 0 - - -;
#X obj 398 159 t b f;
#X floatatom 425 192 5 0 0 0 - - -;
#X obj 209 139 t f f;
#X obj 398 102 r parameters-s;
#X obj 176 288 outlet;
#X connect 0 0 1 0;
#X connect 1 0 2 0;
#X connect 2 0 15 0;
#X connect 3 0 13 0;
#X connect 4 0 2 0;
#X connect 5 0 4 0;
#X connect 6 0 1 1;
#X connect 7 0 11 0;
#X connect 7 1 8 0;
#X connect 8 0 10 0;
#X connect 9 0 6 0;
#X connect 10 0 1 1;
#X connect 11 0 9 0;
#X connect 11 1 12 0;
#X connect 12 0 6 1;
#X connect 13 0 6 0;
#X connect 13 1 9 1;
#X connect 14 0 7 0;
#X restore 820 263 pd morph-parameters;
#X obj 123 78 r \$0-16steps-s1-s;
#X obj 136 107 r \$0-16steps-s2-s;
#X obj 146 146 r \$0-16steps-s3-s;
#X obj 169 173 r \$0-16steps-s4-s;
#X obj 183 196 r \$0-16steps-s5-s;
#X obj 193 218 r \$0-16steps-s6-s;
#X obj 201 245 r \$0-16steps-s7-s;
#X obj 216 268 r \$0-16steps-s8-s;
#X obj 431 346 r \$0-16steps-scale-s;
#X msg 648 190 read statesave/\$1-\$2-16steps-ss.txt;
#X msg 119 528 write statesave/\$1-\$2-16steps-ss.txt;
#X obj 710 508 s \$0-16steps-s4-r;
#X obj 693 566 s \$0-16steps-s3-r;
#X obj 680 617 s \$0-16steps-s2-r;
#X obj 652 678 s \$0-16steps-s1-r;
#X obj 769 402 s \$0-16steps-s6-r;
#X obj 793 346 s \$0-16steps-s7-r;
#X obj 822 294 s \$0-16steps-s8-r;
#X obj 1177 587 s \$0-16steps-scale-r;
#X obj 742 453 s \$0-16steps-s5-r;
#X obj 107 341 pack f f f f f f f f f f f f f f f f f f f;
#X obj 287 76 r \$0-16steps-s9-s;
#X obj 300 105 r \$0-16steps-s10-s;
#X obj 310 144 r \$0-16steps-s11-s;
#X obj 333 171 r \$0-16steps-s12-s;
#X obj 347 194 r \$0-16steps-s13-s;
#X obj 357 216 r \$0-16steps-s14-s;
#X obj 365 243 r \$0-16steps-s15-s;
#X obj 380 266 r \$0-16steps-s16-s;
#X obj 389 292 r \$0-16steps-begin-s;
#X obj 404 315 r \$0-16steps-end-s;
#X obj 648 237 unpack f f f f f f f f f f f f f f f f f f f, f 78
;
#N canvas 0 22 1069 747 morph-parameters 0;
#X obj 176 94 inlet;
#X obj 176 236 pack f f;
#X obj 176 261 line;
#X obj 209 117 r preset-manager-morph-s;
#X msg 72 244 stop;
#X obj 72 214 r STOP-MORPH!;
#X obj 209 206 spigot;
#X obj 398 137 t f f;
#X obj 455 154 == 0;
#X obj 221 176 f;
#X floatatom 455 222 5 0 0 0 - - -;
#X obj 398 159 t b f;
#X floatatom 425 192 5 0 0 0 - - -;
#X obj 209 139 t f f;
#X obj 398 102 r parameters-s;
#X obj 176 288 outlet;
#X connect 0 0 1 0;
#X connect 1 0 2 0;
#X connect 2 0 15 0;
#X connect 3 0 13 0;
#X connect 4 0 2 0;
#X connect 5 0 4 0;
#X connect 6 0 1 1;
#X connect 7 0 11 0;
#X connect 7 1 8 0;
#X connect 8 0 10 0;
#X connect 9 0 6 0;
#X connect 10 0 1 1;
#X connect 11 0 9 0;
#X connect 11 1 12 0;
#X connect 12 0 6 1;
#X connect 13 0 6 0;
#X connect 13 1 9 1;
#X connect 14 0 7 0;
#X restore 803 658 pd morph-parameters;
#N canvas 0 22 1069 747 morph-parameters 0;
#X obj 176 94 inlet;
#X obj 176 236 pack f f;
#X obj 176 261 line;
#X obj 209 117 r preset-manager-morph-s;
#X msg 72 244 stop;
#X obj 72 214 r STOP-MORPH!;
#X obj 209 206 spigot;
#X obj 398 137 t f f;
#X obj 455 154 == 0;
#X obj 221 176 f;
#X floatatom 455 222 5 0 0 0 - - -;
#X obj 398 159 t b f;
#X floatatom 425 192 5 0 0 0 - - -;
#X obj 209 139 t f f;
#X obj 398 102 r parameters-s;
#X obj 176 288 outlet;
#X connect 0 0 1 0;
#X connect 1 0 2 0;
#X connect 2 0 15 0;
#X connect 3 0 13 0;
#X connect 4 0 2 0;
#X connect 5 0 4 0;
#X connect 6 0 1 1;
#X connect 7 0 11 0;
#X connect 7 1 8 0;
#X connect 8 0 10 0;
#X connect 9 0 6 0;
#X connect 10 0 1 1;
#X connect 11 0 9 0;
#X connect 11 1 12 0;
#X connect 12 0 6 1;
#X connect 13 0 6 0;
#X connect 13 1 9 1;
#X connect 14 0 7 0;
#X restore 846 547 pd morph-parameters;
#N canvas 0 22 1069 747 morph-parameters 0;
#X obj 176 94 inlet;
#X obj 176 236 pack f f;
#X obj 176 261 line;
#X obj 209 117 r preset-manager-morph-s;
#X msg 72 244 stop;
#X obj 72 214 r STOP-MORPH!;
#X obj 209 206 spigot;
#X obj 398 137 t f f;
#X obj 455 154 == 0;
#X obj 221 176 f;
#X floatatom 455 222 5 0 0 0 - - -;
#X obj 398 159 t b f;
#X floatatom 425 192 5 0 0 0 - - -;
#X obj 209 139 t f f;
#X obj 398 102 r parameters-s;
#X obj 176 288 outlet;
#X connect 0 0 1 0;
#X connect 1 0 2 0;
#X connect 2 0 15 0;
#X connect 3 0 13 0;
#X connect 4 0 2 0;
#X connect 5 0 4 0;
#X connect 6 0 1 1;
#X connect 7 0 11 0;
#X connect 7 1 8 0;
#X connect 8 0 10 0;
#X connect 9 0 6 0;
#X connect 10 0 1 1;
#X connect 11 0 9 0;
#X connect 11 1 12 0;
#X connect 12 0 6 1;
#X connect 13 0 6 0;
#X connect 13 1 9 1;
#X connect 14 0 7 0;
#X restore 832 600 pd morph-parameters;
#N canvas 0 22 1069 747 morph-parameters 0;
#X obj 176 94 inlet;
#X obj 176 236 pack f f;
#X obj 176 261 line;
#X obj 209 117 r preset-manager-morph-s;
#X msg 72 244 stop;
#X obj 72 214 r STOP-MORPH!;
#X obj 209 206 spigot;
#X obj 398 137 t f f;
#X obj 455 154 == 0;
#X obj 221 176 f;
#X floatatom 455 222 5 0 0 0 - - -;
#X obj 398 159 t b f;
#X floatatom 425 192 5 0 0 0 - - -;
#X obj 209 139 t f f;
#X obj 398 102 r parameters-s;
#X obj 176 288 outlet;
#X connect 0 0 1 0;
#X connect 1 0 2 0;
#X connect 2 0 15 0;
#X connect 3 0 13 0;
#X connect 4 0 2 0;
#X connect 5 0 4 0;
#X connect 6 0 1 1;
#X connect 7 0 11 0;
#X connect 7 1 8 0;
#X connect 8 0 10 0;
#X connect 9 0 6 0;
#X connect 10 0 1 1;
#X connect 11 0 9 0;
#X connect 11 1 12 0;
#X connect 12 0 6 1;
#X connect 13 0 6 0;
#X connect 13 1 9 1;
#X connect 14 0 7 0;
#X restore 861 487 pd morph-parameters;
#N canvas 0 22 1069 747 morph-parameters 0;
#X obj 176 94 inlet;
#X obj 176 236 pack f f;
#X obj 176 261 line;
#X obj 209 117 r preset-manager-morph-s;
#X msg 72 244 stop;
#X obj 72 214 r STOP-MORPH!;
#X obj 209 206 spigot;
#X obj 398 137 t f f;
#X obj 455 154 == 0;
#X obj 221 176 f;
#X floatatom 455 222 5 0 0 0 - - -;
#X obj 398 159 t b f;
#X floatatom 425 192 5 0 0 0 - - -;
#X obj 209 139 t f f;
#X obj 398 102 r parameters-s;
#X obj 176 288 outlet;
#X connect 0 0 1 0;
#X connect 1 0 2 0;
#X connect 2 0 15 0;
#X connect 3 0 13 0;
#X connect 4 0 2 0;
#X connect 5 0 4 0;
#X connect 6 0 1 1;
#X connect 7 0 11 0;
#X connect 7 1 8 0;
#X connect 8 0 10 0;
#X connect 9 0 6 0;
#X connect 10 0 1 1;
#X connect 11 0 9 0;
#X connect 11 1 12 0;
#X connect 12 0 6 1;
#X connect 13 0 6 0;
#X connect 13 1 9 1;
#X connect 14 0 7 0;
#X restore 895 434 pd morph-parameters;
#N canvas 0 22 1069 747 morph-parameters 0;
#X obj 176 94 inlet;
#X obj 176 236 pack f f;
#X obj 176 261 line;
#X obj 209 117 r preset-manager-morph-s;
#X msg 72 244 stop;
#X obj 72 214 r STOP-MORPH!;
#X obj 209 206 spigot;
#X obj 398 137 t f f;
#X obj 455 154 == 0;
#X obj 221 176 f;
#X floatatom 455 222 5 0 0 0 - - -;
#X obj 398 159 t b f;
#X floatatom 425 192 5 0 0 0 - - -;
#X obj 209 139 t f f;
#X obj 398 102 r parameters-s;
#X obj 176 288 outlet;
#X connect 0 0 1 0;
#X connect 1 0 2 0;
#X connect 2 0 15 0;
#X connect 3 0 13 0;
#X connect 4 0 2 0;
#X connect 5 0 4 0;
#X connect 6 0 1 1;
#X connect 7 0 11 0;
#X connect 7 1 8 0;
#X connect 8 0 10 0;
#X connect 9 0 6 0;
#X connect 10 0 1 1;
#X connect 11 0 9 0;
#X connect 11 1 12 0;
#X connect 12 0 6 1;
#X connect 13 0 6 0;
#X connect 13 1 9 1;
#X connect 14 0 7 0;
#X restore 920 381 pd morph-parameters;
#N canvas 0 22 1069 747 morph-parameters 0;
#X obj 176 94 inlet;
#X obj 176 236 pack f f;
#X obj 176 261 line;
#X obj 209 117 r preset-manager-morph-s;
#X msg 72 244 stop;
#X obj 72 214 r STOP-MORPH!;
#X obj 209 206 spigot;
#X obj 398 137 t f f;
#X obj 455 154 == 0;
#X obj 221 176 f;
#X floatatom 455 222 5 0 0 0 - - -;
#X obj 398 159 t b f;
#X floatatom 425 192 5 0 0 0 - - -;
#X obj 209 139 t f f;
#X obj 398 102 r parameters-s;
#X obj 176 288 outlet;
#X connect 0 0 1 0;
#X connect 1 0 2 0;
#X connect 2 0 15 0;
#X connect 3 0 13 0;
#X connect 4 0 2 0;
#X connect 5 0 4 0;
#X connect 6 0 1 1;
#X connect 7 0 11 0;
#X connect 7 1 8 0;
#X connect 8 0 10 0;
#X connect 9 0 6 0;
#X connect 10 0 1 1;
#X connect 11 0 9 0;
#X connect 11 1 12 0;
#X connect 12 0 6 1;
#X connect 13 0 6 0;
#X connect 13 1 9 1;
#X connect 14 0 7 0;
#X restore 945 325 pd morph-parameters;
#N canvas 0 22 1069 747 morph-parameters 0;
#X obj 176 94 inlet;
#X obj 176 236 pack f f;
#X obj 176 261 line;
#X obj 209 117 r preset-manager-morph-s;
#X msg 72 244 stop;
#X obj 72 214 r STOP-MORPH!;
#X obj 209 206 spigot;
#X obj 398 137 t f f;
#X obj 455 154 == 0;
#X obj 221 176 f;
#X floatatom 455 222 5 0 0 0 - - -;
#X obj 398 159 t b f;
#X floatatom 425 192 5 0 0 0 - - -;
#X obj 209 139 t f f;
#X obj 398 102 r parameters-s;
#X obj 176 288 outlet;
#X connect 0 0 1 0;
#X connect 1 0 2 0;
#X connect 2 0 15 0;
#X connect 3 0 13 0;
#X connect 4 0 2 0;
#X connect 5 0 4 0;
#X connect 6 0 1 1;
#X connect 7 0 11 0;
#X connect 7 1 8 0;
#X connect 8 0 10 0;
#X connect 9 0 6 0;
#X connect 10 0 1 1;
#X connect 11 0 9 0;
#X connect 11 1 12 0;
#X connect 12 0 6 1;
#X connect 13 0 6 0;
#X connect 13 1 9 1;
#X connect 14 0 7 0;
#X restore 972 269 pd morph-parameters;
#N canvas 0 22 1069 747 morph-parameters 0;
#X obj 176 94 inlet;
#X obj 176 236 pack f f;
#X obj 176 261 line;
#X obj 209 117 r preset-manager-morph-s;
#X msg 72 244 stop;
#X obj 72 214 r STOP-MORPH!;
#X obj 209 206 spigot;
#X obj 398 137 t f f;
#X obj 455 154 == 0;
#X obj 221 176 f;
#X floatatom 455 222 5 0 0 0 - - -;
#X obj 398 159 t b f;
#X floatatom 425 192 5 0 0 0 - - -;
#X obj 209 139 t f f;
#X obj 398 102 r parameters-s;
#X obj 176 288 outlet;
#X connect 0 0 1 0;
#X connect 1 0 2 0;
#X connect 2 0 15 0;
#X connect 3 0 13 0;
#X connect 4 0 2 0;
#X connect 5 0 4 0;
#X connect 6 0 1 1;
#X connect 7 0 11 0;
#X connect 7 1 8 0;
#X connect 8 0 10 0;
#X connect 9 0 6 0;
#X connect 10 0 1 1;
#X connect 11 0 9 0;
#X connect 11 1 12 0;
#X connect 12 0 6 1;
#X connect 13 0 6 0;
#X connect 13 1 9 1;
#X connect 14 0 7 0;
#X restore 1079 354 pd morph-parameters;
#N canvas 0 22 1069 747 morph-parameters 0;
#X obj 176 94 inlet;
#X obj 176 236 pack f f;
#X obj 176 261 line;
#X obj 209 117 r preset-manager-morph-s;
#X msg 72 244 stop;
#X obj 72 214 r STOP-MORPH!;
#X obj 209 206 spigot;
#X obj 398 137 t f f;
#X obj 455 154 == 0;
#X obj 221 176 f;
#X floatatom 455 222 5 0 0 0 - - -;
#X obj 398 159 t b f;
#X floatatom 425 192 5 0 0 0 - - -;
#X obj 209 139 t f f;
#X obj 398 102 r parameters-s;
#X obj 176 288 outlet;
#X connect 0 0 1 0;
#X connect 1 0 2 0;
#X connect 2 0 15 0;
#X connect 3 0 13 0;
#X connect 4 0 2 0;
#X connect 5 0 4 0;
#X connect 6 0 1 1;
#X connect 7 0 11 0;
#X connect 7 1 8 0;
#X connect 8 0 10 0;
#X connect 9 0 6 0;
#X connect 10 0 1 1;
#X connect 11 0 9 0;
#X connect 11 1 12 0;
#X connect 12 0 6 1;
#X connect 13 0 6 0;
#X connect 13 1 9 1;
#X connect 14 0 7 0;
#X restore 1106 298 pd morph-parameters;
#X obj 804 684 s \$0-16steps-s9-r;
#X obj 832 623 s \$0-16steps-s10-r;
#X obj 845 572 s \$0-16steps-s11-r;
#X obj 862 514 s \$0-16steps-s12-r;
#X obj 894 459 s \$0-16steps-s13-r;
#X obj 921 409 s \$0-16steps-s14-r;
#X obj 945 352 s \$0-16steps-s15-r;
#X obj 974 300 s \$0-16steps-s16-r;
#X obj 1079 381 s \$0-16steps-begin-r;
#X obj 1108 329 s \$0-16steps-end-r;
#X obj 120 370 list prepend set;
#X obj 120 391 list trim;
#X connect 0 0 63 0;
#X connect 1 0 0 0;
#X connect 2 0 0 0;
#X connect 4 0 2 0;
#X connect 4 1 1 0;
#X connect 5 0 52 0;
#X connect 6 0 19 0;
#X connect 7 0 10 0;
#X connect 7 1 9 0;
#X connect 7 2 8 0;
#X connect 8 0 3 0;
#X connect 9 0 5 0;
#X connect 10 0 6 0;
#X connect 11 0 7 0;
#X connect 12 0 11 0;
#X connect 13 0 17 0;
#X connect 14 0 4 0;
#X connect 14 1 13 0;
#X connect 15 0 14 0;
#X connect 15 1 13 1;
#X connect 16 0 17 1;
#X connect 17 0 41 0;
#X connect 18 0 16 0;
#X connect 19 0 42 0;
#X connect 20 0 21 0;
#X connect 21 0 19 1;
#X connect 22 0 15 0;
#X connect 23 0 6 1;
#X connect 24 0 46 0;
#X connect 25 0 44 0;
#X connect 26 0 45 0;
#X connect 27 0 43 0;
#X connect 28 0 51 0;
#X connect 29 0 47 0;
#X connect 30 0 48 0;
#X connect 31 0 49 0;
#X connect 32 0 5 1;
#X connect 33 0 52 1;
#X connect 34 0 52 2;
#X connect 35 0 52 3;
#X connect 36 0 52 4;
#X connect 37 0 52 5;
#X connect 38 0 52 6;
#X connect 39 0 52 7;
#X connect 40 0 52 18;
#X connect 41 0 0 0;
#X connect 42 0 3 0;
#X connect 52 0 84 0;
#X connect 53 0 52 8;
#X connect 54 0 52 9;
#X connect 55 0 52 10;
#X connect 56 0 52 11;
#X connect 57 0 52 12;
#X connect 58 0 52 13;
#X connect 59 0 52 14;
#X connect 60 0 52 15;
#X connect 61 0 52 16;
#X connect 62 0 52 17;
#X connect 63 0 24 0;
#X connect 63 1 26 0;
#X connect 63 2 25 0;
#X connect 63 3 27 0;
#X connect 63 4 28 0;
#X connect 63 5 29 0;
#X connect 63 6 30 0;
#X connect 63 7 31 0;
#X connect 63 8 64 0;
#X connect 63 9 66 0;
#X connect 63 10 65 0;
#X connect 63 11 67 0;
#X connect 63 12 68 0;
#X connect 63 13 69 0;
#X connect 63 14 70 0;
#X connect 63 15 71 0;
#X connect 63 16 72 0;
#X connect 63 17 73 0;
#X connect 63 18 50 0;
#X connect 64 0 74 0;
#X connect 65 0 76 0;
#X connect 66 0 75 0;
#X connect 67 0 77 0;
#X connect 68 0 78 0;
#X connect 69 0 79 0;
#X connect 70 0 80 0;
#X connect 71 0 81 0;
#X connect 72 0 82 0;
#X connect 73 0 83 0;
#X connect 84 0 85 0;
#X connect 85 0 3 0;
#X restore 129 580 pd state-saving-via-preset-manager-module;
#X text 844 597 STEP1;
#N canvas 297 27 863 513 parameter-nudging-system 0;
#X obj 23 67 clip 0 127;
#X obj 141 65 clip 0 127;
#X obj 256 68 clip 0 127;
#X obj 381 67 clip 0 127;
#X obj 22 186 clip 0 127;
#X obj 144 187 clip 0 127;
#X obj 272 187 clip 0 127;
#X obj 394 184 clip 0 127;
#X obj 518 184 clip 0 127;
#N canvas 0 22 484 497 nudge-parameters 0;
#X obj 124 234 random;
#X obj 232 335 f;
#X obj 232 368 +;
#X obj 257 166 random 2;
#X obj 124 275 t f f;
#X obj 124 351 t b f;
#X obj 124 297 *;
#X obj 257 188 sel 0 1;
#X msg 257 280 -1;
#X msg 335 280 1;
#X obj 124 149 t b b b;
#X obj 124 74 r NUDGE!;
#X obj 157 193 r NUDGE-RANGE;
#X obj 247 308 inlet;
#X obj 232 397 outlet;
#X obj 124 96 spigot;
#X obj 185 79 r parameters2-s;
#X connect 0 0 4 0;
#X connect 1 0 2 0;
#X connect 2 0 14 0;
#X connect 3 0 7 0;
#X connect 4 0 6 0;
#X connect 5 0 2 0;
#X connect 5 1 2 1;
#X connect 6 0 5 0;
#X connect 7 0 8 0;
#X connect 7 1 9 0;
#X connect 8 0 6 1;
#X connect 9 0 6 1;
#X connect 10 0 0 0;
#X connect 10 1 1 0;
#X connect 10 2 3 0;
#X connect 11 0 15 0;
#X connect 12 0 0 1;
#X connect 13 0 1 1;
#X connect 15 0 10 0;
#X connect 16 0 15 1;
#X restore 23 45 pd nudge-parameters;
#N canvas 0 22 484 497 nudge-parameters 0;
#X obj 124 234 random;
#X obj 232 335 f;
#X obj 232 368 +;
#X obj 257 166 random 2;
#X obj 124 275 t f f;
#X obj 124 351 t b f;
#X obj 124 297 *;
#X obj 257 188 sel 0 1;
#X msg 257 280 -1;
#X msg 335 280 1;
#X obj 124 149 t b b b;
#X obj 124 74 r NUDGE!;
#X obj 157 193 r NUDGE-RANGE;
#X obj 247 308 inlet;
#X obj 232 397 outlet;
#X obj 124 96 spigot;
#X obj 185 79 r parameters2-s;
#X connect 0 0 4 0;
#X connect 1 0 2 0;
#X connect 2 0 14 0;
#X connect 3 0 7 0;
#X connect 4 0 6 0;
#X connect 5 0 2 0;
#X connect 5 1 2 1;
#X connect 6 0 5 0;
#X connect 7 0 8 0;
#X connect 7 1 9 0;
#X connect 8 0 6 1;
#X connect 9 0 6 1;
#X connect 10 0 0 0;
#X connect 10 1 1 0;
#X connect 10 2 3 0;
#X connect 11 0 15 0;
#X connect 12 0 0 1;
#X connect 13 0 1 1;
#X connect 15 0 10 0;
#X connect 16 0 15 1;
#X restore 145 44 pd nudge-parameters;
#N canvas 0 22 484 497 nudge-parameters 0;
#X obj 124 234 random;
#X obj 232 335 f;
#X obj 232 368 +;
#X obj 257 166 random 2;
#X obj 124 275 t f f;
#X obj 124 351 t b f;
#X obj 124 297 *;
#X obj 257 188 sel 0 1;
#X msg 257 280 -1;
#X msg 335 280 1;
#X obj 124 149 t b b b;
#X obj 124 74 r NUDGE!;
#X obj 157 193 r NUDGE-RANGE;
#X obj 247 308 inlet;
#X obj 232 397 outlet;
#X obj 124 96 spigot;
#X obj 185 79 r parameters2-s;
#X connect 0 0 4 0;
#X connect 1 0 2 0;
#X connect 2 0 14 0;
#X connect 3 0 7 0;
#X connect 4 0 6 0;
#X connect 5 0 2 0;
#X connect 5 1 2 1;
#X connect 6 0 5 0;
#X connect 7 0 8 0;
#X connect 7 1 9 0;
#X connect 8 0 6 1;
#X connect 9 0 6 1;
#X connect 10 0 0 0;
#X connect 10 1 1 0;
#X connect 10 2 3 0;
#X connect 11 0 15 0;
#X connect 12 0 0 1;
#X connect 13 0 1 1;
#X connect 15 0 10 0;
#X connect 16 0 15 1;
#X restore 518 159 pd nudge-parameters;
#N canvas 0 22 484 497 nudge-parameters 0;
#X obj 124 234 random;
#X obj 232 335 f;
#X obj 232 368 +;
#X obj 257 166 random 2;
#X obj 124 275 t f f;
#X obj 124 351 t b f;
#X obj 124 297 *;
#X obj 257 188 sel 0 1;
#X msg 257 280 -1;
#X msg 335 280 1;
#X obj 124 149 t b b b;
#X obj 124 74 r NUDGE!;
#X obj 157 193 r NUDGE-RANGE;
#X obj 247 308 inlet;
#X obj 232 397 outlet;
#X obj 124 96 spigot;
#X obj 185 79 r parameters2-s;
#X connect 0 0 4 0;
#X connect 1 0 2 0;
#X connect 2 0 14 0;
#X connect 3 0 7 0;
#X connect 4 0 6 0;
#X connect 5 0 2 0;
#X connect 5 1 2 1;
#X connect 6 0 5 0;
#X connect 7 0 8 0;
#X connect 7 1 9 0;
#X connect 8 0 6 1;
#X connect 9 0 6 1;
#X connect 10 0 0 0;
#X connect 10 1 1 0;
#X connect 10 2 3 0;
#X connect 11 0 15 0;
#X connect 12 0 0 1;
#X connect 13 0 1 1;
#X connect 15 0 10 0;
#X connect 16 0 15 1;
#X restore 273 44 pd nudge-parameters;
#N canvas 0 22 484 497 nudge-parameters 0;
#X obj 124 234 random;
#X obj 232 335 f;
#X obj 232 368 +;
#X obj 257 166 random 2;
#X obj 124 275 t f f;
#X obj 124 351 t b f;
#X obj 124 297 *;
#X obj 257 188 sel 0 1;
#X msg 257 280 -1;
#X msg 335 280 1;
#X obj 124 149 t b b b;
#X obj 124 74 r NUDGE!;
#X obj 157 193 r NUDGE-RANGE;
#X obj 247 308 inlet;
#X obj 232 397 outlet;
#X obj 124 96 spigot;
#X obj 185 79 r parameters2-s;
#X connect 0 0 4 0;
#X connect 1 0 2 0;
#X connect 2 0 14 0;
#X connect 3 0 7 0;
#X connect 4 0 6 0;
#X connect 5 0 2 0;
#X connect 5 1 2 1;
#X connect 6 0 5 0;
#X connect 7 0 8 0;
#X connect 7 1 9 0;
#X connect 8 0 6 1;
#X connect 9 0 6 1;
#X connect 10 0 0 0;
#X connect 10 1 1 0;
#X connect 10 2 3 0;
#X connect 11 0 15 0;
#X connect 12 0 0 1;
#X connect 13 0 1 1;
#X connect 15 0 10 0;
#X connect 16 0 15 1;
#X restore 395 43 pd nudge-parameters;
#N canvas 0 22 484 497 nudge-parameters 0;
#X obj 124 234 random;
#X obj 232 335 f;
#X obj 232 368 +;
#X obj 257 166 random 2;
#X obj 124 275 t f f;
#X obj 124 351 t b f;
#X obj 124 297 *;
#X obj 257 188 sel 0 1;
#X msg 257 280 -1;
#X msg 335 280 1;
#X obj 124 149 t b b b;
#X obj 124 74 r NUDGE!;
#X obj 157 193 r NUDGE-RANGE;
#X obj 247 308 inlet;
#X obj 232 397 outlet;
#X obj 124 96 spigot;
#X obj 185 79 r parameters2-s;
#X connect 0 0 4 0;
#X connect 1 0 2 0;
#X connect 2 0 14 0;
#X connect 3 0 7 0;
#X connect 4 0 6 0;
#X connect 5 0 2 0;
#X connect 5 1 2 1;
#X connect 6 0 5 0;
#X connect 7 0 8 0;
#X connect 7 1 9 0;
#X connect 8 0 6 1;
#X connect 9 0 6 1;
#X connect 10 0 0 0;
#X connect 10 1 1 0;
#X connect 10 2 3 0;
#X connect 11 0 15 0;
#X connect 12 0 0 1;
#X connect 13 0 1 1;
#X connect 15 0 10 0;
#X connect 16 0 15 1;
#X restore 22 162 pd nudge-parameters;
#N canvas 0 22 484 497 nudge-parameters 0;
#X obj 124 234 random;
#X obj 232 335 f;
#X obj 232 368 +;
#X obj 257 166 random 2;
#X obj 124 275 t f f;
#X obj 124 351 t b f;
#X obj 124 297 *;
#X obj 257 188 sel 0 1;
#X msg 257 280 -1;
#X msg 335 280 1;
#X obj 124 149 t b b b;
#X obj 124 74 r NUDGE!;
#X obj 157 193 r NUDGE-RANGE;
#X obj 247 308 inlet;
#X obj 232 397 outlet;
#X obj 124 96 spigot;
#X obj 185 79 r parameters2-s;
#X connect 0 0 4 0;
#X connect 1 0 2 0;
#X connect 2 0 14 0;
#X connect 3 0 7 0;
#X connect 4 0 6 0;
#X connect 5 0 2 0;
#X connect 5 1 2 1;
#X connect 6 0 5 0;
#X connect 7 0 8 0;
#X connect 7 1 9 0;
#X connect 8 0 6 1;
#X connect 9 0 6 1;
#X connect 10 0 0 0;
#X connect 10 1 1 0;
#X connect 10 2 3 0;
#X connect 11 0 15 0;
#X connect 12 0 0 1;
#X connect 13 0 1 1;
#X connect 15 0 10 0;
#X connect 16 0 15 1;
#X restore 144 161 pd nudge-parameters;
#N canvas 0 22 484 497 nudge-parameters 0;
#X obj 124 234 random;
#X obj 232 335 f;
#X obj 232 368 +;
#X obj 257 166 random 2;
#X obj 124 275 t f f;
#X obj 124 351 t b f;
#X obj 124 297 *;
#X obj 257 188 sel 0 1;
#X msg 257 280 -1;
#X msg 335 280 1;
#X obj 124 149 t b b b;
#X obj 124 74 r NUDGE!;
#X obj 157 193 r NUDGE-RANGE;
#X obj 247 308 inlet;
#X obj 232 397 outlet;
#X obj 124 96 spigot;
#X obj 185 79 r parameters2-s;
#X connect 0 0 4 0;
#X connect 1 0 2 0;
#X connect 2 0 14 0;
#X connect 3 0 7 0;
#X connect 4 0 6 0;
#X connect 5 0 2 0;
#X connect 5 1 2 1;
#X connect 6 0 5 0;
#X connect 7 0 8 0;
#X connect 7 1 9 0;
#X connect 8 0 6 1;
#X connect 9 0 6 1;
#X connect 10 0 0 0;
#X connect 10 1 1 0;
#X connect 10 2 3 0;
#X connect 11 0 15 0;
#X connect 12 0 0 1;
#X connect 13 0 1 1;
#X connect 15 0 10 0;
#X connect 16 0 15 1;
#X restore 272 161 pd nudge-parameters;
#N canvas 0 22 484 497 nudge-parameters 0;
#X obj 124 234 random;
#X obj 232 335 f;
#X obj 232 368 +;
#X obj 257 166 random 2;
#X obj 124 275 t f f;
#X obj 124 351 t b f;
#X obj 124 297 *;
#X obj 257 188 sel 0 1;
#X msg 257 280 -1;
#X msg 335 280 1;
#X obj 124 149 t b b b;
#X obj 124 74 r NUDGE!;
#X obj 157 193 r NUDGE-RANGE;
#X obj 247 308 inlet;
#X obj 232 397 outlet;
#X obj 124 96 spigot;
#X obj 185 79 r parameters2-s;
#X connect 0 0 4 0;
#X connect 1 0 2 0;
#X connect 2 0 14 0;
#X connect 3 0 7 0;
#X connect 4 0 6 0;
#X connect 5 0 2 0;
#X connect 5 1 2 1;
#X connect 6 0 5 0;
#X connect 7 0 8 0;
#X connect 7 1 9 0;
#X connect 8 0 6 1;
#X connect 9 0 6 1;
#X connect 10 0 0 0;
#X connect 10 1 1 0;
#X connect 10 2 3 0;
#X connect 11 0 15 0;
#X connect 12 0 0 1;
#X connect 13 0 1 1;
#X connect 15 0 10 0;
#X connect 16 0 15 1;
#X restore 394 160 pd nudge-parameters;
#X obj 23 22 r \$0-16steps-s1-s;
#X obj 22 139 r \$0-16steps-s5-s;
#X obj 144 138 r \$0-16steps-s6-s;
#X obj 141 20 r \$0-16steps-s2-s;
#X obj 256 21 r \$0-16steps-s3-s;
#X obj 23 95 s \$0-16steps-s1-r;
#X obj 141 93 s \$0-16steps-s2-r;
#X obj 256 94 s \$0-16steps-s3-r;
#X obj 22 214 s \$0-16steps-s5-r;
#X obj 144 215 s \$0-16steps-s6-r;
#X obj 272 213 s \$0-16steps-s7-r;
#X obj 272 138 r \$0-16steps-s7-s;
#X obj 394 210 s \$0-16steps-s8-r;
#X obj 394 137 r \$0-16steps-s8-s;
#X obj 381 93 s \$0-16steps-s4-r;
#X obj 381 20 r \$0-16steps-s4-s;
#X obj 518 136 r \$0-16steps-scale-s;
#X obj 516 209 s \$0-16steps-scale-r;
#X connect 0 0 23 0;
#X connect 1 0 24 0;
#X connect 2 0 25 0;
#X connect 3 0 32 0;
#X connect 4 0 26 0;
#X connect 5 0 27 0;
#X connect 6 0 28 0;
#X connect 7 0 30 0;
#X connect 8 0 35 0;
#X connect 9 0 0 0;
#X connect 10 0 1 0;
#X connect 11 0 8 0;
#X connect 12 0 2 0;
#X connect 13 0 3 0;
#X connect 14 0 4 0;
#X connect 15 0 5 0;
#X connect 16 0 6 0;
#X connect 17 0 7 0;
#X connect 18 0 9 0;
#X connect 19 0 14 0;
#X connect 20 0 15 0;
#X connect 21 0 10 0;
#X connect 22 0 12 0;
#X connect 29 0 16 0;
#X connect 31 0 17 0;
#X connect 33 0 13 0;
#X connect 34 0 11 0;
#X restore 129 455 pd parameter-nudging-system;
#X obj 108 35 threshold~ 0.9 0 0.9 0;
#X floatatom 493 252 5 0 0 0 - - -;
#X obj 1154 536 s \$0-8steps-s1-r;
#X msg 1154 486 label \$1;
#X obj 1154 43 r \$0-8steps-s1-s;
#X obj 1154 65 / 127;
#X obj 1154 87 * 28;
#X obj 1154 109 tabread;
#X floatatom 1154 131 5 0 0 0 - - -;
#X obj 1154 150 sel 0 1 2 3 4 5 6 7 8 9 10 11;
#X obj 1214 92 r \$0-active-scale;
#X msg 1154 462 symbol C;
#X msg 1168 436 symbol Db;
#X msg 1182 412 symbol D;
#X msg 1195 385 symbol Eb;
#X msg 1209 359 symbol E;
#X msg 1223 335 symbol F;
#N canvas 0 0 1680 1028 external-messages 0;
#X floatatom 11 518 5 0 0 0 - - -;
#X obj 188 295 spigot;
#X obj 216 255 tgl 15 0 empty empty empty 17 7 0 10 -262144 -1 -1 0
1;
#X obj 252 239 ==;
#X obj 267 215 f \$1;
#X obj 267 191 loadbang;
#X msg 185 202 \$1 \$2;
#X msg 185 156 symbol \$1;
#X obj 185 180 pack s f;
#X obj 11 497 f;
#X obj 11 445 t b f;
#X obj 11 468 spigot;
#X obj 185 62 unpack s f f;
#X symbolatom 185 94 10 0 0 0 - - -;
#X obj 216 275 t f f;
#X obj 243 299 s \$0-msg-spigot;
#X obj 59 452 r \$0-msg-spigot;
#X obj 193 418 t l l;
#X obj -101 139 fudiformat;
#X obj -62 186 list length;
#X obj -105 159 t l l;
#X obj -107 241 list split;
#X obj -62 207 - 2;
#X obj -107 262 list split 1;
#X obj -73 286 fudiparse;
#X obj -8 405 list trim;
#X obj 185 14 r 16steps;
#X obj -73 320 makefilename \$0-16steps-s%d-r;
#X obj 188 326 route BEGIN END;
#X obj 193 371 s \$0-16steps-begin-r;
#X obj 328 366 s \$0-16steps-end-r;
#X floatatom 348 428 5 0 0 0 - - -;
#X msg 348 448 S15 \$1 1;
#X obj 348 469 s 16steps;
#X obj 266 429 list;
#X obj -95 106 list trim;
#X msg 194 462 \$2;
#X obj 11 538 s;
#X msg 99 492 symbol help-send2;
#X symbolatom 86 521 10 0 0 0 - - -;
#X obj -8 364 list prepend symbol;
#X connect 0 0 37 0;
#X connect 1 0 28 0;
#X connect 2 0 14 0;
#X connect 3 0 2 0;
#X connect 4 0 3 1;
#X connect 5 0 4 0;
#X connect 6 0 1 0;
#X connect 7 0 8 0;
#X connect 8 0 6 0;
#X connect 9 0 0 0;
#X connect 10 0 11 0;
#X connect 10 1 9 1;
#X connect 11 0 9 0;
#X connect 12 0 13 0;
#X connect 12 1 8 1;
#X connect 12 2 3 0;
#X connect 13 0 7 0;
#X connect 14 0 1 1;
#X connect 14 1 15 0;
#X connect 16 0 11 1;
#X connect 17 0 35 0;
#X connect 17 1 36 0;
#X connect 18 0 20 0;
#X connect 19 0 22 0;
#X connect 20 0 21 0;
#X connect 20 1 19 0;
#X connect 21 0 23 0;
#X connect 22 0 21 1;
#X connect 23 1 24 0;
#X connect 24 0 27 0;
#X connect 25 0 39 0;
#X connect 26 0 12 0;
#X connect 27 0 40 0;
#X connect 28 0 29 0;
#X connect 28 1 30 0;
#X connect 28 2 34 0;
#X connect 31 0 32 0;
#X connect 32 0 33 0;
#X connect 34 0 17 0;
#X connect 35 0 18 0;
#X connect 36 0 10 0;
#X connect 38 0 39 0;
#X connect 39 0 37 1;
#X connect 40 0 25 0;
#X restore 128 604 pd external-messages;
#N canvas 86 20 945 757 incIndex 0;
#X obj 15 8 inlet;
#X obj 590 70 inlet;
#X obj 254 399 outlet;
#X obj 256 115 inlet;
#X obj 57 12 bng 15 250 50 0 empty empty empty 17 7 0 10 -262144 -1
-1;
#X obj 276 163 f;
#X floatatom 305 186 5 0 0 0 - - -;
#X obj 235 139 bng 15 250 50 0 empty empty empty 17 7 0 10 -262144
-1 -1;
#X obj 304 164 expr ($i1+1)%4;
#X obj 401 117 inlet;
#X obj 426 184 f;
#X floatatom 427 233 5 0 0 0 - - -;
#X obj 426 207 expr ($i1+1)%4;
#X obj 316 287 pack 0 0, f 19;
#X obj 256 355 expr $i1+$i2*4;
#X floatatom 256 376 5 0 0 0 - - -;
#X obj 427 163 bng 15 250 50 0 empty empty empty 17 7 0 10 -262144
-1 -1;
#X obj 101 61 f;
#X obj 25 114 spigot;
#X obj 71 114 spigot;
#X obj 58 79 == 0;
#X obj 101 83 expr ($i1%4)!=3;
#X msg 597 126 0;
#X obj 256 327 list store;
#X obj 258 136 t b b;
#X obj 569 101 t b b;
#X obj 402 141 t b b;
#X obj 16 33 t b b b, f 15;
#X obj 427 253 t b f;
#X connect 0 0 27 0;
#X connect 1 0 25 0;
#X connect 3 0 24 0;
#X connect 4 0 27 0;
#X connect 5 0 8 0;
#X connect 6 0 13 0;
#X connect 7 0 5 0;
#X connect 8 0 5 1;
#X connect 8 0 6 0;
#X connect 9 0 26 0;
#X connect 10 0 12 0;
#X connect 11 0 28 0;
#X connect 12 0 10 1;
#X connect 12 0 11 0;
#X connect 13 0 23 1;
#X connect 14 0 15 0;
#X connect 15 0 2 0;
#X connect 15 0 17 1;
#X connect 16 0 10 0;
#X connect 17 0 21 0;
#X connect 18 0 16 0;
#X connect 18 0 7 0;
#X connect 19 0 7 0;
#X connect 20 0 18 1;
#X connect 21 0 19 1;
#X connect 21 0 20 0;
#X connect 22 0 5 1;
#X connect 22 0 10 1;
#X connect 22 0 15 0;
#X connect 22 0 13 1;
#X connect 22 0 13 0;
#X connect 23 0 14 0;
#X connect 24 0 23 0;
#X connect 24 1 5 0;
#X connect 25 0 23 0;
#X connect 25 1 22 0;
#X connect 26 0 23 0;
#X connect 26 1 16 0;
#X connect 27 0 23 0;
#X connect 27 1 18 0;
#X connect 27 1 19 0;
#X connect 27 2 17 0;
#X connect 28 0 13 0;
#X connect 28 1 13 1;
#X restore 418 172 pd incIndex;
#X floatatom 384 312 3 0 0 0 - - -;
#X text 336 312 curStep;
#X obj 372 193 + 1;
#X obj 169 143 vsl 32 28 0 127 0 1 \$0-cartesian-s3a-s \$0-cartesian-s3a-r
3a 1 3 0 10 -262144 -1 -1 4472 1;
#X obj 137 143 vsl 32 28 0 127 0 1 \$0-cartesian-s2a-s \$0-cartesian-s2a-r
2a 1 3 0 10 -262144 -1 -1 4636 1;
#X obj 105 143 vsl 32 28 0 127 0 1 \$0-cartesian-s1a-s \$0-cartesian-s1a-r
1a 1 3 0 10 -262144 -1 -1 4100 1;
#X obj 105 176 vsl 32 28 0 127 0 1 \$0-cartesian-s1b-s \$0-cartesian-s1b-r
1b 1 3 0 10 -262144 -1 -1 3682 1;
#X obj 201 176 vsl 32 28 0 127 0 1 \$0-cartesian-s4b-s \$0-cartesian-s4b-r
4b 1 3 0 10 -262144 -1 -1 191 1;
#X obj 169 176 vsl 32 28 0 127 0 1 \$0-cartesian-s3b-s \$0-cartesian-s3b-r
3b 1 3 0 10 -262144 -1 -1 2382 1;
#X obj 137 176 vsl 32 28 0 127 0 1 \$0-cartesian-s2b-s \$0-cartesian-s2b-r
2b 1 3 0 10 -262144 -1 -1 1500 1;
#X obj 201 209 vsl 32 28 0 127 0 1 \$0-cartesian-s4c-s \$0-cartesian-s4c-r
4c 1 3 0 10 -262144 -1 -1 55 1;
#X obj 169 209 vsl 32 28 0 127 0 1 \$0-cartesian-s3c-s \$0-cartesian-s3c-r
3c 1 3 0 10 -262144 -1 -1 409 1;
#X obj 137 209 vsl 32 28 0 127 0 1 \$0-cartesian-s2c-s \$0-cartesian-s2c-r
2c 1 3 0 10 -262144 -1 -1 709 1;
#X obj 105 209 vsl 32 28 0 127 0 1 \$0-cartesian-s1c-s \$0-cartesian-s1c-r
1c 1 3 0 10 -262144 -1 -1 55 1;
#X obj 105 242 vsl 32 28 0 127 0 1 \$0-cartesian-s1d-s \$0-cartesian-s1d-r
1d 1 3 0 10 -262144 -1 -1 82 1;
#X obj 201 242 vsl 32 28 0 127 0 1 \$0-cartesian-s4d-s \$0-cartesian-s4d-r
4d 1 3 0 10 -262144 -1 -1 1773 1;
#X obj 169 242 vsl 32 28 0 127 0 1 \$0-cartesian-s3d-s \$0-cartesian-s3d-r
3d 1 3 0 10 -262144 -1 -1 191 1;
#X obj 137 242 vsl 32 28 0 127 0 1 \$0-cartesian-s2d-s \$0-cartesian-s2d-r
2d 1 3 0 10 -262144 -1 -1 1336 1;
#X obj 129 166 bng 8 100 100 0 empty \$0cartesianStep0 empty 17 7 0
10 -262144 -4034 -1;
#X text 106 -6 NEXT;
#X obj 252 13 inlet~;
#X obj 252 57 t b b;
#X obj 252 35 threshold~ 0.9 0 0.9 0;
#X text 250 -6 X;
#X obj 402 33 inlet~;
#X obj 402 77 t b b;
#X obj 402 55 threshold~ 0.9 0 0.9 0;
#X text 400 14 Y;
#N canvas 77 0 1564 1006 sortAndScale 0;
#X obj 52 319 f;
#X obj 93 319 f;
#X obj 131 319 f;
#X obj 171 320 f;
#X obj 67 269 / 127;
#X obj 108 269 / 127;
#X obj 146 269 / 127;
#X obj 186 270 / 127;
#X obj 233 319 f;
#X obj 270 319 f;
#X obj 306 319 f;
#X obj 342 318 f;
#X obj 248 270 / 127;
#X obj 285 270 / 127;
#X obj 321 270 / 127;
#X obj 357 269 / 127;
#X floatatom 15 346 5 0 0 0 - - -;
#X obj 55 439 +, f 29;
#X obj 342 416 t b f;
#X obj 410 318 f;
#X obj 451 318 f;
#X obj 489 318 f;
#X obj 529 319 f;
#X obj 425 268 / 127;
#X obj 466 268 / 127;
#X obj 504 268 / 127;
#X obj 544 269 / 127;
#X obj 594 319 f;
#X obj 631 319 f;
#X obj 667 319 f;
#X obj 703 318 f;
#X obj 609 270 / 127;
#X obj 646 270 / 127;
#X obj 682 270 / 127;
#X obj 718 269 / 127;
#X obj 53 130 sel 0 1 2 3 4 5 6 7 8 9 10 11 12 13 14 15, f 101;
#X obj 68 157 r \$0-cartesian-s1a-s;
#X obj 32 12 inlet;
#X obj 343 396 inlet;
#X obj 59 473 outlet;
#X obj 103 178 r \$0-cartesian-s1b-s;
#X obj 147 197 r \$0-cartesian-s1c-s;
#X obj 182 218 r \$0-cartesian-s1d-s;
#X obj 217 152 r \$0-cartesian-s2a-s;
#X obj 252 173 r \$0-cartesian-s2b-s;
#X obj 296 192 r \$0-cartesian-s2c-s;
#X obj 331 213 r \$0-cartesian-s2d-s;
#X obj 376 152 r \$0-cartesian-s3a-s;
#X obj 411 173 r \$0-cartesian-s3b-s;
#X obj 455 192 r \$0-cartesian-s3c-s;
#X obj 490 213 r \$0-cartesian-s3d-s;
#X obj 544 154 r \$0-cartesian-s4a-s;
#X obj 579 175 r \$0-cartesian-s4b-s;
#X obj 623 194 r \$0-cartesian-s4c-s;
#X obj 658 215 r \$0-cartesian-s4d-s;
#X obj 64 112 s;
#X floatatom 90 22 5 0 0 0 - - -;
#X obj 83 92 makefilename \$0cartesianStep%d;
#X obj 64 61 t f b f;
#X floatatom 21 194 5 0 0 0 - - -;
#X obj 67 291 * 1;
#X obj 108 291 * 1;
#X obj 146 291 * 1;
#X obj 186 292 * 1;
#X obj 248 291 * 1;
#X obj 285 291 * 1;
#X obj 321 291 * 1;
#X obj 357 290 * 1;
#X obj 425 290 * 1;
#X obj 466 290 * 1;
#X obj 504 290 * 1;
#X obj 544 291 * 1;
#X obj 609 291 * 1;
#X obj 646 291 * 1;
#X obj 682 291 * 1;
#X obj 718 290 * 1;
#X connect 0 0 16 0;
#X connect 0 0 17 0;
#X connect 1 0 17 0;
#X connect 2 0 17 0;
#X connect 3 0 17 0;
#X connect 4 0 60 0;
#X connect 5 0 61 0;
#X connect 6 0 62 0;
#X connect 7 0 63 0;
#X connect 8 0 17 0;
#X connect 9 0 17 0;
#X connect 10 0 17 0;
#X connect 11 0 17 0;
#X connect 12 0 64 0;
#X connect 13 0 65 0;
#X connect 14 0 66 0;
#X connect 15 0 67 0;
#X connect 17 0 39 0;
#X connect 18 0 17 0;
#X connect 18 1 17 1;
#X connect 19 0 17 0;
#X connect 20 0 17 0;
#X connect 21 0 17 0;
#X connect 22 0 17 0;
#X connect 23 0 68 0;
#X connect 24 0 69 0;
#X connect 25 0 70 0;
#X connect 26 0 71 0;
#X connect 27 0 17 0;
#X connect 28 0 17 0;
#X connect 29 0 17 0;
#X connect 30 0 17 0;
#X connect 31 0 72 0;
#X connect 32 0 73 0;
#X connect 33 0 74 0;
#X connect 34 0 75 0;
#X connect 35 0 0 0;
#X connect 35 1 1 0;
#X connect 35 2 2 0;
#X connect 35 3 3 0;
#X connect 35 4 8 0;
#X connect 35 5 9 0;
#X connect 35 6 10 0;
#X connect 35 7 11 0;
#X connect 35 8 19 0;
#X connect 35 9 20 0;
#X connect 35 10 21 0;
#X connect 35 11 22 0;
#X connect 35 12 27 0;
#X connect 35 13 28 0;
#X connect 35 14 29 0;
#X connect 35 15 30 0;
#X connect 36 0 4 0;
#X connect 36 0 59 0;
#X connect 37 0 58 0;
#X connect 38 0 18 0;
#X connect 40 0 12 0;
#X connect 41 0 23 0;
#X connect 42 0 31 0;
#X connect 43 0 5 0;
#X connect 44 0 13 0;
#X connect 45 0 24 0;
#X connect 46 0 32 0;
#X connect 47 0 6 0;
#X connect 48 0 14 0;
#X connect 49 0 25 0;
#X connect 50 0 33 0;
#X connect 51 0 7 0;
#X connect 52 0 15 0;
#X connect 53 0 26 0;
#X connect 54 0 34 0;
#X connect 56 0 58 0;
#X connect 57 0 55 1;
#X connect 58 0 35 0;
#X connect 58 1 55 0;
#X connect 58 2 57 0;
#X connect 60 0 0 1;
#X connect 61 0 1 1;
#X connect 62 0 2 1;
#X connect 63 0 3 1;
#X connect 64 0 8 1;
#X connect 65 0 9 1;
#X connect 66 0 10 1;
#X connect 67 0 11 1;
#X connect 68 0 19 1;
#X connect 69 0 20 1;
#X connect 70 0 21 1;
#X connect 71 0 22 1;
#X connect 72 0 27 1;
#X connect 73 0 28 1;
#X connect 74 0 29 1;
#X connect 75 0 30 1;
#X restore 494 230 pd sortAndScale;
#X obj 161 166 bng 8 100 100 0 empty \$0cartesianStep1 empty 17 7 0
10 -262144 -4034 -1;
#X obj 193 166 bng 8 100 100 0 empty \$0cartesianStep2 empty 17 7 0
10 -262144 -4034 -1;
#X obj 225 166 bng 8 100 100 0 empty \$0cartesianStep3 empty 17 7 0
10 -262144 -4034 -1;
#X obj 386 112 bng 15 250 50 0 empty empty empty 17 7 0 10 -262144
-1 -1;
#X obj 129 199 bng 8 100 100 0 empty \$0cartesianStep4 empty 17 7 0
10 -262144 -4034 -1;
#X obj 161 199 bng 8 100 100 0 empty \$0cartesianStep5 empty 17 7 0
10 -262144 -4034 -1;
#X obj 193 199 bng 8 100 100 0 empty \$0cartesianStep6 empty 17 7 0
10 -262144 -4034 -1;
#X obj 225 199 bng 8 100 100 0 empty \$0cartesianStep7 empty 17 7 0
10 -262144 -4034 -1;
#X obj 129 232 bng 8 100 100 0 empty \$0cartesianStep8 empty 17 7 0
10 -262144 -4034 -1;
#X obj 161 232 bng 8 100 100 0 empty \$0cartesianStep9 empty 17 7 0
10 -262144 -4034 -1;
#X obj 193 232 bng 8 100 100 0 empty \$0cartesianStep10 empty 17 7
0 10 -262144 -4034 -1;
#X obj 225 232 bng 8 100 100 0 empty \$0cartesianStep11 empty 17 7
0 10 -262144 -4034 -1;
#X obj 129 265 bng 8 100 100 0 empty \$0cartesianStep12 empty 17 7
0 10 -262144 -4034 -1;
#X obj 161 265 bng 8 100 100 0 empty \$0cartesianStep13 empty 17 7
0 10 -262144 -4034 -1;
#X obj 193 265 bng 8 100 100 0 empty \$0cartesianStep14 empty 17 7
0 10 -262144 -4034 -1;
#X obj 225 265 bng 8 100 100 0 empty \$0cartesianStep15 empty 17 7
0 10 -262144 -4034 -1;
#X obj 142 107 cnv 5 5 5 empty empty X 0 0 0 8 -262144 -226533 0;
#X obj 183 107 cnv 5 5 5 empty empty Y 0 0 0 8 -262144 -226533 0;
#X floatatom 205 304 5 0 0 0 - - -;
#X obj 238 131 vsl 32 100 0 127 0 0 empty empty alpha 0 -9 0 10 -262144
-1 -1 17100 1;
#N canvas 0 22 1086 884 sendAlpha 0;
#X obj 162 140 expr $i1%4 + 1;
#X obj 254 142 expr floor($i1/4);
#X obj 254 163 sel 0 1 2 3, f 22;
#X msg 254 184 a;
#X msg 283 186 b;
#X msg 316 187 c;
#X msg 356 189 d;
#X obj 74 354 s, f 15;
#X obj 25 21 inlet;
#X obj 303 23 inlet;
#X obj 162 246 pack 1 s, f 23;
#X obj 297 223 symbol;
#X msg 163 276 \$1\$2;
#X obj 163 297 symbol;
#X obj 162 317 makefilename \$0-cartesian-s%s-r;
#X obj 253 68 f;
#X obj 253 90 spigot;
#X msg 284 68 0;
#X msg 315 69 1;
#X obj 24 45 t b f, f 29;
#X obj 162 112 t f f, f 11;
#X obj 461 7 inlet;
#X obj 461 46 f;
#X obj 491 47 + 1;
#X obj 437 191 spigot;
#X msg 461 25 0;
#X obj 481 113 < 16;
#X obj 427 28 bng 15 250 50 0 empty empty empty 17 7 0 10 -262144 -1
-1;
#X floatatom 485 192 5 0 0 0 - - -;
#X obj 461 67 t f f;
#X obj 439 212 t b f;
#X msg 436 236 0;
#X obj 387 381 print;
#X obj 584 253 random 127;
#X obj 583 226 bng 15 250 50 0 empty empty empty 17 7 0 10 -262144
-1 -1;
#X floatatom 584 274 5 0 0 0 - - -;
#X obj 603 -29 inlet;
#X obj 603 40 f;
#X obj 633 41 + 1;
#X obj 579 185 spigot;
#X msg 603 -7 0;
#X obj 623 107 < 16;
#X obj 569 22 bng 15 250 50 0 empty empty empty 17 7 0 10 -262144 -1
-1;
#X obj 603 61 t f f;
#X obj 581 206 t b f;
#X connect 0 0 10 0;
#X connect 1 0 2 0;
#X connect 2 0 3 0;
#X connect 2 1 4 0;
#X connect 2 2 5 0;
#X connect 2 3 6 0;
#X connect 3 0 11 0;
#X connect 4 0 11 0;
#X connect 5 0 11 0;
#X connect 6 0 11 0;
#X connect 8 0 19 0;
#X connect 9 0 18 0;
#X connect 9 0 15 1;
#X connect 10 0 12 0;
#X connect 11 0 10 1;
#X connect 12 0 13 0;
#X connect 13 0 14 0;
#X connect 14 0 7 1;
#X connect 15 0 16 0;
#X connect 16 0 17 0;
#X connect 16 0 7 0;
#X connect 17 0 16 1;
#X connect 18 0 16 1;
#X connect 19 0 15 0;
#X connect 19 1 20 0;
#X connect 20 0 0 0;
#X connect 20 1 1 0;
#X connect 21 0 25 0;
#X connect 22 0 23 0;
#X connect 22 0 29 0;
#X connect 23 0 22 1;
#X connect 24 0 30 0;
#X connect 24 0 27 0;
#X connect 25 0 22 0;
#X connect 26 0 24 1;
#X connect 26 0 28 0;
#X connect 27 0 22 0;
#X connect 29 0 24 0;
#X connect 29 1 26 0;
#X connect 30 0 31 0;
#X connect 30 1 20 0;
#X connect 31 0 7 0;
#X connect 33 0 35 0;
#X connect 34 0 33 0;
#X connect 35 0 7 0;
#X connect 36 0 40 0;
#X connect 37 0 38 0;
#X connect 37 0 43 0;
#X connect 38 0 37 1;
#X connect 39 0 44 0;
#X connect 39 0 42 0;
#X connect 40 0 37 0;
#X connect 41 0 39 1;
#X connect 42 0 37 0;
#X connect 43 0 39 0;
#X connect 43 1 41 0;
#X connect 44 0 34 0;
#X connect 44 1 20 0;
#X connect 44 1 32 0;
#X restore 201 376 pd sendAlpha;
#X text 568 26 alpha;
#X text 631 26 beta;
#X obj 569 95 * 127;
#X obj 569 116 change;
#X obj 274 131 vsl 32 100 0 127 0 0 empty empty beta 0 -9 0 10 -262144
-1 -1 0 1;
#X obj 310 131 vsl 32 100 0 127 0 0 empty empty gamma 0 -9 0 10 -262144
-1 -1 0 1;
#N canvas 0 22 988 892 sendBeta 0;
#X obj 25 21 inlet;
#X obj 303 23 inlet;
#X obj 253 68 f;
#X obj 253 90 spigot;
#X msg 284 68 0;
#X msg 315 69 1;
#X obj 253 111 / 127;
#X obj 201 365 tabwrite \$0-beta;
#X obj 201 387 table \$0-beta;
#X obj 24 45 t b f, f 29;
#X obj 420 4 inlet;
#X obj 420 43 f;
#X obj 450 44 + 1;
#X obj 396 188 spigot;
#X msg 420 22 0;
#X obj 440 110 < 16;
#X obj 386 25 bng 15 250 50 0 empty empty empty 17 7 0 10 -262144 -1
-1;
#X floatatom 444 189 5 0 0 0 - - -;
#X obj 420 64 t f f;
#X obj 398 209 t b f;
#X msg 395 233 0;
#X obj 581 260 random 127;
#X obj 580 233 bng 15 250 50 0 empty empty empty 17 7 0 10 -262144
-1 -1;
#X floatatom 581 281 5 0 0 0 - - -;
#X obj 581 301 / 127;
#X obj 603 -29 inlet;
#X obj 603 40 f;
#X obj 633 41 + 1;
#X obj 579 185 spigot;
#X msg 603 -7 0;
#X obj 623 107 < 16;
#X obj 569 22 bng 15 250 50 0 empty empty empty 17 7 0 10 -262144 -1
-1;
#X obj 603 61 t f f;
#X obj 581 206 t b f;
#X connect 0 0 9 0;
#X connect 1 0 5 0;
#X connect 1 0 2 1;
#X connect 2 0 3 0;
#X connect 3 0 4 0;
#X connect 3 0 6 0;
#X connect 4 0 3 1;
#X connect 5 0 3 1;
#X connect 6 0 7 0;
#X connect 9 0 2 0;
#X connect 9 1 7 1;
#X connect 10 0 14 0;
#X connect 11 0 12 0;
#X connect 11 0 18 0;
#X connect 12 0 11 1;
#X connect 13 0 19 0;
#X connect 13 0 16 0;
#X connect 14 0 11 0;
#X connect 15 0 13 1;
#X connect 15 0 17 0;
#X connect 16 0 11 0;
#X connect 18 0 13 0;
#X connect 18 1 15 0;
#X connect 19 0 20 0;
#X connect 19 1 7 1;
#X connect 20 0 7 0;
#X connect 21 0 23 0;
#X connect 22 0 21 0;
#X connect 23 0 24 0;
#X connect 24 0 7 0;
#X connect 25 0 29 0;
#X connect 26 0 27 0;
#X connect 26 0 32 0;
#X connect 27 0 26 1;
#X connect 28 0 33 0;
#X connect 28 0 31 0;
#X connect 29 0 26 0;
#X connect 30 0 28 1;
#X connect 31 0 26 0;
#X connect 32 0 28 0;
#X connect 32 1 30 0;
#X connect 33 0 22 0;
#X connect 33 1 7 1;
#X restore 291 375 pd sendBeta;
#N canvas 647 50 988 892 sendGamma 0;
#X obj 25 21 inlet;
#X obj 303 23 inlet;
#X obj 253 68 f;
#X obj 253 90 spigot;
#X msg 284 68 0;
#X msg 315 69 1;
#X obj 253 111 / 127;
#X obj 152 293 table \$0-gamma;
#X obj 152 271 tabwrite \$0-gamma;
#X obj 24 45 t b f, f 29;
#X obj 420 -55 inlet;
#X obj 420 43 f;
#X obj 450 44 + 1;
#X obj 396 188 spigot;
#X msg 420 -33 0;
#X obj 440 110 < 16;
#X obj 386 25 bng 15 250 50 0 empty empty empty 17 7 0 10 -262144 -1
-1;
#X obj 420 64 t f f;
#X obj 398 209 t b f;
#X msg 398 233 0;
#X obj 724 69 random 127;
#X obj 723 42 bng 15 250 50 0 empty empty empty 17 7 0 10 -262144 -1
-1;
#X floatatom 724 90 5 0 0 0 - - -;
#X obj 724 110 / 127;
#X msg 509 201 set \$1;
#X obj 420 -12 t f f, f 16;
#X obj 603 -29 inlet;
#X obj 603 40 f;
#X obj 633 41 + 1;
#X obj 579 185 spigot;
#X msg 603 -7 0;
#X obj 623 107 < 16;
#X obj 569 22 bng 15 250 50 0 empty empty empty 17 7 0 10 -262144 -1
-1;
#X obj 603 61 t f f;
#X obj 581 206 t b f;
#X connect 0 0 9 0;
#X connect 1 0 5 0;
#X connect 1 0 2 1;
#X connect 2 0 3 0;
#X connect 3 0 4 0;
#X connect 3 0 6 0;
#X connect 4 0 3 1;
#X connect 5 0 3 1;
#X connect 6 0 8 0;
#X connect 9 0 2 0;
#X connect 9 1 8 1;
#X connect 10 0 14 0;
#X connect 11 0 12 0;
#X connect 11 0 17 0;
#X connect 12 0 11 1;
#X connect 13 0 18 0;
#X connect 13 0 16 0;
#X connect 14 0 25 0;
#X connect 15 0 13 1;
#X connect 16 0 11 0;
#X connect 17 0 13 0;
#X connect 17 1 15 0;
#X connect 18 0 19 0;
#X connect 18 1 8 1;
#X connect 19 0 8 0;
#X connect 20 0 22 0;
#X connect 21 0 20 0;
#X connect 22 0 23 0;
#X connect 23 0 8 0;
#X connect 24 0 19 0;
#X connect 25 0 11 0;
#X connect 25 1 24 0;
#X connect 26 0 30 0;
#X connect 27 0 28 0;
#X connect 27 0 33 0;
#X connect 28 0 27 1;
#X connect 29 0 34 0;
#X connect 29 0 32 0;
#X connect 30 0 27 0;
#X connect 31 0 29 1;
#X connect 32 0 27 0;
#X connect 33 0 29 0;
#X connect 33 1 31 0;
#X connect 34 0 21 0;
#X connect 34 1 8 1;
#X restore 378 373 pd sendGamma;
#X floatatom 273 218 5 0 0 0 - - -;
#X floatatom 311 218 5 0 0 0 - - -;
#X obj 530 501 sig~;
#X obj 627 555 outlet~;
#X obj 627 487 +~;
#X obj 627 509 min~ 1;
#X obj 627 531 max~ 0;
#X obj 626 463 sig~;
#X obj 631 73 snapshot~;
#X obj 631 94 * 127;
#X obj 631 115 change;
#X obj 691 45 inlet~;
#X text 690 26 beta;
#X obj 690 73 snapshot~;
#X obj 690 94 * 127;
#X obj 690 115 change;
#X obj 848 496 sel 0;
#X text 426 618 alpha out;
#X text 584 594 beta out;
#X text 680 556 gamma out;
#X obj 215 106 cnv 5 5 5 empty empty alpha 0 0 0 8 -262144 -1 0;
#X obj 257 106 cnv 5 5 5 empty empty beta 0 0 0 8 -262144 -1 0;
#X obj 292 106 cnv 5 5 5 empty empty gamma 0 0 0 8 -262144 -1 0;
#X obj 255 293 cnv 5 5 5 empty empty GAMMA 0 0 0 8 -262144 -1 0;
#X obj 524 417 tabread \$0-beta;
#X obj 626 418 tabread \$0-gamma;
#X obj 418 193 t f f f, f 26;
#X msg 420 348 zero;
#X msg 330 347 zero;
#X msg 235 347 zero;
#X msg 462 347 rand;
#X msg 364 348 rand;
#X msg 265 352 rand;
#X obj 244 259 bng 15 250 50 0 empty empty empty 17 7 0 10 -262144
-1 -1;
#X obj 243 242 bng 15 250 50 0 empty empty empty 17 7 0 10 -262144
-1 -1;
#X obj 275 259 bng 15 250 50 0 empty empty empty 17 7 0 10 -262144
-1 -1;
#X obj 274 242 bng 15 250 50 0 empty empty empty 17 7 0 10 -262144
-1 -1;
#X obj 312 261 bng 15 250 50 0 empty empty empty 17 7 0 10 -262144
-1 -1;
#X obj 311 244 bng 15 250 50 0 empty empty empty 17 7 0 10 -262144
-1 -1;
#X obj 425 482 / 1;
#X connect 0 0 42 0;
#X connect 3 0 38 0;
#X connect 4 0 60 3;
#X connect 9 0 14 0;
#X connect 12 0 4 0;
#X connect 12 1 11 0;
#X connect 13 0 4 0;
#X connect 14 0 19 0;
#X connect 15 0 16 0;
#X connect 16 0 113 0;
#X connect 17 0 60 0;
#X connect 18 0 16 0;
#X connect 18 0 127 0;
#X connect 18 0 132 0;
#X connect 19 0 20 0;
#X connect 20 0 10 0;
#X connect 21 0 127 0;
#X connect 22 0 79 0;
#X connect 24 0 25 0;
#X connect 25 0 26 0;
#X connect 26 0 23 0;
#X connect 29 0 31 0;
#X connect 31 0 33 0;
#X connect 33 0 30 0;
#X connect 35 0 36 0;
#X connect 36 0 34 0;
#X connect 38 0 12 0;
#X connect 42 0 17 0;
#X connect 43 0 158 0;
#X connect 46 0 47 0;
#X connect 47 0 48 0;
#X connect 48 0 49 0;
#X connect 49 0 50 0;
#X connect 50 0 51 0;
#X connect 51 0 53 0;
#X connect 51 1 54 0;
#X connect 51 2 55 0;
#X connect 51 3 56 0;
#X connect 51 4 57 0;
#X connect 51 5 58 0;
#X connect 52 0 49 0;
#X connect 53 0 45 0;
#X connect 54 0 45 0;
#X connect 55 0 45 0;
#X connect 56 0 45 0;
#X connect 57 0 45 0;
#X connect 58 0 45 0;
#X connect 60 0 63 0;
#X connect 60 0 145 0;
#X connect 63 0 61 0;
#X connect 81 0 83 0;
#X connect 82 0 60 1;
#X connect 83 0 82 0;
#X connect 85 0 87 0;
#X connect 86 0 60 2;
#X connect 87 0 86 0;
#X connect 89 0 43 0;
#X connect 93 0 60 0;
#X connect 108 0 110 0;
#X connect 108 0 117 0;
#X connect 108 0 118 0;
#X connect 108 0 135 0;
#X connect 109 0 110 1;
#X connect 113 0 114 0;
#X connect 114 0 109 0;
#X connect 115 0 117 1;
#X connect 116 0 118 1;
#X connect 119 0 121 0;
#X connect 120 0 126 0;
#X connect 121 0 24 0;
#X connect 123 0 124 0;
#X connect 124 0 125 0;
#X connect 125 0 122 0;
#X connect 126 0 123 0;
#X connect 127 0 128 0;
#X connect 128 0 129 0;
#X connect 129 0 115 0;
#X connect 130 0 132 0;
#X connect 132 0 133 0;
#X connect 133 0 134 0;
#X connect 134 0 116 0;
#X connect 135 0 35 0;
#X connect 143 0 119 0;
#X connect 144 0 120 0;
#X connect 145 0 143 0;
#X connect 145 0 144 0;
#X connect 145 1 89 0;
#X connect 145 2 108 0;
#X connect 146 0 118 2;
#X connect 147 0 117 2;
#X connect 148 0 110 2;
#X connect 149 0 118 3;
#X connect 150 0 117 3;
#X connect 151 0 110 3;
#X connect 152 0 151 0;
#X connect 153 0 148 0;
#X connect 154 0 150 0;
#X connect 155 0 147 0;
#X connect 156 0 149 0;
#X connect 157 0 146 0;
#X connect 158 0 9 0;
#X coords 0 -1 1 1 250 200 2 100 100;
