#N canvas 0 23 920 807 12;
#N canvas 0 0 450 300 (subpatch) 0;
#X array oscilliscope 1024 float 0;
#X coords 0 1 1023 -1 200 140 1;
#X restore 204 232 graph;
#X obj 691 461 tabwrite~ oscilliscope;
#X obj 690 217 inlet~;
#X floatatom 359 202 7 0 0 0 samples - -;
#X msg 358 425 \; oscilliscope resize \$1;
#X obj 436 194 loadbang;
#X msg 436 236 1024;
#X obj 509 260 samplerate~;
#X obj 509 284 / 1000;
#X obj 464 308 pack f f;
#X obj 464 331 /;
#X obj 612 268 expr~ $v1>0;
#X msg 690 393 1;
#X msg 613 382 0;
#X obj 690 374 delay 10;
#X obj 613 334 t b b;
#X obj 464 358 * 3;
#X obj 436 213 t b b;
#X obj 464 383 max 100;
#X obj 631 425 spigot 1;
#X obj 740 346 metro 100;
#X obj 254 204 tgl 15 0 empty empty enable 17 7 0 10 -262144 -1 -1
1 1;
#X obj 742 218 / 44.1;
#X floatatom 359 217 7 0 0 0 scope_size - -;
#X obj 787 237 t b f;
#X obj 743 288 expr $f1*$f2;
#X msg 414 253 4;
#X connect 2 0 1 0;
#X connect 2 0 11 0;
#X connect 3 0 9 0;
#X connect 3 0 4 0;
#X connect 5 0 17 0;
#X connect 6 0 3 0;
#X connect 6 0 22 0;
#X connect 6 0 26 0;
#X connect 7 0 8 0;
#X connect 8 0 9 1;
#X connect 9 0 10 0;
#X connect 10 0 16 0;
#X connect 12 0 19 1;
#X connect 13 0 19 1;
#X connect 14 0 12 0;
#X connect 15 0 13 0;
#X connect 15 1 19 0;
#X connect 16 0 18 0;
#X connect 17 0 6 0;
#X connect 17 1 7 0;
#X connect 18 0 14 1;
#X connect 19 0 14 0;
#X connect 19 0 1 0;
#X connect 20 0 1 0;
#X connect 21 0 20 0;
#X connect 22 0 25 0;
#X connect 23 0 24 0;
#X connect 24 0 25 0;
#X connect 24 1 25 1;
#X connect 25 0 20 1;
#X connect 26 0 23 0;
#X coords 0 -1 1 1 210 180 1 200 200;
