#N canvas 0 22 1335 1006 10;
#X obj 33 556 cnv 15 400 30 empty empty OUTPUTS: 20 12 0 14 -158136
-262144 0;
#X obj 27 182 cnv 15 400 30 empty empty CONTROLS: 20 12 0 14 -158136
-262144 0;
#X obj 30 290 cnv 15 400 30 empty empty INPUTS: 20 12 0 14 -158136
-262144 0;
#X obj 24 25 cnv 15 400 30 empty empty 16STEPS 20 12 0 14 -150893 -262144
0;
#X text 28 217 STEPS1-8 - individual sliders to set the voltage level
of each step;
#X text 28 259 SCALE - choose scale for quantization;
#X text 29 324 CLOCK-IN- trigger/gate/clock input;
#X text 29 352 CV(PRE-Q) - modulation input. CV added to the sequence
before quantization.;
#X text 29 393 CV(POST-Q) - modulation input. CV added to the sequence
after quantization.;
#X text 33 596 Q-OUT - quantized output;
#X text 27 619 OUT2 - un-quantized output that outputs the full voltage
range. This output is often more useful if you're using the sequencer
to modulate other parameters than pitch of an oscillator.;
#X text 29 434 RESET - trigger/gate input to force reset the sequencer
to step 1;
#X text 27 688 S1 - trigger/gate signal at start of sequence loop;
#X text 23 65 The "16STEPS" module is a simple 16 step sequencer with
onboard quantization. 16steps requires a trigger/gate/clock signal
at the CLOCK-IN input to step forward. There are four cv inputs. CV(PRE-Q)
modulates the sequencer before the quantizer so the sequencer will
still be in tune when applying modulation here. CV(POST-Q) adds the
CV after the quantizer so any CV at the input will transpose the sequence.
Begin and End set the first and last steps the sequencer will reach.
;
#X text 31 467 BEGIN - sets the lowest step number the sequencer will
reach;
#X text 31 508 END - sets the highest step number the sequencer will
reach;
#X obj 443 90 16steps 1;
