#N canvas 0 26 1216 1002 12;
#X obj 25 206 receiveOSC;
#X obj 20 303 / 32;
#X obj 20 326 vsl 32 64 0 127 0 0 empty empty empty 0 -9 0 10 -262144
-1 -1 2000 1;
#X obj 58 305 / 32;
#X obj 58 327 vsl 32 64 0 127 0 0 empty empty empty 0 -9 0 10 -262144
-1 -1 2440 1;
#X obj 237 310 tgl 30 0 empty empty empty 17 7 0 10 -262144 -1 -1 0
1;
#X obj 579 199 tgl 15 0 empty empty empty 17 7 0 10 -262144 -1 -1 1
1;
#X obj 579 243 f;
#X obj 612 242 + 1;
#X msg 579 265 0 \$1;
#X obj 579 290 oscformat clock;
#X obj 578 341 sendOSC;
#X msg 862 176 0;
#X obj 862 199 oscformat mirror;
#X obj 768 471 s trigger;
#X floatatom 641 162 5 0 0 0 - - -;
#X obj 19 -22 vsl 15 128 1.27 127 1 0 empty empty BD 0 -9 0 10 -262144
-1 -1 19200 1;
#X obj 38 -22 vsl 15 128 1.27 127 1 0 empty empty SD 0 -9 0 10 -262144
-1 -1 20200 1;
#X obj 57 -22 vsl 15 128 1.27 127 1 0 empty empty HH 0 -9 0 10 -262144
-1 -1 11400 1;
#X obj 25 238 s incomingOSC;
#X obj 26 261 r incomingOSC;
#X obj 769 410 r incomingOSC;
#X obj 267 310 tgl 30 0 empty empty empty 17 7 0 10 -262144 -1 -1 0
1;
#X obj 177 310 tgl 30 0 empty empty empty 17 7 0 10 -262144 -1 -1 0
1;
#X obj 207 310 tgl 30 0 empty empty empty 17 7 0 10 -262144 -1 -1 0
1;
#X obj 153 224 spigot;
#X obj 153 247 print;
#X obj 191 206 tgl 15 0 empty empty empty 17 7 0 10 -262144 -1 -1 1
1;
#X obj 323 348 symbol;
#X obj 305 373 s;
#X msg 443 154 0;
#X obj 443 177 oscformat cancel;
#N canvas 0 22 1680 1006 enableReceives 0;
#X obj 27 171 r dr1_en_decay-s;
#X msg 27 194 dr1 decay s1 \$1;
#X msg 391 193 dr2 tone s1 \$1;
#X msg 514 193 dr3 decay s1 \$1;
#X msg 634 192 dr3 tone s1 \$1;
#X obj 150 171 r dr1_en_tone-s;
#X obj 270 170 r dr2_en_decay-s;
#X obj 391 170 r dr2_en_tone-s;
#X obj 514 170 r dr3_en_decay-s;
#X obj 634 169 r dr3_en_tone-s;
#X obj 752 169 r synth_en_decay-s;
#X msg 752 192 synth decay s1 \$1;
#X obj 893 169 r synth_en_tone-s;
#X msg 893 192 synth tone s1 \$1;
#X obj 1028 169 r sampler_en_decay-s;
#X msg 1028 192 sampler decay s1 \$1;
#X obj 1174 167 r sampler_en_tone-s;
#X msg 1174 191 sampler tone s1 \$1;
#X obj 25 250 outlet;
#X obj 29 95 r dr1_en_decay-s2;
#X msg 27 118 dr1 decay s2 \$1;
#X obj 152 95 r dr1_en_tone-s2;
#X obj 272 94 r dr2_en_decay-s2;
#X msg 272 117 dr2 decay s2 \$1;
#X obj 393 94 r dr2_en_tone-s2;
#X msg 393 117 dr2 tone s2 \$1;
#X obj 516 94 r dr3_en_decay-s2;
#X msg 516 117 dr3 decay s2 \$1;
#X obj 636 93 r dr3_en_tone-s2;
#X msg 636 116 dr3 tone s2 \$1;
#X obj 754 93 r synth_en_decay-s2;
#X msg 754 116 synth decay s2 \$1;
#X obj 895 93 r synth_en_tone-s2;
#X msg 895 116 synth tone s2 \$1;
#X obj 1030 93 r sampler_en_decay-s2;
#X msg 1030 116 sampler decay s2 \$1;
#X obj 1187 93 r sampler_en_tone-s2;
#X msg 1187 117 sampler tone s2 \$1;
#X obj 34 -15 r dr1_en_decay-s3;
#X obj 157 -14 r dr1_en_tone-s3;
#X obj 277 -15 r dr2_en_decay-s3;
#X obj 398 -15 r dr2_en_tone-s3;
#X obj 521 -15 r dr3_en_decay-s3;
#X msg 398 8 dr2 tone s3 \$1;
#X msg 277 8 dr2 decay s3 \$1;
#X msg 156 9 dr1 tone s3 \$1;
#X msg 32 9 dr1 decay s3 \$1;
#X msg 521 8 dr3 decay s3 \$1;
#X msg 641 7 dr3 tone s3 \$1;
#X obj 641 -16 r dr3_en_tone-s3;
#X obj 759 -16 r synth_en_decay-s3;
#X obj 900 -16 r synth_en_tone-s3;
#X obj 1035 -16 r sampler_en_decay-s3;
#X obj 1192 -14 r sampler_en_tone-s3;
#X msg 1192 10 sampler tone s3 \$1;
#X msg 1035 7 sampler decay s3 \$1;
#X msg 900 7 synth tone s3 \$1;
#X msg 759 7 synth decay s3 \$1;
#X msg 152 118 dr1 tone s2 \$1;
#X msg 150 194 dr1 tone s1 \$1;
#X msg 270 193 dr2 decay s1 \$1;
#X connect 0 0 1 0;
#X connect 1 0 18 0;
#X connect 2 0 18 0;
#X connect 3 0 18 0;
#X connect 4 0 18 0;
#X connect 5 0 59 0;
#X connect 6 0 60 0;
#X connect 7 0 2 0;
#X connect 8 0 3 0;
#X connect 9 0 4 0;
#X connect 10 0 11 0;
#X connect 11 0 18 0;
#X connect 12 0 13 0;
#X connect 13 0 18 0;
#X connect 14 0 15 0;
#X connect 15 0 18 0;
#X connect 16 0 17 0;
#X connect 17 0 18 0;
#X connect 19 0 20 0;
#X connect 20 0 18 0;
#X connect 21 0 58 0;
#X connect 22 0 23 0;
#X connect 23 0 18 0;
#X connect 24 0 25 0;
#X connect 25 0 18 0;
#X connect 26 0 27 0;
#X connect 27 0 18 0;
#X connect 28 0 29 0;
#X connect 29 0 18 0;
#X connect 30 0 31 0;
#X connect 31 0 18 0;
#X connect 32 0 33 0;
#X connect 33 0 18 0;
#X connect 34 0 35 0;
#X connect 35 0 18 0;
#X connect 36 0 37 0;
#X connect 37 0 18 0;
#X connect 38 0 46 0;
#X connect 39 0 45 0;
#X connect 40 0 44 0;
#X connect 41 0 43 0;
#X connect 42 0 47 0;
#X connect 43 0 18 0;
#X connect 44 0 18 0;
#X connect 45 0 18 0;
#X connect 46 0 18 0;
#X connect 47 0 18 0;
#X connect 48 0 18 0;
#X connect 49 0 48 0;
#X connect 50 0 57 0;
#X connect 51 0 56 0;
#X connect 52 0 55 0;
#X connect 53 0 54 0;
#X connect 54 0 18 0;
#X connect 55 0 18 0;
#X connect 56 0 18 0;
#X connect 57 0 18 0;
#X connect 58 0 18 0;
#X connect 59 0 18 0;
#X connect 60 0 18 0;
#X restore 15 558 pd enableReceives;
#X obj 15 581 s enableToggles;
#X obj 864 132 r incomingOSC;
#X obj 864 155 route init;
#X obj 641 186 clip 20 1000;
#N canvas 0 22 1022 302 pitchReceives 0;
#X obj 143 25 r v1-pitch-s;
#X obj 235 26 r v2-pitch-s;
#X obj 327 27 r sub-pitch-s;
#X obj 38 25 r base-pitch-s;
#X msg 38 48 0 \$1;
#X obj 38 71 oscformat setPitch;
#X obj 38 94 s outgoingOSC;
#X msg 143 48 1 \$1;
#X msg 235 49 2 \$1;
#X msg 327 50 3 \$1;
#X obj 433 29 r synthDetune-s;
#X obj 423 53 oscformat synthDetune;
#X connect 0 0 7 0;
#X connect 1 0 8 0;
#X connect 2 0 9 0;
#X connect 3 0 4 0;
#X connect 4 0 5 0;
#X connect 5 0 6 0;
#X connect 7 0 5 0;
#X connect 8 0 5 0;
#X connect 9 0 5 0;
#X connect 10 0 11 0;
#X connect 11 0 6 0;
#X restore 14 535 pd pitchReceives;
#N canvas 171 246 1468 317 gains 0;
#X obj 23 18 inlet;
#X msg 23 41 VCA \$1 30;
#X obj 426 101 s vca;
#X obj 100 17 inlet;
#X obj 177 17 inlet;
#X obj 254 16 inlet;
#X obj 331 16 inlet;
#X obj 540 11 inlet;
#X obj 620 13 inlet;
#X obj 697 12 inlet;
#X msg 101 40 VCA \$1 31;
#X msg 177 40 VCA \$1 32;
#X msg 540 34 VCA \$1 20;
#X msg 620 36 VCA \$1 21;
#X msg 697 35 VCA \$1 22;
#X msg 254 39 VCA \$1 26;
#X msg 331 39 VCA \$1 25;
#X obj 429 12 inlet;
#X msg 429 35 MASTER \$1 2;
#X obj 483 103 s maestro4;
#X connect 0 0 1 0;
#X connect 1 0 2 0;
#X connect 3 0 10 0;
#X connect 4 0 11 0;
#X connect 5 0 15 0;
#X connect 6 0 16 0;
#X connect 7 0 12 0;
#X connect 8 0 13 0;
#X connect 9 0 14 0;
#X connect 10 0 2 0;
#X connect 11 0 2 0;
#X connect 12 0 2 0;
#X connect 13 0 2 0;
#X connect 14 0 2 0;
#X connect 15 0 2 0;
#X connect 16 0 2 0;
#X connect 17 0 18 0;
#X connect 18 0 19 0;
#X restore 19 114 pd gains;
#X f 31;
#X obj 81 -22 vsl 24 128 1.27 127 1 0 empty empty SYN 0 -9 0 10 -262144
-1 -1 0 1;
#X obj 107 -22 vsl 24 128 1.27 127 1 0 empty empty SAMP 0 -9 0 10 -262144
-1 -1 0 1;
#X obj 183 -21 vsl 15 128 1.27 127 1 0 empty empty DR 0 -9 0 10 -204786
-1 -1 0 1;
#X obj 203 -21 vsl 15 128 1.27 127 1 0 empty empty SYN 0 -9 0 10 -204786
-1 -1 0 1;
#X obj 223 -21 vsl 15 128 1.27 127 1 0 empty empty SAM 0 -9 0 10 -204786
-1 -1 0 1;
#X obj 17 -61 cnv 15 155 20 empty empty MIXER 4 10 0 14 -203904 -66577
0;
#X obj 180 -61 cnv 15 60 20 empty empty reverb 4 10 0 14 -204786 -66577
0;
#X obj 139 -22 vsl 32 128 1.27 127 1 0 empty empty MASTER 0 -9 0 10
-203904 -1 -1 0 1;
#X obj 16 174 cnv 15 320 20 empty empty MONITOR 4 10 0 14 -203904 -66577
0;
#X obj 769 441 route trigger;
#X obj 575 155 loadbang;
#X msg 575 177 1;
#X obj 641 115 r tempo;
#X obj 258 78 cnv 15 70 20 empty empty tempo 4 10 0 10 -261234 -66577
0;
#X obj 263 112 hsl 64 15 0 127 0 0 tempo tempo-r tempo -2 -8 0 10 -261234
-1 -1 5046 1;
#X obj 641 138 expr pow($f1/127 \, 2)*400 + 50;
#X obj 579 220 metro 140;
#X obj 21 281 route pot0 pot1 pot2 pot3 sw0 sw1 sw2 sw3 module param
;
#X obj 94 305 / 32;
#X obj 94 328 vsl 32 64 0 127 0 0 empty empty empty 0 -9 0 10 -262144
-1 -1 8232 1;
#X obj 132 307 / 32;
#X obj 132 329 vsl 32 64 0 127 0 0 empty empty empty 0 -9 0 10 -262144
-1 -1 2762 1;
#X floatatom 658 212 5 0 0 0 - - -;
#N canvas 0 22 450 300 setTempo 0;
#X obj 53 33 loadbang;
#X obj 53 56 delay 1000;
#X obj 33 59 bng 15 250 50 0 empty empty empty 17 7 0 10 -262144 -1
-1;
#X obj 53 127 s tempo-r;
#X floatatom 8 128 5 0 0 0 - - -;
#X obj 53 79 random 25;
#X obj 53 102 + 50;
#X text 5 6 choose a random tempo on load;
#X connect 0 0 1 0;
#X connect 1 0 5 0;
#X connect 2 0 5 0;
#X connect 5 0 4 0;
#X connect 5 0 6 0;
#X connect 6 0 3 0;
#X restore 259 133 pd setTempo;
#X connect 0 0 25 0;
#X connect 0 0 19 0;
#X connect 1 0 2 0;
#X connect 3 0 4 0;
#X connect 6 0 55 0;
#X connect 7 0 8 0;
#X connect 7 0 9 0;
#X connect 8 0 7 1;
#X connect 9 0 10 0;
#X connect 10 0 11 0;
#X connect 12 0 13 0;
#X connect 13 0 11 0;
#X connect 13 0 11 1;
#X connect 15 0 36 0;
#X connect 16 0 38 0;
#X connect 17 0 38 1;
#X connect 18 0 38 2;
#X connect 20 0 56 0;
#X connect 21 0 48 0;
#X connect 25 0 26 0;
#X connect 27 0 25 1;
#X connect 28 0 29 1;
#X connect 30 0 31 0;
#X connect 31 0 11 0;
#X connect 32 0 33 0;
#X connect 34 0 35 0;
#X connect 35 0 12 0;
#X connect 36 0 55 1;
#X connect 36 0 61 0;
#X connect 39 0 38 3;
#X connect 40 0 38 4;
#X connect 41 0 38 6;
#X connect 42 0 38 7;
#X connect 43 0 38 8;
#X connect 46 0 38 5;
#X connect 48 0 14 0;
#X connect 49 0 50 0;
#X connect 50 0 6 0;
#X connect 51 0 54 0;
#X connect 54 0 15 0;
#X connect 55 0 7 0;
#X connect 56 0 1 0;
#X connect 56 1 3 0;
#X connect 56 2 57 0;
#X connect 56 3 59 0;
#X connect 56 4 23 0;
#X connect 56 5 24 0;
#X connect 56 6 5 0;
#X connect 56 7 22 0;
#X connect 56 8 28 0;
#X connect 56 9 29 0;
#X connect 57 0 58 0;
#X connect 59 0 60 0;
#X coords 0 0 0.5 0.5 0 0 0;
